<svg xmlns="http://www.w3.org/2000/svg" width="22.5" height="20" viewBox="0 0 576 512"><!--!Font Awesome Pro 6.7.2 by @fontawesome - https://fontawesome.com License - https://fontawesome.com/license (Commercial License) Copyright 2025 Fonticons, Inc.--><path fill="#9e9e9e" d="M298.6 4c-6-5.3-15.1-5.3-21.2 0L5.4 244c-6.6 5.8-7.3 16-1.4 22.6s16 7.3 22.6 1.4L64 235v197c0 44.2 35.8 80 80 80h288c44.2 0 80-35.8 80-80V235l37.4 33c6.6 5.8 16.7 5.2 22.6-1.4s5.2-16.7-1.4-22.6zM96 432V206.7L288 37.3l192 169.4V432c0 26.5-21.5 48-48 48h-64V320c0-17.7-14.3-32-32-32h-96c-17.7 0-32 14.3-32 32v160h-64c-26.5 0-48-21.5-48-48m144 48V320h96v160z"/></svg>