<svg xmlns="http://www.w3.org/2000/svg" width="25" height="20" viewBox="0 0 640 512"><!--!Font Awesome Pro 6.7.2 by @fontawesome - https://fontawesome.com License - https://fontawesome.com/license (Commercial License) Copyright 2025 Fonticons, Inc.--><path fill="#9e9e9e" d="M128 128a96 96 0 1 1 192 0 96 96 0 1 1-192 0m141.7 208c80 0 145 64.3 146.3 144H32c1.2-79.7 66.2-144 146.3-144zM224 256a128 128 0 1 0 0-256 128 128 0 1 0 0 256m-45.7 48C79.8 304 0 383.8 0 482.3 0 498.7 13.3 512 29.7 512h388.6c16.4 0 29.7-13.3 29.7-29.7 0-98.5-79.8-178.3-178.3-178.3zm431 208c17 0 30.7-13.8 30.7-30.7 0-89.1-72.2-161.3-161.3-161.3h-61.4c-4.4 0-8.8.2-13.2.5 11.3 9.4 21.6 19.9 30.7 31.5h43.9c71 0 128.6 57.2 129.3 128H480v2.3c0 10.8-2.8 20.9-7.6 29.7zM432 256c61.9 0 112-50.1 112-112S493.9 32 432 32c-24.8 0-47.7 8.1-66.3 21.7 5.2 9.8 9.3 20.3 12.4 31.2C392.3 71.9 411.2 64 432 64c44.2 0 80 35.8 80 80s-35.8 80-80 80c-25.2 0-47.6-11.6-62.3-29.8-4.7 10.3-10.4 19.9-17 28.9C373 243.4 401 256 432 256"/></svg>