<svg xmlns="http://www.w3.org/2000/svg" width="20" height="20" viewBox="0 0 512 512"><!--!Font Awesome Pro 6.7.2 by @fontawesome - https://fontawesome.com License - https://fontawesome.com/license (Commercial License) Copyright 2025 Fonticons, Inc.--><path fill="#9e9e9e" d="M368 144a112 112 0 1 0-224 0 112 112 0 1 0 224 0m-256 0a144 144 0 1 1 288 0 144 144 0 1 1-288 0M32 480h448c-.7-70.8-58.3-128-129.3-128H161.3c-71 0-128.6 57.2-129.3 128m-32 1.3C0 392.2 72.2 320 161.3 320h189.4c89.1 0 161.3 72.2 161.3 161.3 0 17-13.8 30.7-30.7 30.7H30.7C13.8 512 0 498.2 0 481.3"/></svg>