<svg xmlns="http://www.w3.org/2000/svg" width="22.5" height="20" viewBox="0 0 576 512"><!--!Font Awesome Pro 6.7.2 by @fontawesome - https://fontawesome.com License - https://fontawesome.com/license (Commercial License) Copyright 2025 Fonticons, Inc.--><path fill="#9e9e9e" d="M352 208V56c0-13.3 10.7-24 24-24h80c13.3 0 24 10.7 24 24v48c0 13.3-10.7 24-24 24h-72v80c0 8.8-7.2 16-16 16s-16-7.2-16-16m96-112V64h-64v32zM320 64v32h-85.5c32.6 26.4 53.5 66.8 53.5 112v176c0 11.7-3.1 22.6-8.6 32H512c17.7 0 32-14.3 32-32V208c0-32.7-14-62-36.3-82.5 2.7-6.6 4.3-13.9 4.3-21.5V88.2C550.6 114 576 158 576 208v176c0 35.3-28.7 64-64 64H64c-35.3 0-64-28.7-64-64V208C0 128.5 64.5 64 144 64zm-96 352c17.7 0 32-14.3 32-32V208c0-61.9-50.1-112-112-112S32 146.1 32 208v176c0 17.7 14.3 32 32 32zM96 208c0-8.8 7.2-16 16-16h64c8.8 0 16 7.2 16 16s-7.2 16-16 16h-64c-8.8 0-16-7.2-16-16"/></svg>