<svg xmlns="http://www.w3.org/2000/svg" width="22.5" height="20" viewBox="0 0 576 512"><!--!Font Awesome Pro 6.7.2 by @fontawesome - https://fontawesome.com License - https://fontawesome.com/license (Commercial License) Copyright 2025 Fonticons, Inc.--><path d="M0 192C0 86 86 0 192 0s192 86 192 192c0 2.2-.1 4.4-.2 6.7-19.6 5.6-37.8 14.5-54 26 4.3-13.7 6.2-24.6 6.2-32.7 0-79.5-64.5-144-144-144S48 112.5 48 192c0 12.4 4.5 31.6 15.3 57.2 10.5 24.8 25.4 52.2 42.5 79.9 28.5 46.2 61.5 90.8 86.2 122.6 18.5-23.8 41.7-54.7 64.1-88.2 0 1.5-.1 3-.1 4.5 0 22.2 4.1 43.4 11.6 62.9-19.7 27.3-38.2 51.1-51.9 68.3-12.3 15.3-35.1 15.3-47.4 0C117 435 0 279.4 0 192m112 0c0-28.6 15.2-55 40-69.3s55.2-14.3 80 0 40 40.7 40 69.3-15.2 55-40 69.3-55.2 14.3-80 0-40-40.7-40-69.3m48 0c0 17.7 14.3 32 32 32s32-14.3 32-32-14.3-32-32-32-32 14.3-32 32m128 176c0-79.5 64.5-144 144-144s144 64.5 144 144-64.5 144-144 144-144-64.5-144-144m64 0c0 8.8 7.2 16 16 16h48v48c0 8.8 7.2 16 16 16s16-7.2 16-16v-48h48c8.8 0 16-7.2 16-16s-7.2-16-16-16h-48v-48c0-8.8-7.2-16-16-16s-16 7.2-16 16v48h-48c-8.8 0-16 7.2-16 16"/></svg>