<svg xmlns="http://www.w3.org/2000/svg" width="17.5" height="20" viewBox="0 0 448 512"><!--!Font Awesome Pro 6.7.2 by @fontawesome - https://fontawesome.com License - https://fontawesome.com/license (Commercial License) Copyright 2025 Fonticons, Inc.--><path d="M224 128a48 48 0 1 0 0-96 48 48 0 1 0 0 96m0-128a80 80 0 1 1 0 160 80 80 0 1 1 0-160M46.1 146.8c20.5-23.1 55.9-25.2 79.1-4.7l24.2 21.5c20.5 18.3 47.1 28.4 74.6 28.4s54.1-10.1 74.6-28.4l24.2-21.5c23.1-20.5 58.5-18.5 79.1 4.7s18.5 58.5-4.6 79.1L373 247.3c-16.1 14.3-33.9 26-53 35.1v32.3l49.9 56.1c16.9 19 18.9 47.1 4.7 68.3l-32 48c-17.2 25.7-51.9 32.7-77.7 15.5s-32.7-51.9-15.5-77.7l8-12-18.5-20.9h-29.7l-18.6 20.9 8 12c17.2 25.7 10.2 60.5-15.5 77.7s-60.5 10.2-77.7-15.5l-32-48c-14.1-21.2-12.2-49.2 4.7-68.3l49.9-56.1v-32.4c-19.1-9-37-20.8-53-35.1l-24.2-21.3c-23.1-20.5-25.2-55.9-4.7-79.1M160 304v17.4l38.9 38.9q1.5-.3 3-.3H246q1.5 0 3 .3l39-38.9V304zm128-32c0-6.5 3.9-12.3 9.9-14.7 19.6-8.1 37.8-19.5 53.9-33.8L376 202c9.9-8.8 10.8-24 2-33.9s-24-10.8-33.9-2l-24.2 21.5C293.5 211 259.3 224 224 224s-69.5-13-95.9-36.5L103.9 166c-9.9-8.8-25.1-7.9-33.9 2s-7.9 25.1 2 33.9l24.2 21.5c16.1 14.3 34.4 25.7 53.9 33.8 6 2.5 9.8 8.3 9.9 14.7h128zm18.7 75.9-34 34 16.8 19c4.8 5.4 5.4 13.4 1.4 19.5L276 442.7c-7.4 11-4.4 25.9 6.7 33.3s25.9 4.4 33.3-6.7l32-48c6.1-9.1 5.2-21.1-2-29.3l-39.2-44.1zm-131.4 34-34-34-39.2 44.1c-7.3 8.2-8.1 20.2-2 29.3l32 48c7.4 11 22.3 14 33.3 6.7s14-22.3 6.7-33.3l-14.9-22.3c-4-6.1-3.5-14.1 1.4-19.5l16.8-19z"/></svg>