<svg xmlns="http://www.w3.org/2000/svg" width="22.5" height="20" viewBox="0 0 576 512"><!--!Font Awesome Pro 6.7.2 by @fontawesome - https://fontawesome.com License - https://fontawesome.com/license (Commercial License) Copyright 2025 Fonticons, Inc.--><path d="M64 64c-17.7 0-32 14.3-32 32v32h512V96c0-17.7-14.3-32-32-32zm-32 96v64h512v-64zm0 96v160c0 17.7 14.3 32 32 32h448c17.7 0 32-14.3 32-32V256zM0 96c0-35.3 28.7-64 64-64h448c35.3 0 64 28.7 64 64v320c0 35.3-28.7 64-64 64H64c-35.3 0-64-28.7-64-64zm96 272c0-8.8 7.2-16 16-16h64c8.8 0 16 7.2 16 16s-7.2 16-16 16h-64c-8.8 0-16-7.2-16-16m128 0c0-8.8 7.2-16 16-16h128c8.8 0 16 7.2 16 16s-7.2 16-16 16H240c-8.8 0-16-7.2-16-16"/></svg>