<svg xmlns="http://www.w3.org/2000/svg" width="22.5" height="20" viewBox="0 0 576 512"><!--!Font Awesome Pro 6.7.2 by @fontawesome - https://fontawesome.com License - https://fontawesome.com/license (Commercial License) Copyright 2025 Fonticons, Inc.--><path d="M0 64C0 28.7 28.7 0 64 0h256c35.3 0 64 28.7 64 64v235.7l-48 48V64c0-8.8-7.2-16-16-16H64c-8.8 0-16 7.2-16 16v384c0 8.8 7.2 16 16 16h198.5l-5.1 20.2c-2.3 9.3-1.8 19 1.4 27.8H64c-35.3 0-64-28.7-64-64zm96 88c0-13.3 10.7-24 24-24h144c13.3 0 24 10.7 24 24s-10.7 24-24 24H120c-13.3 0-24-10.7-24-24m0 96c0-13.3 10.7-24 24-24h144c13.3 0 24 10.7 24 24s-10.7 24-24 24H120c-13.3 0-24-10.7-24-24m0 96c0-13.3 10.7-24 24-24h48c13.3 0 24 10.7 24 24s-10.7 24-24 24h-48c-13.3 0-24-10.7-24-24m193.5 148.1 15-60.1c1.4-5.7 4.3-10.8 8.4-14.9l129.3-129.2h-.1l71 71-129.2 129.2c-4.1 4.1-9.3 7-14.9 8.4l-60.1 15c-5.5 1.4-11.2-.2-15.2-4.2s-5.6-9.7-4.2-15.2m175.3-226.8 29.4-29.4c15.7-15.6 41-15.6 56.6 0l14.3 14.3c15.6 15.7 15.6 41 0 56.6l-29.4 29.4z"/></svg>