<svg xmlns="http://www.w3.org/2000/svg" xmlns:xlink="http://www.w3.org/1999/xlink" width="65536" height="65536"><defs><linearGradient id="b" x1="8032.664" x2="8032.664" y1="1552.129" y2="1901.028" gradientUnits="userSpaceOnUse"><stop offset="0" style="stop-color:#0faeac"/><stop offset=".435" style="stop-color:#2299a7"/><stop offset="1" style="stop-color:#3f77a0"/></linearGradient><linearGradient id="e" x1="8107.568" x2="8107.568" y1="1552.129" y2="1900.841" gradientUnits="userSpaceOnUse"><stop offset="0" style="stop-color:#fff"/><stop offset=".843" style="stop-color:#f4f7fa"/></linearGradient><linearGradient id="h" x1="7972.761" x2="7972.761" y1="1552.129" y2="1900.619" gradientUnits="userSpaceOnUse"><stop offset="0" style="stop-color:#fff"/><stop offset=".843" style="stop-color:#f4f7fa"/></linearGradient><linearGradient id="i" x1="1818.846" x2="7484.093" y1="3339.004" y2="3339.004" gradientTransform="matrix(.46634 0 0 .61497 1232.855 1200.64)" gradientUnits="userSpaceOnUse"><stop offset="0" style="stop-color:#00b1d0"/><stop offset=".539" style="stop-color:#059cd1"/><stop offset="1" style="stop-color:#0a86d3"/></linearGradient><linearGradient id="j" x1="3817.296" x2="3817.296" y1="2991.935" y2="3686.074" gradientUnits="userSpaceOnUse"><stop offset="0" style="stop-color:#fff"/><stop offset=".843" style="stop-color:#f4f7fa"/></linearGradient><linearGradient id="k" x1="3052.537" x2="6263.747" y1="3096.159" y2="3096.159" gradientTransform="matrix(.72379 0 0 .70535 614.813 871.283)" gradientUnits="userSpaceOnUse"><stop offset="0" style="stop-color:#00b1d0"/><stop offset=".539" style="stop-color:#059cd1"/><stop offset="1" style="stop-color:#0a86d3"/></linearGradient><linearGradient id="l" x1="4243.894" x2="4243.894" y1="2506.244" y2="3686.074" gradientUnits="userSpaceOnUse"><stop offset="0" style="stop-color:#fff"/><stop offset=".843" style="stop-color:#f4f7fa"/></linearGradient><linearGradient id="m" x1="5125.965" x2="5125.965" y1="2506.244" y2="3686.074" gradientUnits="userSpaceOnUse"><stop offset="0" style="stop-color:#fff"/><stop offset=".843" style="stop-color:#f4f7fa"/></linearGradient><linearGradient xlink:href="#a" id="n" x1="-836.335" x2="-394.729" y1="3034.597" y2="3034.597" gradientTransform="matrix(-.30488 0 0 .26871 719.89 2228.852)" gradientUnits="userSpaceOnUse"/><linearGradient id="a"><stop offset="0" style="stop-color:#000;stop-opacity:1"/><stop offset="1" style="stop-color:#4d1f00;stop-opacity:1"/></linearGradient><clipPath id="o"><path fill="#fff" d="M.656.662h3000v3000H.656z" class="colorffffff svgShape"/></clipPath></defs><g style="fill:none"><g style="fill:none"><path d="M8030.733 1417.573c82.866 0 150.042 67.176 150.042 150.042v2111.756h-300.083V1567.614c0-82.865 67.175-150.041 150.041-150.041" style="fill:#fff1d0;fill-opacity:1" transform="matrix(.03778 0 0 .04637 -169.586 -57.28)"/><path d="m8274.303 1900.382 31.66-348.253h-546.598l31.654 348.193c159.95 2.761 321.81-3.73 483.284.06" style="fill:url(#b)" transform="matrix(.03778 0 0 .04637 -169.586 -57.28)"/><path d="M8305.963 1552.129h-48.075l-348.714 348.713c24.267-.087 48.569-.281 72.887-.498l321.47-321.471z" style="opacity:.73;fill:url(#e)" transform="matrix(.03778 0 0 .04637 -169.586 -57.28)"/><path d="m7984.42 1552.129-206.301 206.302 12.9 141.891c9.284.161 18.596.196 27.894.297l348.49-348.49z" style="opacity:.73;fill:url(#h)" transform="matrix(.03778 0 0 .04637 -169.586 -57.28)"/><path d="m7791.019 1900.321 2.346 25.813h478.598l2.34-25.752c-161.474-3.79-323.334 2.701-483.284-.061M8305.963 1552.129l2.194-24.13h-550.986l2.194 24.13z" style="fill:#76522e;fill-opacity:1" transform="matrix(.03778 0 0 .04637 -169.586 -57.28)"/><path d="M128.109 32.036h11.336v.676h-11.336zM129.825 34.274h1.139v2.05h-1.14zM133.28 34.274h1.14v2.05h-1.14zM136.736 34.274h1.139v2.05h-1.14zM129.825 40.987h1.139v2.051h-1.14zM133.28 40.987h1.14v2.051h-1.14zM136.736 40.987h1.139v2.051h-1.14zM129.825 47.7h1.139v2.052h-1.14zM133.28 47.7h1.14v2.052h-1.14zM136.736 47.7h1.139v2.052h-1.14zM129.825 54.414h1.139v2.051h-1.14zM133.28 54.414h1.14v2.051h-1.14zM136.736 54.414h1.139v2.051h-1.14zM129.825 61.127h1.139v2.051h-1.14zM133.28 61.127h1.14v2.051h-1.14zM136.736 61.127h1.139v2.051h-1.14zM129.825 67.84h1.139v2.052h-1.14zM133.28 67.84h1.14v2.052h-1.14zM136.736 67.84h1.139v2.052h-1.14zM129.825 74.554h1.139v2.051h-1.14zM133.28 74.554h1.14v2.051h-1.14zM136.736 74.554h1.139v2.051h-1.14z"/><path d="M2081.055 3040.592h2641.929v426.875H2081.055z" style="fill:url(#i);stroke-width:.535523" transform="matrix(.03778 0 0 .0627 38.501 -103.807)"/><path d="M1875.583 3686.074h3241.732l641.694-694.139H2564.422z" style="opacity:.39;fill:url(#j)" transform="matrix(.02263 0 0 .03856 75.945 -28.517)"/><path d="M2021.126 2999.894h2677.788v40.697H2021.126z" style="fill:#fff1d0;fill-opacity:1;stroke-width:.52916" transform="matrix(.03778 0 0 .0627 38.501 -103.807)"/><path d="M2084.104 3115.769h732.429v3.997h-732.429zM2084.104 3195.763h732.429v3.997h-732.429z" style="opacity:.21;stroke-width:.607027" transform="matrix(.03778 0 0 .0627 38.501 -103.807)"/><path d="M2081.055 3288.837h747.708v178.629h-747.708z" style="fill:#fff1d0;fill-opacity:1;stroke-width:.607027" transform="matrix(.03778 0 0 .0627 38.501 -103.807)"/><path d="M3145.907 2327.175h14.181v191.441h-14.181z" style="fill:#fff1d0;fill-opacity:1" transform="matrix(.03778 0 0 .0627 38.501 -103.807)"/><path d="M2824.202 2639.071h2324.235v832.197H2824.202z" style="fill:url(#k);stroke-width:.714511" transform="matrix(.03778 0 0 .0627 38.501 -103.807)"/><path d="M5284.608 2506.244h-1083.11l-998.318 1179.83h1078.985z" style="opacity:.73;fill:url(#l)" transform="matrix(.02734 0 0 .04423 61.726 -49.17)"/><path d="m4817.999 3686.074 927.32-1179.83h-268.535l-970.173 1179.83z" style="opacity:.73;fill:url(#m)" transform="matrix(.02734 0 0 .04763 61.726 -61.71)"/><path d="M3001.285 2518.542h369.501v56.552h-369.501z" style="fill:#fff1d0;fill-opacity:1;stroke-width:.741479" transform="matrix(.03778 0 0 .0627 38.501 -103.807)"/><path d="M3001.285 2486.197h369.501v16.158h-369.501z" style="stroke-width:.741479" transform="matrix(.03778 0 0 .0627 38.501 -103.807)"/><path d="M3206.176 2327.422h14.181v191.441h-14.181z" style="fill:#fff1d0;fill-opacity:1" transform="matrix(.03778 0 0 .0627 38.501 -103.807)"/><path d="M3001.285 2575.066h6.843v896.202h-6.843zM3182.615 2575.066h6.843v896.202h-6.843zM3363.944 2575.066h6.843v896.202h-6.843zM3545.273 2575.066h6.843v896.202h-6.843zM3726.602 2575.066h6.843v896.202h-6.843zM3907.931 2575.066h6.843v896.202h-6.843zM4089.261 2575.066h6.843v896.202h-6.843zM4270.59 2575.066h6.843v896.202h-6.843zM4451.92 2575.066h6.843v896.202h-6.843zM4633.249 2575.066h6.843v896.202h-6.843zM4814.578 2575.066h6.843v896.202h-6.843zM4995.908 2575.066h6.843v896.202h-6.843z" style="opacity:.21;stroke-width:.741479" transform="matrix(.03778 0 0 .0627 38.501 -103.807)"/><path d="M2824.202 3250.628h2324.235v30.887H2824.202zM2824.202 3351.165h2324.235v30.887H2824.202z" style="fill:#fff1d0;fill-opacity:1;stroke-width:.741479" transform="matrix(.03778 0 0 .0627 38.501 -103.807)"/><path d="M2731.857 2570.93h2510.539v73.607H2731.857z" style="fill:#fff1d0;fill-opacity:1;stroke:#ccbfb2;stroke-width:.741479;stroke-opacity:1" transform="matrix(.03778 0 0 .0627 38.501 -103.807)"/><path d="M2824.202 2575.962H5144.13v34.111H2824.202z" style="opacity:.29;stroke-width:.741479" transform="matrix(.03778 0 0 .0627 38.501 -103.807)"/><path d="M2081.055 3040.592h739.211v17.442h-739.211z" style="opacity:.29;stroke-width:.607027" transform="matrix(.03778 0 0 .0627 38.501 -103.807)"/></g><path d="m964.83 3039.944 3.598 8.693h2.848l3.598-8.693h-2.67l-2.385 6.107-2.385-6.107zm-6.75 8.693h5.777v-1.541h-1.617v-5.611h1.617v-1.541h-5.777v1.54h1.617v5.612h-1.617zm-9.208 0h7.135v-8.693h-7.135v1.681h4.604v1.5h-4.273v1.682h4.273v2.149h-4.604zm-11.103 0h2.452l4.186-5.967v5.967h2.332v-8.693h-3.04l-3.598 4.98v-4.98h-2.332zm-11.487 0h2.451l4.187-5.967v5.967h2.332v-8.693h-3.04l-3.598 4.98v-4.98h-2.332zm-11.632 0h2.63l.682-1.757h3.657l.682 1.757h2.564l-3.644-8.693h-2.928zm3.928-3.351 1.212-3.118 1.213 3.118zm-19.099 3.351h2.63l.683-1.757h3.656l.683 1.757h2.563l-3.643-8.693h-2.928zm3.929-3.351 1.212-3.118 1.212 3.118zm-10.68 3.351h5.778v-1.541h-1.617v-5.611h1.617v-1.541h-5.777v1.54h1.616v5.612h-1.616zm-7.604-6.031q0-.327.152-.56.153-.234.524-.368.258-.094.603-.112.344-.023.801-.023h.92v2.341h-.78q-.61 0-1.021-.053t-.689-.24q-.265-.18-.384-.396-.126-.222-.126-.59zm-3.968 6.031h3.107l2.69-3.188h1.172v3.188h2.53v-8.693h-4.266q-.874 0-1.504.088-.629.087-1.179.38-.556.291-.88.758-.332.462-.332 1.162 0 .963.51 1.57.503.608 1.444 1.01zm-9.255-5.95q0 .585.232 1.145.232.555.663.934.59.514 1.318.777.722.263 1.802.263h1.583v2.831h2.544v-8.693h-4.187q-.94 0-1.583.145-.65.14-1.146.427-.596.344-.908.881-.318.537-.318 1.29m2.63.054q0-.368.225-.63.226-.27.524-.375.397-.14.775-.151.377-.018 1.007-.018h.437v2.604h-.729q-.649 0-1.066-.07-.424-.07-.71-.28-.244-.186-.35-.444-.113-.262-.113-.636zm-14.024 1.553q0 2.078 1.351 3.305 1.352 1.22 3.737 1.22 2.378 0 3.73-1.22 1.35-1.227 1.35-3.305 0-2.096-1.35-3.31-1.352-1.221-3.73-1.221-2.372 0-3.73 1.22-1.358 1.215-1.358 3.31m3.372 2.201q-.371-.397-.55-.934-.179-.543-.179-1.273 0-.782.206-1.331.205-.55.536-.888.338-.35.782-.508.437-.157.914-.157.484 0 .914.152.424.151.782.502.331.327.543.905.206.572.206 1.33 0 .777-.2 1.326-.205.543-.536.888-.331.344-.775.508-.444.163-.934.163t-.934-.163q-.444-.17-.775-.52m-10.844-3.889q0-.327.152-.56t.523-.368q.259-.094.603-.111.345-.023.802-.023h.92v2.34h-.781q-.61 0-1.02-.052-.411-.053-.69-.24-.264-.18-.384-.397-.126-.222-.126-.59zm-3.969 6.032h3.107l2.69-3.188h1.172v3.188h2.531v-8.694H854.3q-.875 0-1.504.088-.63.088-1.18.38-.556.291-.88.758-.331.462-.331 1.162 0 .964.51 1.571.503.607 1.444 1.01zm-8.83-7.013h3.08v7.013h2.544v-7.013h3.08v-1.681h-8.704z" aria-label="VIENNA AIRPORT" style="font-weight:700;font-size:44.4996px;-inkscape-font-specification:&quot;sans-serif Bold&quot;;fill:url(#n);stroke-width:29.5457;paint-order:fill markers stroke" transform="matrix(-.4817 0 0 .68958 638.432 -2045.862)"/><path d="m7.76 17.21.12-.03z" style="fill:#212121" transform="matrix(.81016 0 0 .9892 205.328 -154.434)"/></g><path fill="#f8d693" d="M80.884 82.348h36.698c1.308 0 2.452.88 2.787 2.145l5.418 16.694c.484 1.829-2.874-.075-4.766-.075H77.445c-1.892 0-4.722 1.64-4.239-.189l4.891-16.43a2.88 2.88 0 0 1 2.787-2.145" style="fill:#4f4549;fill-opacity:1"/><path fill="#4f4549" d="M188.542 150.236h-6.557a7.02 7.02 0 0 1-7.022-7.022 7.02 7.02 0 0 1 7.022-7.022h6.557a7.02 7.02 0 0 1 7.023 7.022 7.02 7.02 0 0 1-7.023 7.022" style="fill:#050316;fill-opacity:1"/><path fill="#4f4549" d="M169.38 145.036h15.884v5.201H169.38zM9.924 150.236h6.557a7.02 7.02 0 0 0 7.022-7.022 7.02 7.02 0 0 0-7.022-7.022H9.924a7.02 7.02 0 0 0-7.023 7.022 7.02 7.02 0 0 0 7.023 7.022" style="fill:#050316;fill-opacity:1"/><path fill="#4f4549" d="M-29.086-150.238h15.884v5.201h-15.884z" style="fill:#050316;fill-opacity:1" transform="scale(-1)"/><path fill="#4f4549" d="M20.154 186.1h17.438a8.684 8.684 0 0 1 8.684 8.684v30.357a8.684 8.684 0 0 1-8.685 8.684H20.154a8.684 8.684 0 0 1-8.684-8.684v-30.357a8.684 8.684 0 0 1 8.684-8.684M178.312 233.825h-17.438a8.684 8.684 0 0 1-8.685-8.684v-30.357a8.684 8.684 0 0 1 8.685-8.684h17.438a8.684 8.684 0 0 1 8.684 8.684v30.357a8.684 8.684 0 0 1-8.684 8.684" style="fill:#050316;fill-opacity:1"/><path fill="#4f4549" d="M177.592 161.97H20.874l12.256-43.503a23.81 23.81 0 0 1 22.92-17.355h86.366a23.81 23.81 0 0 1 22.92 17.355z"/><path fill="#f4a845" d="M142.416 115.206a9.754 9.754 0 0 1 9.354 7.083l7.21 25.588H39.486l7.208-25.588a9.754 9.754 0 0 1 9.355-7.083zm0-14.094H56.05a23.81 23.81 0 0 0-22.92 17.355L20.874 161.97h156.718l-12.256-43.503a23.81 23.81 0 0 0-22.92-17.355"/><path fill="#ffbe55" d="M35.833 147.236h126.8a24.364 24.364 0 0 1 24.364 24.364v25.583a24.364 24.364 0 0 1-24.364 24.364h-126.8a24.364 24.364 0 0 1-24.363-24.364V171.6a24.364 24.364 0 0 1 24.363-24.364"/><path fill="#4f4549" d="M122.634 198.458H75.832a4.795 4.795 0 0 1-4.636-3.568l-4.002-15.127a4.795 4.795 0 0 1 4.636-6.021h54.806a4.795 4.795 0 0 1 4.636 6.02l-4.002 15.128a4.795 4.795 0 0 1-4.636 3.568"/><rect width="40.038" height="20.397" x="141.994" y="173.553" fill="#f0ddaa" rx="7.421"/><path fill="#f0ddaa" d="M49.05 193.949H23.855a7.42 7.42 0 0 1-7.421-7.422v-5.554a7.42 7.42 0 0 1 7.421-7.421H49.05a7.42 7.42 0 0 1 7.422 7.421v5.554a7.42 7.42 0 0 1-7.422 7.422"/><path fill="#f7ebd3" d="M169.228 183.751h-14.43a5.1 5.1 0 0 1-5.1-5.1 5.1 5.1 0 0 1 5.1-5.098h14.43a5.1 5.1 0 0 1 5.1 5.099 5.1 5.1 0 0 1-5.1 5.099m-125.559 0H29.238a5.1 5.1 0 0 1-5.1-5.1 5.1 5.1 0 0 1 5.1-5.098h14.431a5.1 5.1 0 0 1 5.1 5.099 5.1 5.1 0 0 1-5.1 5.099" style="fill:#fefefc;fill-opacity:1"/><rect width="60.858" height="11.531" x="34.852" y="155.381" fill="#ffd07d" rx="5.765"/><path fill="#6b5e63" d="M143.094 138.171H93.767A5.766 5.766 0 0 1 88 132.406a5.766 5.766 0 0 1 5.766-5.766h49.327a5.765 5.765 0 0 1 5.765 5.766 5.766 5.766 0 0 1-5.765 5.765M120.635 181.83H77.831a4.044 4.044 0 0 1-4.044-4.045 4.044 4.044 0 0 1 4.044-4.043h42.804a4.044 4.044 0 0 1 4.044 4.043 4.044 4.044 0 0 1-4.044 4.044"/><path fill="#f4a845" d="M177.532 197.184a8.19 8.19 0 0 0-7.073 4.418 9 9 0 0 1-7.826 4.57h-126.8a8.99 8.99 0 0 1-8.004-4.893 7.61 7.61 0 0 0-6.788-4.096 7.698 7.698 0 0 0-6.814 11.269 24.36 24.36 0 0 0 21.606 13.095h126.8a24.36 24.36 0 0 0 21.605-13.093 7.7 7.7 0 0 0-6.706-11.27"/><text xml:space="preserve" x="82.433" y="97.325" style="font-weight:700;font-size:16px;font-family:Quicksand;-inkscape-font-specification:&quot;Quicksand Bold&quot;;fill:#fff;fill-opacity:1;stroke:#fff;stroke-width:0;paint-order:stroke markers fill"><tspan x="82.433" y="97.325" style="font-size:16px">TAXI</tspan></text><g fill="#8526fe" class="color000000 svgShape" clip-path="url(#o)" style="fill:none" transform="matrix(-.03424 .00659 -.00768 .03908 126.245 -41.582)"><path fill="#d8a353" d="M2501.144 1393.948 1770.11 1691.28l-807.186 328.303c-175.194 71.256-444.56-22.518-579.354-88.335-15.85-7.746-19.125-29.953-9.244-59.018 16.851-49.563 66.478-104.36 110.85-122.407l432.392-175.865 1391.002-565.757c138.085-56.162 230.484-77.458 259.426-81.093 200.948-37.76 316.77 110.522 283.3 221.837-26.78 89.058-244.588 200.43-350.15 245.003" class="colorf15846 svgShape" style="fill:#feb816;fill-opacity:1;stroke-width:1.32501"/><path fill="#5fe4d4" d="m649.391 1302.56 171.731 310.625-335.069 136.281 3.307-421.447 89.043-36.216c33.593-13.663 59.66-9.708 70.988 10.756" class="colorf1f1f1 svgShape" style="fill:#76522e;fill-opacity:1;stroke-width:1.32501"/><path fill="#5fe4d4" d="m536.172 1647.003 196.333 85.265-289.359 117.69-66.273-178.21 35.822-14.569c49.492-20.13 92.411-23.666 123.477-10.176" class="colorf1f1f1 svgShape" style="fill:#76522e;fill-opacity:1;stroke-width:1.32501"/><path fill="#fff" fill-rule="evenodd" d="M2305.111 1144.259c2.976-24.152-12.154-33.183-33.799-20.147l-48.986 29.504c-21.645 13.036-41.609 43.203-44.585 67.355l-18.868 153.116c-2.976 24.152 12.16 33.165 33.805 20.13l48.986-29.504c21.645-13.036 41.603-43.187 44.58-67.339zm-36.495 1.735c10.822-6.518 18.389-2.01 16.901 10.066l-18.868 153.116c-1.488 12.076-11.468 27.151-22.29 33.67l-48.987 29.503c-10.822 6.518-18.389 2.01-16.9-10.066l18.867-153.116c1.488-12.076 11.468-27.151 22.29-33.67z" class="colorffffff svgShape" clip-rule="evenodd" style="stroke-width:1.32501"/><path fill="#ad59d4" d="M2101.597 1243.815c6.385-18.778-2.065-28.469-18.895-21.624-16.817 6.84-35.64 27.623-42.024 46.401l-19.276 56.698c-6.384 18.778 2.079 28.463 18.896 21.624 16.83-6.846 35.639-27.623 42.023-46.401zm-152.297 61.943c6.384-18.778-2.08-28.463-18.896-21.623s-35.64 27.623-42.024 46.401l-19.276 56.697c-6.384 18.779 2.079 28.464 18.896 21.624s35.639-27.622 42.023-46.401zm-152.298 61.944c6.384-18.778-2.08-28.464-18.896-21.624s-35.64 27.623-42.024 46.402l-19.276 56.697c-6.384 18.778 2.079 28.464 18.896 21.624s35.639-27.623 42.023-46.402zm-152.298 61.944c6.384-18.779-2.08-28.464-18.896-21.624s-35.64 27.623-42.024 46.4l-19.276 56.699c-6.384 18.778 2.079 28.463 18.896 21.623s35.639-27.622 42.023-46.401zm-609.192 247.774c6.384-18.779-2.08-28.464-18.896-21.624-16.83 6.845-35.64 27.623-42.023 46.401l-19.277 56.698c-6.384 18.778 2.065 28.469 18.896 21.623 16.817-6.84 35.639-27.622 42.023-46.4z" class="color3e3d3d svgShape" style="fill:#4d1f00;fill-opacity:1;stroke-width:1.32501"/><path fill="#5fe4d4" d="m951.56 1526.187 755.28 41.048c8.686.47.037 18.649-11.1 23.335l-669.211 281.27-227.973-268.761 23.904-178.39c.872-6.502 8.1-15.369 14.678-18.044 36.295-14.762 63.858-9.011 73.525 15.586z" class="colorf1f1f1 svgShape" style="fill:#76522e;fill-opacity:1;stroke-width:1.32501"/><path fill="#d8a353" d="m1104.101 1811.873 129.533-112.446-71.311 209.746-79.61-39.185c-13.538-6.672-2.11-37.718 21.388-58.115" class="colorf15846 svgShape" style="stroke-width:1.32501"/><path fill="#ad59d4" d="M883.214 1739.363c6.384-18.778-2.08-28.463-18.91-21.618-16.817 6.84-35.639 27.623-42.023 46.401l-19.276 56.698c-6.385 18.778 2.078 28.463 18.895 21.623 16.83-6.845 35.653-27.628 42.037-46.406z" class="color3e3d3d svgShape" style="fill:#4d1f00;fill-opacity:1;stroke-width:1.32501"/><path fill="#fff" d="M1573.538 1552.86c2.507-19.423-8.313-28.579-26.796-23.687-99.229 26.192-169.276 54.227-279.273 113.289-21.259 11.415-43.373 34.862-55.138 58.818-43.568 88.778-62.686 145.762-74.255 218.235-3.225 20.236 7.35 30.18 26.074 25.502 98.931-24.732 168.883-51.597 281.016-114.101 20.106-11.206 40.805-33.025 52.521-55.675 45.944-88.847 66.12-146.715 75.851-222.38z" class="colorffffff svgShape" style="stroke:#050316;stroke-width:1.32501;stroke-opacity:1"/><path fill="#ad59d4" fill-rule="evenodd" d="M1265.086 1653.101c108.955-58.495 178.047-86.155 276.436-112.135 14.73-3.885 23.19 3.45 21.24 18.63-9.53 74.01-29.045 129.973-73.983 216.89-9.18 17.758-25.513 35.02-41.47 43.914-110.854 61.789-179.732 88.27-277.808 112.784-14.949 3.74-23.215-4.231-20.687-20.09 11.333-71.026 29.902-126.396 72.664-213.52 9.226-18.815 26.694-37.397 43.608-46.473m286.895-135.742c-100.093 26.44-171.094 54.85-282.142 114.469-25.585 13.734-52.359 42.052-66.646 71.168-44.384 90.421-64.059 149.01-75.855 222.94-3.922 24.614 8.93 36.556 31.463 30.914 99.77-24.943 170.814-52.214 284.24-115.439 24.229-13.507 49.316-39.879 63.56-67.43 46.935-90.77 67.76-150.515 77.717-227.87 3.047-23.647-10.14-34.609-32.337-28.752" class="color3e3d3d svgShape" clip-rule="evenodd" style="fill:#050316;fill-opacity:1;stroke-width:1.32501"/><path fill="#ad59d4" d="m2746.142 1020.745 48.326-39.203c-12.924-19.088-56.73-42.433-80.851-45.27l-15.937 21.144zm-65.616-51.478 43.382 65.408-78.074 36.63-6.629-70.571zm-58.479 43.332 3.481 66.964-76.149 30.972 4.743-65.422z" class="color3e3d3d svgShape" style="fill:#4d1f00;fill-opacity:1;stroke-width:1.32501"/><path fill="#5fe4d4" fill-rule="evenodd" d="M2755.395 1261.997c-37.622-59.302 22.152-188.824 57.48-247.382 32.563 27.328 50.016 63.187 47.196 100.143-2.979 39.025-47.518 93.305-104.676 147.239" class="colorf1f1f1 svgShape" clip-rule="evenodd" style="fill:#76522e;fill-opacity:1;stroke-width:1.32501"/></g></svg>