<svg xmlns="http://www.w3.org/2000/svg" width="25" height="20" viewBox="0 0 640 512"><!--!Font Awesome Pro 6.7.2 by @fontawesome - https://fontawesome.com License - https://fontawesome.com/license (Commercial License) Copyright 2025 Fonticons, Inc.--><path fill="#fff" d="M0 128c0-35.3 28.7-64 64-64h32V16c0-8.8 7.2-16 16-16s16 7.2 16 16v48h192V16c0-8.8 7.2-16 16-16s16 7.2 16 16v48h32c35.3 0 64 28.7 64 64v156.2l-32 32v-20.3H312v80h44.7c-7.8 9.3-13.4 20.2-16.4 32l-28.3.1v72h10.4l-1 3.8c-2.3 9.5-1.8 19.3 1.4 28.2H64c-35.3 0-64-28.7-64-64V128m32 0v32h384v-32c0-17.7-14.3-32-32-32H64c-17.7 0-32 14.3-32 32m0 64v72h104v-72zm0 104v80h104v-80zm0 112v40c0 17.7 14.3 32 32 32h72v-72zm136-216v72h112v-72zm0 104v80h112v-80zm0 112v72h112v-72zm144-216v72h104v-72zm44.5 300.1 18.7-74.9c2.1-8.4 6.4-16.1 12.6-22.3l153.7-153.7c18.8-18.7 49.2-18.7 67.9 0l17.4 17.4c18.7 18.8 18.7 49.2 0 67.9L473.1 480.2c-6.2 6.1-13.9 10.5-22.3 12.6l-74.9 18.7c-5.5 1.4-11.2-.2-15.2-4.2s-5.6-9.7-4.2-15.2M394 474l49-12.2c2.8-.7 5.3-2.1 7.4-4.2l106.3-106.3-40-40c-35.3 35.4-70.8 70.9-106.2 106.3-2 2-3.5 4.6-4.2 7.4zm145.3-185.4 40 40 24.8-24.8c6.2-6.2 6.2-16.4 0-22.6l-17.3-17.4c-6.2-6.2-16.4-6.2-22.6 0z"/></svg>