<?xml version="1.0" encoding="UTF-8" standalone="no"?>
<svg
   xml:space="preserve"
   width="8.5766191"
   height="6.9577346"
   version="1.1"
   id="svg88"
   sodipodi:docname="to-airport 2.svg"
   inkscape:version="1.3 (0e150ed, 2023-07-21)"
   xmlns:inkscape="http://www.inkscape.org/namespaces/inkscape"
   xmlns:sodipodi="http://sodipodi.sourceforge.net/DTD/sodipodi-0.dtd"
   xmlns="http://www.w3.org/2000/svg"
   xmlns:svg="http://www.w3.org/2000/svg"><sodipodi:namedview
     id="namedview1"
     pagecolor="#ffffff"
     bordercolor="#000000"
     borderopacity="0.25"
     inkscape:showpageshadow="2"
     inkscape:pageopacity="0.0"
     inkscape:pagecheckerboard="0"
     inkscape:deskcolor="#d1d1d1"
     inkscape:zoom="13.705869"
     inkscape:cx="22.618048"
     inkscape:cy="-5.5450699"
     inkscape:window-width="3840"
     inkscape:window-height="2107"
     inkscape:window-x="2560"
     inkscape:window-y="258"
     inkscape:window-maximized="0"
     inkscape:current-layer="g4" /><defs
     id="defs39" /><g
     id="g4"
     transform="translate(-2.4249759,-0.30447939)"><g
       id="g1"
       transform="rotate(45.670909,5.8525856,4.0478045)"><g
         id="g2"><path
           fill="#d8a353"
           d="M 10.429065,3.3728068 5.4884844,5.94327 C 4.9257844,6.2360289 3.4881204,5.8674201 2.7155034,5.6068915 2.6246324,5.5762278 2.5478394,5.4869211 2.5090604,5.3695576 2.4429314,5.1694244 2.5048744,4.9471257 2.6473934,4.8729767 l 5.856518,-3.0470033 c 0.443513,-0.2307491 0.78614,-0.3195766 0.902006,-0.3351784 0.7692216,-0.1587451 1.6913616,0.434468 1.8589436,0.8838045 0.134069,0.3594964 -0.501354,0.815212 -0.835796,0.9982073 z"
           class="colorf15846 svgShape"
           style="fill:#feb816;fill-opacity:1;stroke:#000000;stroke-width:0.18838;stroke-dasharray:none;stroke-opacity:1"
           id="path66"
           inkscape:export-filename="../Downloads/to_aiport_floating.svg"
           inkscape:export-xdpi="96"
           inkscape:export-ydpi="96" /><path
           fill="#5fe4d4"
           d="M 2.0761974,3.0643798 3.6279694,4.2731913 2.5988884,4.8168176 1.4780114,3.1690915 1.7514804,3.024627 c 0.103174,-0.054503 0.222424,-0.039885 0.324717,0.039753 z"
           class="colorf1f1f1 svgShape"
           style="fill:#76522e;fill-opacity:1;stroke-width:0.00536174"
           id="path67" /><path
           fill="#5fe4d4"
           d="m 2.5800924,4.4572587 1.0955,0.3367858 -0.929387,0.4835373 -0.790512,-0.71537 0.115056,-0.059861 c 0.158962,-0.082704 0.336006,-0.098373 0.509343,-0.045092 z"
           class="colorf1f1f1 svgShape"
           style="fill:#76522e;fill-opacity:1;stroke-width:0.00556469"
           id="path68" /><path
           fill="#ffffff"
           fill-rule="evenodd"
           d="M 8.9829644,2.4083233 C 8.9495584,2.3072213 8.8640504,2.2555667 8.7920064,2.2930498 l -0.163053,0.084832 c -0.07204,0.037483 -0.10335,0.1499128 -0.06994,0.2510148 l 0.211788,0.6409621 c 0.03341,0.101102 0.118907,0.1526889 0.190952,0.1152058 l 0.163052,-0.084832 c 0.07204,-0.037483 0.103358,-0.1498451 0.06995,-0.2509471 z m -0.160691,-0.023673 c 0.03602,-0.018741 0.07877,0.00705 0.09547,0.057605 l 0.211788,0.6409624 c 0.0167,0.050551 0.001,0.1067331 -0.03498,0.1254746 l -0.163053,0.084832 c -0.03602,0.018741 -0.07877,-0.00705 -0.09547,-0.057605 L 8.6242424,2.5949576 c -0.0167,-0.050551 -10e-4,-0.1067331 0.03498,-0.1254746 z"
           class="colorffffff svgShape"
           clip-rule="evenodd"
           id="path69"
           style="stroke-width:0.00556469" /><path
           fill="#ad59d4"
           d="m 8.2655124,2.7815965 c -0.02505,-0.075826 -0.08916,-0.1145652 -0.143213,-0.086441 -0.05401,0.028102 -0.07751,0.1124137 -0.05245,0.1882402 l 0.07565,0.2289411 c 0.02505,0.075826 0.0892,0.1145426 0.143213,0.086441 0.05406,-0.028125 0.07751,-0.1124137 0.05245,-0.1882402 z m -0.489163,0.2544993 c -0.02506,-0.075826 -0.0892,-0.1145427 -0.143213,-0.08644 -0.05401,0.028102 -0.07751,0.1124137 -0.05245,0.1882402 l 0.07565,0.2289411 c 0.02506,0.075826 0.0892,0.1145426 0.143213,0.086441 0.05401,-0.028102 0.07751,-0.1124137 0.05245,-0.1882402 z m -0.489162,0.2544993 c -0.02506,-0.075826 -0.0892,-0.1145427 -0.143213,-0.086441 -0.05401,0.028102 -0.07751,0.1124137 -0.05245,0.1882402 l 0.07565,0.2289411 c 0.02506,0.075826 0.0892,0.1145426 0.143213,0.086441 0.05401,-0.028102 0.07751,-0.1124137 0.05245,-0.1882402 z m -0.489163,0.2544993 c -0.02505,-0.075826 -0.0892,-0.1145427 -0.143213,-0.086441 -0.05401,0.028102 -0.07751,0.1124137 -0.05245,0.1882402 l 0.07565,0.2289411 c 0.02505,0.075826 0.0892,0.1145426 0.143213,0.086441 0.05401,-0.028102 0.07751,-0.1124137 0.05245,-0.1882402 z m -1.95665,1.0179972 c -0.02505,-0.075826 -0.0892,-0.1145427 -0.143213,-0.086441 -0.05406,0.028125 -0.07751,0.1124137 -0.05245,0.1882402 l 0.07565,0.2289411 c 0.02505,0.075826 0.08916,0.1145652 0.143213,0.086441 0.05401,-0.028102 0.07751,-0.1124137 0.05245,-0.1882402 z"
           class="color3e3d3d svgShape"
           style="fill:#4d1f00;fill-opacity:1;stroke-width:0.00556469"
           id="path70" /><path
           fill="#5fe4d4"
           d="m 4.1533884,3.5797552 3.406355,0.1401065 c 0.03917,0.0016 0.05267,0.07509 0.01734,0.09433 l -2.123845,1.1548754 -1.75,-1.0745989 -0.398118,-0.7191017 c -0.01451,-0.026212 -0.008,-0.062156 0.01315,-0.073148 0.116575,-0.060651 0.25286,-0.038413 0.364236,0.060309 z"
           class="colorf1f1f1 svgShape"
           style="fill:#76522e;fill-opacity:1;stroke-width:0.00556469"
           id="path71" /><path
           fill="#d8a353"
           d="m 5.5187854,5.1021964 0.247778,-0.4570951 0.279848,0.8469422 -0.457188,-0.155127 c -0.07777,-0.026415 -0.115391,-0.1518056 -0.07044,-0.2347201 z"
           class="colorf15846 svgShape"
           id="path72"
           style="stroke-width:0.00556469" /><path
           fill="#ad59d4"
           d="m 4.3522124,4.8175909 c -0.02505,-0.075826 -0.0892,-0.1145427 -0.143257,-0.086418 -0.05401,0.028102 -0.07751,0.1124137 -0.05245,0.1882401 l 0.07565,0.2289412 c 0.02506,0.075826 0.0892,0.1145426 0.143213,0.086441 0.05406,-0.028125 0.07755,-0.1124363 0.0525,-0.1882628 z"
           class="color3e3d3d svgShape"
           style="fill:#4d1f00;fill-opacity:1;stroke-width:0.00556469"
           id="path73" /><path
           fill="#ffffff"
           d="m 6.8348734,4.0436054 c -0.04377,-0.078296 -0.116688,-0.1148008 -0.183444,-0.094487 -0.358601,0.1087725 -0.584863,0.2239927 -0.897832,0.4654785 -0.06049,0.046673 -0.09082,0.1418238 -0.07463,0.2386783 0.06013,0.3589243 0.137272,0.5890133 0.290922,0.8812226 0.04292,0.08159 0.116998,0.1212776 0.185408,0.1018161 0.361411,-0.102883 0.590551,-0.2133913 0.903138,-0.4688097 0.05605,-0.045792 0.0848,-0.1343392 0.07208,-0.2259315 -0.04998,-0.3592816 -0.125006,-0.5929694 -0.295642,-0.8979673 z"
           class="colorffffff svgShape"
           style="stroke:#050316;stroke-width:0.00556469;stroke-opacity:1"
           id="path74" /><path
           fill="#ad59d4"
           fill-rule="evenodd"
           d="m 5.7731684,4.4575173 c 0.310024,-0.2391681 0.533185,-0.3528465 0.888721,-0.4607383 0.05324,-0.016136 0.110747,0.013114 0.144999,0.074305 0.166857,0.2983281 0.239394,0.5243194 0.288316,0.8757978 0.01,0.071811 -0.01256,0.1418622 -0.05704,0.178207 -0.309027,0.252496 -0.534572,0.3614196 -0.892875,0.4633993 -0.0546,0.015559 -0.11306,-0.016264 -0.146694,-0.080204 -0.150602,-0.2863717 -0.225594,-0.5099439 -0.284579,-0.862182 -0.01278,-0.076074 0.01101,-0.1514765 0.05915,-0.188585 z m 0.867823,-0.5561431 c -0.361668,0.1097976 -0.59103,0.2265594 -0.907009,0.4703246 -0.07281,0.056154 -0.10973,0.1710754 -0.09,0.2887874 0.06121,0.3655723 0.14044,0.6021397 0.2972,0.9002249 0.05221,0.09924 0.141836,0.146898 0.224124,0.1234282 0.364475,-0.1037637 0.597234,-0.2159402 0.913422,-0.4743037 0.06754,-0.055193 0.102589,-0.162221 0.08708,-0.2736333 C 7.1147284,4.5691404 7.0372514,4.3278778 6.8628384,4.0160658 6.8095284,3.9207488 6.7212184,3.87705 6.6409914,3.9013742 Z"
           class="color3e3d3d svgShape"
           clip-rule="evenodd"
           style="fill:#050316;fill-opacity:1;stroke-width:0.00556469"
           id="path75" /><path
           fill="#ad59d4"
           d="m 10.445751,1.8618964 0.100178,-0.1594681 c -0.11005,-0.076429 -0.366651,-0.1689708 -0.47973,-0.1795862 l -0.0099,0.085666 z M 10.014917,1.6567993 10.388097,1.918729 10.151058,2.0688203 9.9234808,1.7848823 Z M 9.8821318,1.8332324 10.085838,2.1027527 9.8412568,2.2300024 9.6777248,1.9664172 Z"
           class="color3e3d3d svgShape"
           style="fill:#4d1f00;fill-opacity:1;stroke-width:0.00556469"
           id="path76" /><path
           fill="#5fe4d4"
           fill-rule="evenodd"
           d="M 11.038775,2.8936213 C 10.786288,2.6135862 10.808431,2.1485844 10.851993,1.946925 c 0.177883,0.1447793 0.309155,0.3086416 0.360361,0.4560213 0.05407,0.1556329 -0.03396,0.3303759 -0.173579,0.490675 z"
           class="colorf1f1f1 svgShape"
           clip-rule="evenodd"
           style="fill:#76522e;fill-opacity:1;stroke-width:0.00507745"
           id="path77" /><path
           d="m 11.613939,2.7499604 -0.0094,0.00247 z"
           style="fill:#212121;stroke-width:0.0802945"
           id="path78" /></g></g></g></svg>
