<svg xml:space="preserve" viewBox="0 0 33.854111 14.536">
  <defs>
    <linearGradient id="y">
      <stop offset="0" stop-color="#feb816"/>
      <stop offset="1" stop-color="#4d1f00"/>
    </linearGradient>
    <linearGradient id="c" x1="1161.106" x2="1161.106" y1="1609.756" y2="2674.0029" gradientUnits="userSpaceOnUse">
      <stop offset="0" stop-color="#fff"/>
      <stop offset=".843"/>
    </linearGradient>
    <linearGradient id="f" x1="1161.106" x2="1161.106" y1="2257.145" y2="3094.7009" gradientUnits="userSpaceOnUse">
      <stop offset="0" stop-color="#fff"/>
      <stop offset=".843"/>
    </linearGradient>
    <linearGradient id="i" x1="526.513" x2="526.513" y1="2507.4209" y2="2986.71" gradientUnits="userSpaceOnUse">
      <stop offset="0" stop-color="#fff"/>
      <stop offset=".843"/>
    </linearGradient>
    <linearGradient id="l" x1="526.513" x2="526.513" y1="2878.0081" y2="3317.5969" gradientUnits="userSpaceOnUse">
      <stop offset="0" stop-color="#fff"/>
      <stop offset=".843"/>
    </linearGradient>
    <linearGradient id="I" x1="1818.8459" x2="7484.0928" y1="3339.0039" y2="3339.0039" gradientTransform="matrix(.77828821 0 0 1 403.25959 0)" gradientUnits="userSpaceOnUse">
      <stop offset="0" stop-color="#00b1d0"/>
      <stop offset=".539" stop-color="#059cd1"/>
      <stop offset="1" stop-color="#0a86d3"/>
    </linearGradient>
    <linearGradient id="o" x1="3817.2959" x2="3817.2959" y1="2991.9351" y2="3686.074" gradientUnits="userSpaceOnUse">
      <stop offset="0" stop-color="#fff"/>
      <stop offset=".843"/>
    </linearGradient>
    <linearGradient id="J" x1="3817.2959" x2="3817.2959" y1="2991.9351" y2="3686.074" gradientUnits="userSpaceOnUse">
      <stop offset="0" stop-color="#fff"/>
      <stop offset=".843" stop-color="#f4f7fa"/>
    </linearGradient>
    <linearGradient id="r" x1="6820.355" x2="6820.355" y1="2991.9351" y2="3686.074" gradientUnits="userSpaceOnUse">
      <stop offset="0" stop-color="#fff"/>
      <stop offset=".843"/>
    </linearGradient>
    <linearGradient id="K" x1="3052.5371" x2="6263.7471" y1="3096.1589" y2="3096.1589" gradientTransform="matrix(1 0 0 .92858264 0 263.24966)" gradientUnits="userSpaceOnUse">
      <stop offset="0" stop-color="#00b1d0"/>
      <stop offset=".539" stop-color="#059cd1"/>
      <stop offset="1" stop-color="#0a86d3"/>
    </linearGradient>
    <linearGradient id="u" x1="4243.894" x2="4243.894" y1="2506.2439" y2="3686.074" gradientUnits="userSpaceOnUse">
      <stop offset="0" stop-color="#fff"/>
      <stop offset=".843"/>
    </linearGradient>
    <linearGradient id="L" x1="4243.894" x2="4243.894" y1="2506.2439" y2="3686.074" gradientUnits="userSpaceOnUse">
      <stop offset="0" stop-color="#fff"/>
      <stop offset=".843" stop-color="#f4f7fa"/>
    </linearGradient>
    <linearGradient id="x" x1="5125.9648" x2="5125.9648" y1="2506.2439" y2="3686.074" gradientUnits="userSpaceOnUse">
      <stop offset="0" stop-color="#fff"/>
      <stop offset=".843"/>
    </linearGradient>
    <linearGradient id="M" x1="5125.9648" x2="5125.9648" y1="2506.2439" y2="3686.074" gradientUnits="userSpaceOnUse">
      <stop offset="0" stop-color="#fff"/>
      <stop offset=".843" stop-color="#f4f7fa"/>
    </linearGradient>
  </defs>
  <g fill="none">
    <path fill="#263238" d="M33.66630993 14.41556976c0 .040365-7.48576635.07284586-16.71785751.07284586-9.23523833 0-16.71943359-.03276704-16.71943359-.07284586 0-.04036499 7.48419526-.07284585 16.71943359-.07284585 9.23209116 0 16.71785751.03248802 16.71785751.07284585z"/>
    <path fill="#050316" d="M21.2366401 12.79843754c0 .04035783-.39654447.0728387-.8855899.0728387-.48920908 0-.88566817-.03275989-.88566817-.0728387 0-.040365.39645909-.07284586.88566817-.07284586.48904543 0 .8855899.03248802.8855899.07284586zM20.9951628 12.07486541c0 .04035784-.39653735.0728387-.8855899.0728387-.48920908 0-.88566817-.03275988-.88566817-.0728387 0-.04036499.3964591-.07284586.88566818-.07284586.48905254 0 .8855899.03248803.8855899.07284586zM21.29648822 11.40238984c0 .04036499-.39653736.07284586-.88558278.07284586-.48920909 0-.88566818-.03276705-.88566818-.07284586 0-.04036499.3964591-.07284586.88566818-.07284586.48904542 0 .88558278.03248802.88558278.07284586z"/>
    <g transform="matrix(-.00415493 0 0 .00403984 45.38487052 -1.48005873)">
      <path fill="#fff1d0" d="M8030.733 1417.573c82.866 0 150.042 67.176 150.042 150.042v2111.756h-300.083V1567.614c0-82.865 67.175-150.041 150.041-150.041z"/>
      <linearGradient id="z" x1="8032.6641" x2="8032.6641" y1="1552.129" y2="1901.028" gradientUnits="userSpaceOnUse">
        <stop offset="0" stop-color="#0faeac"/>
        <stop offset=".435" stop-color="#2299a7"/>
        <stop offset="1" stop-color="#3f77a0"/>
      </linearGradient>
      <path fill="url(#z)" d="m8274.303 1900.382 31.66-348.253h-546.598l31.654 348.193c159.95 2.761 321.81-3.73 483.284.06z"/>
      <linearGradient id="D" x1="8107.5679" x2="8107.5679" y1="1552.129" y2="1900.8409" gradientUnits="userSpaceOnUse">
        <stop offset="0" stop-color="#fff"/>
        <stop offset=".843" stop-color="#f4f7fa"/>
      </linearGradient>
      <path fill="url(#D)" d="M8305.963 1552.129h-48.075l-348.714 348.713c24.267-.087 48.569-.281 72.887-.498l321.47-321.471z" opacity=".73"/>
      <linearGradient id="H" x1="7972.7612" x2="7972.7612" y1="1552.129" y2="1900.619" gradientUnits="userSpaceOnUse">
        <stop offset="0" stop-color="#fff"/>
        <stop offset=".843" stop-color="#f4f7fa"/>
      </linearGradient>
      <path fill="url(#H)" d="m7984.42 1552.129-206.301 206.302 12.9 141.891c9.284.161 18.596.196 27.894.297l348.49-348.49z" opacity=".73"/>
      <path fill="#76522e" d="m7791.019 1900.321 2.346 25.813h478.598l2.34-25.752c-161.474-3.79-323.334 2.701-483.284-.061zM8305.963 1552.129l2.194-24.13h-550.986l2.194 24.13z"/>
      <path d="M7880.6909 1926.134h300.08401v14.579H7880.6909zM7926.1079 1974.3929h30.162001v44.237H7926.1079zM8017.583 1974.3929h30.162001v44.237H8017.583zM8109.0581 1974.3929h30.162001v44.237H8109.0581zM7926.1079 2119.1699h30.162001v44.237H7926.1079zM8017.583 2119.1699h30.162001v44.237H8017.583zM8109.0581 2119.1699h30.162001v44.237H8109.0581zM7926.1079 2263.946h30.162001v44.237H7926.1079zM8017.583 2263.946h30.162001v44.237H8017.583zM8109.0581 2263.946h30.162001v44.237H8109.0581zM7926.1079 2408.7219h30.162001v44.237H7926.1079zM8017.583 2408.7219h30.162001v44.237H8017.583zM8109.0581 2408.7219h30.162001v44.237H8109.0581zM7926.1079 2553.499h30.162001v44.237H7926.1079zM8017.583 2553.499h30.162001v44.237H8017.583zM8109.0581 2553.499h30.162001v44.237H8109.0581zM7926.1079 2698.2749h30.162001v44.237H7926.1079zM8017.583 2698.2749h30.162001v44.237H8017.583zM8109.0581 2698.2749h30.162001v44.237H8109.0581zM7926.1079 2843.051h30.162001v44.237H7926.1079zM8017.583 2843.051h30.162001v44.237H8017.583zM8109.0581 2843.051h30.162001v44.237H8109.0581z"/>
    </g>
    <path fill="url(#I)" d="M1818.8459 2991.9351h4409.1958v694.13898H1818.8459z" transform="matrix(-.00294336 0 0 .00430582 19.10526159 -1.5257393)"/>
    <path fill="url(#J)" d="m5117.315 3686.074 641.694-694.139H2564.422l-688.839 694.139z" opacity=".39" transform="matrix(-.00294336 0 0 .00430582 19.10526159 -1.5257393)"/>
    <path fill="#fff1d0" d="M14.04612392 11.0720392H.89210197v.28494604h13.15402195z"/>
    <path d="M13.7367554 11.88335326h-3.59788955v.0279835h3.59788954zM13.7367554 12.44344186h-3.59788955v.0279835h3.59788954z" opacity=".21"/>
    <path fill="#fff1d0" d="M13.75173476 13.0951182h-3.6729421v1.25070196h3.6729421zM8.2838756 8.04447255h-.04173986v.82430984h.04173985z"/>
    <path fill="url(#K)" d="M3052.5371 2590.5042h3211.21v1095.5696h-3211.21z" transform="matrix(-.00294336 0 0 .00430582 19.10526159 -1.5257393)"/>
    <path fill="url(#L)" d="M5284.608 2506.244h-1083.11l-998.318 1179.83h1078.985z" opacity=".73" transform="matrix(-.00294336 0 0 .0039983 19.10526159 -.39223448)"/>
    <path fill="url(#M)" d="m4817.999 3686.074 927.32-1179.83h-268.535l-970.173 1179.83z" opacity=".73" transform="matrix(-.00294336 0 0 .00430582 19.10526159 -1.5257393)"/>
    <path fill="#fff1d0" d="M9.40040243 8.86984898H7.8977853v.32056374h1.50261714z"/>
    <path d="M9.40040243 8.76192928H7.8977853v.09158903h1.50261714z"/>
    <path fill="#fff1d0" d="M8.10648194 8.04553436H8.0647421v.82430984h.04173985z"/>
    <path d="M9.40040243 9.26568789h-.02782657v5.08013188h.02782657zM8.66300687 9.26568789h-.02782658v5.08013188h.02782658zM7.92561218 9.26568789h-.02782657v5.08013188h.02782657zM7.18821662 9.26568789h-.02782657v5.08013188h.02782657zM6.4508184 9.26568789h-.02782657v5.08013188h.02782657zM5.71342372 9.26568789h-.02782657v5.08013188h.02782657zM4.97602727 9.26568789H4.9482007v5.08013188h.02782657zM4.23863258 9.26568789h-.02782657v5.08013188h.02782657zM3.50123496 9.26568789h-.02782657v5.08013188h.02782657zM2.7638388 9.26568789h-.02782657v5.08013188h.02782657zM2.02644382 9.26568789h-.02782657v5.08013188h.02782657zM1.2890462 9.26568789h-.02782657v5.08013188h.02782657z" opacity=".21"/>
    <path fill="#fff1d0" d="M10.12053163 13.0951182H.66876947v.17508311h9.45176216zM10.12053163 13.66501415H.66876947v.17508312h9.45176216z"/>
    <path fill="#fff1d0" stroke="#ccbfb2" d="M2924.9509 2500.7988H6393.562v96.902H2924.9509z" transform="matrix(-.00294336 0 0 .00430582 19.10526159 -1.5257393)"/>
    <path d="M10.12053163 9.2707653H.6862825v.19335701h9.43424914zM13.75173476 11.35698524h-3.63120254v.12212157h3.63120254z" opacity=".29"/>
    <text xml:space="preserve" x="309.74805" y="23.888025" fill="#00000e" stroke="#050316" stroke-width="27.8362" font-family="sans-serif" font-size="12" font-weight="700" paint-order="fill markers stroke" style="-inkscape-font-specification:&quot;sans-serif Bold&quot;" transform="matrix(.01873192 0 0 .01652331 21.39873024 7.89847696)"/>
    <path fill="#050316" d="M27.61197074 9.59469795h-2.38715817v-.52026319c0-.12093558.10685132-.21908411.2385102-.21908411h1.91011542c.13165888 0 .2385102.09814853.2385102.21908411v.5202632z"/>
    <path fill="#feba17" stroke="#000" stroke-width="7.44674" d="M53.145 357.189c-23.171 0-47.062-21.5-49.702-23.938a10.717 10.717 0 0 1-3.438-7.844v-74.896a10.68 10.68 0 0 1 3.125-7.547l21.343-21.328c2-2 4.719-3.125 7.547-3.125h36.468c4.969-7.5 15.484-21.312 32.859-35.046 22.89-18.078 62.749-39.624 122.654-39.624 59.937 0 99.732 21.562 122.576 39.655 17.328 13.734 27.797 27.546 32.766 35.062 62.701.016 94.732.516 113.201 17.453 19.452 17.844 19.452 48.804 19.452 110.49 0 5.906-4.766 10.688-10.656 10.688zm-31.797-36.687c7.297 5.844 21.296 15.344 31.796 15.344h437.523c-.062-46.998-.859-73.396-12.531-84.099-12.938-11.859-45.562-11.859-104.779-11.859a10.686 10.686 0 0 1-9.438-5.703c-.078-.141-9.531-17.531-31.406-34.608-29.249-22.828-65.748-34.39-108.513-34.39-102.451 0-139.763 68.295-140.138 68.983a10.663 10.663 0 0 1-9.422 5.672H36.426l-15.078 15.094z" transform="matrix(.02234916 0 0 .02052887 21.41218044 6.33867523)"/>
    <path fill="#feba17" d="M23.07587405 11.04356411s.88276936-1.53289083 3.34253995-1.53289083c2.46010583 0 3.33800307 1.53352723 3.33800307 1.53352723 2.86026749 0 2.86026749 0 2.86026749 2.40776975H22.60446328c-.44034544.0032025-.95366088-.43303602-.95366088-.43303602v-1.53753036l.47699806-.43783977Z"/>
    <path fill="#0a86d3" d="M29.59715698 10.82450053c-.34920558-.42404437-1.30496729-1.31382725-3.17876533-1.31382725-1.8745132 0-2.8334038.89009081-3.1833022 1.31382725z"/>
    <path fill="#050316" d="M24.03476464 12.14329576c-.65717696 0-1.1918135.4907632-1.1918135 1.09441466 0 .60432892.53463654 1.09509212 1.1918135 1.09509212.65719932 0 1.1918135-.4907632 1.1918135-1.09509212 0-.60365146-.53461418-1.09441466-1.1918135-1.09441466zm6.19793532 0c-.65717697 0-1.1918135.4907632-1.1918135 1.09441466 0 .60432892.53463653 1.09509212 1.1918135 1.09509212.65717697 0 1.1918135-.4907632 1.1918135-1.09509212 0-.60365146-.53463653-1.09441466-1.1918135-1.09441466z"/>
    <path fill="#76522e" d="M23.79627679 13.2376899c0 .12124351.10685132.21941257.23848785.21941257.13165889 0 .2385102-.09814853.2385102-.21941257 0-.12060712-.10685131-.21875566-.2385102-.21875566-.13163653 0-.23848785.09814854-.23848785.21875566z"/>
    <path fill="#feba17" d="M25.70359856 9.47984138h.49131493l-.0146521 1.44000241h-.47666283z"/>
    <path fill="#76522e" d="M29.9942121 13.2376899c0 .12124351.10361114.21941257.23125567.21941257.12766643 0 .23127757-.09814853.23127757-.21941257 0-.12060712-.10361114-.21875566-.23127757-.21875566-.12764453 0-.23125567.09814854-.23125567.21875566zm2.71055317-1.32550818c-.02843305-.16712554-.0700854-.30920586-.13037538-.43077784h-.73375099c-.12766643 0-.23127734.0978406-.23127734.2190636 0 .12093557.10361091.21875565.23127734.21875565h.80689219a.22538278.21350026 0 0 0 .05723418-.0070414zM22.13838475 10.866883a.22808086.20510273 0 0 0-.16117287.06001369l-.45579868.40957172c-.04271177.0384089-.06673715.09062552-.06673715.14493547h.6837087c.12580752 0 .22756833-.0918162.22756833-.20494916v-.40959082h-.22756833Z"/>
    <path fill="#050316" d="M25.82245017 11.61135029c-.1020481-.05035633-.21146852-.08287173-.32824877-.09741038v.83016474h-.2755282v-.83016474c-.11678026.01453865-.2267745.04705762-.32994944.09741038l-.09354479-.17591837c.08164015-.04161099.17007879-.07322219.26532424-.09450122.09524129-.02128261.19331425-.03197216.2942355-.03197216.10204395 0 .20069072.01068955.29593201.03197216.0963723.02127903.1848151.05286521.26532008.09450122zm.73631227-.30240605c.10999424 0 .20579271.01838417.28743286.05524901.08163598.03686484.1451385.09105955.19048674.16283073.04536488.0717676.06803068.15847414.06803068.26024468v.55683599h-.27552821v-.24425145h-.54424546v.24425145h-.27212688v-.55683599c0-.10177054.02268244-.18847708.06803068-.26024468.04536488-.07177118.10885075-.12595874.19048674-.16283073.08164015-.03686484.17745526-.05524901.28743285-.05524901zm.27042207.60190294v-.1453865c0-.08432273-.02436647-.1477667-.07313267-.19045701-.04874957-.0436088-.1150796-.06542393-.19899006-.06542393-.08503731 0-.15192452.02182942-.20069072.06542393-.04762272.04271175-.071432.10613428-.071432.19045702v.1453865zm1.28091948.43325747-.28743285-.35329847-.2823267.35329847h-.31634413l.44050085-.5175802-.41839223-.50013598h.3129428l.27382339.33003235.26872556-.33003235h.29763267l-.41498674.49141207.44390217.5263041zm.87223642-.82871016v.63970057h.20579271v.18900959h-.68878518v-.18900959h.20746426v-.63970057h-.20746426v-.18900602h.68878518v.18900602z"/>
    <g class="color000000 svgShape" transform="matrix(-.00433847 .0022572 .00201243 .00609048 8.39390015 -7.78928817)">
      <path fill="#feb816" stroke="#000" stroke-width="33.8528" d="M685.506 1704.68H1824.29c129.7 0 388.51-156.44 523.54-249.26 15.88-10.92 25.18-29.03 25.18-48.3 0-32.86-26.63-59.49-59.48-59.49H963.626c-102.228 0-175.39 12.53-199.193 18.79-161.61 33.83-304.428 184.16-308.187 259.33-3.006 60.14 151.588 77.67 229.26 78.93z" class="colorf15846 svgShape" transform="matrix(.82546755 -.54261562 .93343914 .59784463 -1107.3248 1403.1584)"/>
      <path fill="#76522e" d="m1781.2813079 778.67231996 76.15494402 288.119185 194.94985567-126.52530897-196.33502962-245.27838323-51.80641868 33.62309274c-19.5452279 12.68523028-27.97488135 31.07076418-22.9633514 50.06141446z" class="colorf1f1f1 svgShape"/>
      <path fill="#76522e" d="m1990.02810466 923.19759825-41.20989998 180.98971351 176.83165856-116.23911811-57.37565998-153.50945127-21.89139942 14.39016624c-30.24513104 19.88143632-49.83275484 45.73169612-56.35469918 74.36868963z" class="colorf1f1f1 svgShape"/>
      <path fill="#fff" fill-rule="evenodd" d="M1008.26621718 1786.19861532c-15.49508973-9.92422085-16.95689625-25.28133688-3.24918212-34.29201187l31.02354693-20.39312284c13.70771414-9.01067499 37.39523445-8.26348453 52.89032417 1.66073633l98.2351351 62.91716886c15.49508972 9.92422086 16.94508545 25.27698628 3.23737132 34.28766127l-31.02354694 20.39312285c-13.70771413 9.01067498-37.38342365 8.26783512-52.87851337-1.65638574zm10.78974255-25.30042863c-6.85385707 4.5053375-6.12803374 12.18117759 1.61951113 17.14328802l98.23513509 62.91716886c7.74754486 4.96211043 19.58581235 5.33325905 26.43966942.82792156l31.02354693-20.39312285c6.85385707-4.5053375 6.12803374-12.1811776-1.61951113-17.14328802l-98.23513509-62.91716886c-7.74754486-4.96211043-19.58581235-5.33325905-26.43966942-.82792156z" class="colorffffff svgShape" clip-rule="evenodd"/>
      <path fill="#4d1f00" d="M1144.77378592 1696.46627024c-11.6213173-7.44316564-12.72008503-18.956388-2.43475935-25.71737863 10.277071-6.75556447 28.04202856-6.19775147 39.66334586 1.24541417l35.08797727 22.47297964c11.6213173 7.44316565 12.71183035 18.96181417 2.43475935 25.71737864-10.28532567 6.76099063-28.04202856 6.19775147-39.66334586-1.24541417zm93.07146626-61.17991115c-11.62131729-7.44316564-12.71183035-18.96181417-2.43475935-25.71737864 10.277071-6.75556447 28.04202857-6.19775147 39.66334586 1.24541418l35.08797727 22.47297964c11.6213173 7.44316564 12.71183035 18.96181417 2.43475936 25.71737864-10.277071 6.75556447-28.04202857 6.19775146-39.66334586-1.24541418zm93.07146627-61.17991116c-11.6213173-7.44316564-12.71183036-18.96181416-2.43475936-25.71737863 10.277071-6.75556447 28.04202857-6.19775147 39.66334586 1.24541417l35.08797727 22.47297964c11.6213173 7.44316565 12.71183036 18.96181417 2.43475936 25.71737864-10.277071 6.75556447-28.04202857 6.19775147-39.66334586-1.24541417zm93.07146626-61.17991115c-11.6213173-7.44316564-12.71183035-18.96181417-2.43475936-25.71737864 10.277071-6.75556447 28.04202857-6.19775147 39.66334586 1.24541418l35.08797728 22.47297964c11.62131729 7.44316564 12.71183035 18.96181417 2.43475935 25.71737864-10.277071 6.75556447-28.04202857 6.19775146-39.66334586-1.24541418zm372.28586505-244.71964462c-11.6213173-7.44316564-12.71183035-18.96181417-2.43475936-25.71737864 10.28532568-6.76099062 28.04202857-6.19775147 39.66334586 1.24541418l35.08797728 22.47297964c11.62131729 7.44316564 12.72008502 18.95638801 2.43475935 25.71737864-10.277071 6.75556447-28.04202857 6.19775146-39.66334586-1.24541418z" class="color3e3d3d svgShape"/>
      <path fill="#76522e" d="m1679.80880431 1117.11174787-295.43039098 518.7788965c-3.39856083 5.96524017 8.88062387 11.55858248 15.76147048 7.18087576l413.29863888-263.21119126-33.1328166-315.14457-95.07238665-94.71267276c-3.46587945-3.45181306-10.71055445-4.21371603-14.73058142-1.57117796-22.18031307 14.5800817-30.93278936 36.14268625-23.23029259 57.67049183z" class="colorf1f1f1 svgShape"/>
      <path fill="#d8a353" d="m1831.80901933 1396.16851878-107.66920628 15.07387314 129.8040468 83.13627425 14.51017015-76.23975643c2.46352459-12.9705243-17.11372501-24.70578702-36.64501067-21.97039096z" class="colorf15846 svgShape"/>
      <path fill="#4d1f00" d="M1889.34551602 1207.026981c-11.6213173-7.44316564-12.71183035-18.96181416-2.42650468-25.72280479 10.277071-6.75556447 28.04202857-6.19775147 39.66334586 1.24541418l35.08797727 22.47297964c11.6213173 7.44316564 12.71183036 18.96181417 2.43475936 25.71737863-10.28532567 6.76099063-28.05028324 6.20317763-39.67160054-1.23998801z" class="color3e3d3d svgShape"/>
      <path fill="#fff" stroke="#050316" d="M1436.02 1536.67c3.52-14.16 15.49-24.59 29.94-26.61 77.6-10.9 129.59-11.25 206.84-.23 14.93 2.13 27.08 13.25 30.19 28 11.5 54.67 11.28 92.53.05 144.67-3.14 14.56-15.13 25.52-29.85 27.78-77.77 11.93-130.02 13.15-208.1.15-14-2.33-25.41-12.64-28.86-26.4-13.52-53.98-13.95-92.19-.21-147.36z" class="colorffffff svgShape" transform="matrix(.82546755 -.54261562 .93343914 .59784463 -1107.3248 1403.1584)"/>
      <path fill="#050316" fill-rule="evenodd" d="M1688.92152598 1403.13788518c-73.34859794 34.99846233-115.3612046 63.0270585-168.79153518 111.2326263-7.99721477 7.21944025-8.02665394 17.28158521.0282269 25.39734438 39.2823468 39.54702401 74.11961939 61.40948453 134.32722138 85.80828094 12.30057071 4.98568139 27.34772176 4.9919576 38.24552865.06951062 75.71253313-34.20219621 117.07312572-62.81980037 169.6740888-111.72796665 8.01905326-7.45185386 7.66362295-17.78192433-.95626746-25.93816599-38.61034233-36.52405857-72.76996543-58.63813794-132.16850393-84.586372-12.82444578-5.6104633-28.97469251-5.69117374-40.35875916-.2552576zm-184.41567115 103.46478641c54.36018338-49.03485861 97.52628517-77.84592586 172.28434263-113.51648577 17.22325608-8.22032044 41.89981195-8.19595204 61.7483884.4777413 61.648371 26.92853392 97.80447414 50.3105962 137.99424388 88.32832708 13.37792112 12.66062006 13.71460866 28.44235259 1.62519842 39.67223416-53.5121471 49.74941398-96.15291104 79.29333072-173.62306283 114.2874555-16.54860156 7.4739821-39.59331003 7.55202124-58.67779026-.18233842-62.87887544-25.47760963-100.06625524-48.82382941-141.12265833-90.16058985-12.55123498-12.63466243-12.28118708-28.02779594-.22866191-38.906344z" class="color3e3d3d svgShape" clip-rule="evenodd"/>
      <path fill="#4d1f00" d="m769.52876154 1979.55893881-25.13456323 7.22124887c-3.7161673-20.24737323 1.4638512-63.81693443 10.17113955-81.3278719l4.96385372 3.2812137zm2.8087824-74.70201485 13.11020245 68.79277005 50.03695537-28.34858083-30.90156402-47.97563353zm45.0624716-11.40153962 30.4939399 43.68858822 46.53573313-30.58995558-33.18842284-37.3623934z" class="color3e3d3d svgShape"/>
      <path fill="#76522e" fill-rule="evenodd" d="M892.26254865 2121.44825955c-20.33143207-53.36181582-102.79657268-79.59098325-142.30680487-86.16668796 5.28716153 34.27936514 19.00136842 63.17639097 38.71371619 79.71777069 20.81680142 17.46704444 60.60199553 16.0585484 103.59308868 6.44891727z" class="colorf1f1f1 svgShape" clip-rule="evenodd"/>
    </g>
  </g>
</svg>
