<?xml version="1.0" encoding="UTF-8" standalone="no"?>
<svg
   xml:space="preserve"
   width="33.854111"
   height="14.536"
   version="1.1"
   id="svg88"
   xmlns="http://www.w3.org/2000/svg"
   xmlns:svg="http://www.w3.org/2000/svg"><defs
     id="defs39"><linearGradient
       id="y"><stop
         offset="0"
         style="stop-color:#feb816;stop-opacity:1"
         id="stop1" /><stop
         offset="1"
         style="stop-color:#4d1f00;stop-opacity:1"
         id="stop2" /></linearGradient><linearGradient
       id="c"
       x1="1161.106"
       x2="1161.106"
       y1="1609.756"
       y2="2674.0029"
       gradientUnits="userSpaceOnUse"><stop
         offset="0"
         style="stop-color:#fff"
         id="stop3" /><stop
         offset=".843"
         style="stop-color:#000"
         id="stop4" /></linearGradient><linearGradient
       id="f"
       x1="1161.106"
       x2="1161.106"
       y1="2257.145"
       y2="3094.7009"
       gradientUnits="userSpaceOnUse"><stop
         offset="0"
         style="stop-color:#fff"
         id="stop5" /><stop
         offset=".843"
         style="stop-color:#000"
         id="stop6" /></linearGradient><linearGradient
       id="i"
       x1="526.513"
       x2="526.513"
       y1="2507.4209"
       y2="2986.71"
       gradientUnits="userSpaceOnUse"><stop
         offset="0"
         style="stop-color:#fff"
         id="stop7" /><stop
         offset=".843"
         style="stop-color:#000"
         id="stop8" /></linearGradient><linearGradient
       id="l"
       x1="526.513"
       x2="526.513"
       y1="2878.0081"
       y2="3317.5969"
       gradientUnits="userSpaceOnUse"><stop
         offset="0"
         style="stop-color:#fff"
         id="stop9" /><stop
         offset=".843"
         style="stop-color:#000"
         id="stop10" /></linearGradient><linearGradient
       id="I"
       x1="1818.8459"
       x2="7484.0928"
       y1="3339.0039"
       y2="3339.0039"
       gradientTransform="matrix(.77828821 0 0 1 403.25959 0)"
       gradientUnits="userSpaceOnUse"><stop
         offset="0"
         style="stop-color:#00b1d0"
         id="stop11" /><stop
         offset=".539"
         style="stop-color:#059cd1"
         id="stop12" /><stop
         offset="1"
         style="stop-color:#0a86d3"
         id="stop13" /></linearGradient><linearGradient
       id="o"
       x1="3817.2959"
       x2="3817.2959"
       y1="2991.9351"
       y2="3686.074"
       gradientUnits="userSpaceOnUse"><stop
         offset="0"
         style="stop-color:#fff"
         id="stop14" /><stop
         offset=".843"
         style="stop-color:#000"
         id="stop15" /></linearGradient><linearGradient
       id="J"
       x1="3817.2959"
       x2="3817.2959"
       y1="2991.9351"
       y2="3686.074"
       gradientUnits="userSpaceOnUse"><stop
         offset="0"
         style="stop-color:#fff"
         id="stop16" /><stop
         offset=".843"
         style="stop-color:#f4f7fa"
         id="stop17" /></linearGradient><linearGradient
       id="r"
       x1="6820.355"
       x2="6820.355"
       y1="2991.9351"
       y2="3686.074"
       gradientUnits="userSpaceOnUse"><stop
         offset="0"
         style="stop-color:#fff"
         id="stop18" /><stop
         offset=".843"
         style="stop-color:#000"
         id="stop19" /></linearGradient><linearGradient
       id="K"
       x1="3052.5371"
       x2="6263.7471"
       y1="3096.1589"
       y2="3096.1589"
       gradientTransform="matrix(1 0 0 .92858264 0 263.24966)"
       gradientUnits="userSpaceOnUse"><stop
         offset="0"
         style="stop-color:#00b1d0"
         id="stop20" /><stop
         offset=".539"
         style="stop-color:#059cd1"
         id="stop21" /><stop
         offset="1"
         style="stop-color:#0a86d3"
         id="stop22" /></linearGradient><linearGradient
       id="u"
       x1="4243.894"
       x2="4243.894"
       y1="2506.2439"
       y2="3686.074"
       gradientUnits="userSpaceOnUse"><stop
         offset="0"
         style="stop-color:#fff"
         id="stop23" /><stop
         offset=".843"
         style="stop-color:#000"
         id="stop24" /></linearGradient><linearGradient
       id="L"
       x1="4243.894"
       x2="4243.894"
       y1="2506.2439"
       y2="3686.074"
       gradientUnits="userSpaceOnUse"><stop
         offset="0"
         style="stop-color:#fff"
         id="stop25" /><stop
         offset=".843"
         style="stop-color:#f4f7fa"
         id="stop26" /></linearGradient><linearGradient
       id="x"
       x1="5125.9648"
       x2="5125.9648"
       y1="2506.2439"
       y2="3686.074"
       gradientUnits="userSpaceOnUse"><stop
         offset="0"
         style="stop-color:#fff"
         id="stop27" /><stop
         offset=".843"
         style="stop-color:#000"
         id="stop28" /></linearGradient><linearGradient
       id="M"
       x1="5125.9648"
       x2="5125.9648"
       y1="2506.2439"
       y2="3686.074"
       gradientUnits="userSpaceOnUse"><stop
         offset="0"
         style="stop-color:#fff"
         id="stop29" /><stop
         offset=".843"
         style="stop-color:#f4f7fa"
         id="stop30" /></linearGradient><path
       id="O"
       d="M183.93779 255.60187h159.25349v37.424572H183.93779z" /></defs><g
     style="fill:none"
     id="g88"><path
       fill="#263238"
       d="M861.72597 2988.8404c0 .5642 105.20428 1.0182 234.95123 1.0182 129.7912 0 234.9734-.458 234.9734-1.0182 0-.5642-105.1822-1.0182-234.9734-1.0182-129.74695 0-234.95123.4541-234.95123 1.0182z"
       style="stroke-width:2.02501"
       transform="matrix(-.07115458 0 0 .07154376 94.884299 -199.409012)"
       id="path40" /><path
       fill="#263238"
       d="M1302.3577 2966.3899c0 .5641 5.573 1.0181 12.446 1.0181 6.8753 0 12.4471-.4579 12.4471-1.0181 0-.5642-5.5718-1.0182-12.4471-1.0182-6.873 0-12.446.4541-12.446 1.0182zM1305.7514 2956.2762c0 .5641 5.5729 1.0181 12.446 1.0181 6.8753 0 12.4471-.4579 12.4471-1.0181 0-.5642-5.5718-1.0182-12.4471-1.0182-6.8731 0-12.446.4541-12.446 1.0182zM1301.5166 2946.8767c0 .5642 5.5729 1.0182 12.4459 1.0182 6.8753 0 12.4471-.458 12.4471-1.0182 0-.5642-5.5718-1.0182-12.4471-1.0182-6.873 0-12.4459.4541-12.4459 1.0182z"
       style="fill:#050316;fill-opacity:1;stroke-width:.46607"
       transform="matrix(-.07115458 0 0 .07154376 94.884299 -199.409012)"
       id="path41" /><g
       style="fill:none"
       id="g65"><g
         transform="matrix(.00415493 0 0 .00403984 -12.15143203 -1.55927256)"
         id="g50"><path
           d="M8030.733 1417.573c82.866 0 150.042 67.176 150.042 150.042v2111.756h-300.083V1567.614c0-82.865 67.175-150.041 150.041-150.041z"
           style="fill:#fff1d0;fill-opacity:1"
           id="path42" /><linearGradient
           id="z"
           x1="8032.6641"
           x2="8032.6641"
           y1="1552.129"
           y2="1901.028"
           gradientUnits="userSpaceOnUse"><stop
             offset="0"
             style="stop-color:#0faeac"
             id="stop42" /><stop
             offset=".435"
             style="stop-color:#2299a7"
             id="stop43" /><stop
             offset="1"
             style="stop-color:#3f77a0"
             id="stop44" /></linearGradient><path
           d="m8274.303 1900.382 31.66-348.253h-546.598l31.654 348.193c159.95 2.761 321.81-3.73 483.284.06z"
           style="fill:url(#z)"
           id="path44" /><linearGradient
           id="D"
           x1="8107.5679"
           x2="8107.5679"
           y1="1552.129"
           y2="1900.8409"
           gradientUnits="userSpaceOnUse"><stop
             offset="0"
             style="stop-color:#fff"
             id="stop45" /><stop
             offset=".843"
             style="stop-color:#f4f7fa"
             id="stop46" /></linearGradient><path
           d="M8305.963 1552.129h-48.075l-348.714 348.713c24.267-.087 48.569-.281 72.887-.498l321.47-321.471z"
           style="opacity:.73;fill:url(#D)"
           id="path46" /><linearGradient
           id="H"
           x1="7972.7612"
           x2="7972.7612"
           y1="1552.129"
           y2="1900.619"
           gradientUnits="userSpaceOnUse"><stop
             offset="0"
             style="stop-color:#fff"
             id="stop47" /><stop
             offset=".843"
             style="stop-color:#f4f7fa"
             id="stop48" /></linearGradient><path
           d="m7984.42 1552.129-206.301 206.302 12.9 141.891c9.284.161 18.596.196 27.894.297l348.49-348.49z"
           style="opacity:.73;fill:url(#H)"
           id="path48" /><path
           d="m7791.019 1900.321 2.346 25.813h478.598l2.34-25.752c-161.474-3.79-323.334 2.701-483.284-.061zM8308.157 1527.999h-550.986l2.194 24.13h546.598z"
           style="fill:#76522e;fill-opacity:1"
           id="path49" /><path
           d="M7880.6909 1926.134h300.08401v14.579H7880.6909zM7926.1079 1974.3929h30.162001v44.237H7926.1079zM8017.583 1974.3929h30.162001v44.237H8017.583zM8109.0581 1974.3929h30.162001v44.237H8109.0581zM7926.1079 2119.1699h30.162001v44.237H7926.1079zM8017.583 2119.1699h30.162001v44.237H8017.583zM8109.0581 2119.1699h30.162001v44.237H8109.0581zM7926.1079 2263.946h30.162001v44.237H7926.1079zM8017.583 2263.946h30.162001v44.237H8017.583zM8109.0581 2263.946h30.162001v44.237H8109.0581zM7926.1079 2408.7219h30.162001v44.237H7926.1079zM8017.583 2408.7219h30.162001v44.237H8017.583zM8109.0581 2408.7219h30.162001v44.237H8109.0581zM7926.1079 2553.499h30.162001v44.237H7926.1079zM8017.583 2553.499h30.162001v44.237H8017.583zM8109.0581 2553.499h30.162001v44.237H8109.0581zM7926.1079 2698.2749h30.162001v44.237H7926.1079zM8017.583 2698.2749h30.162001v44.237H8017.583zM8109.0581 2698.2749h30.162001v44.237H8109.0581zM7926.1079 2843.051h30.162001v44.237H7926.1079zM8017.583 2843.051h30.162001v44.237H8017.583zM8109.0581 2843.051h30.162001v44.237H8109.0581z"
           id="path50" /></g><path
         d="M1818.8459 2991.9351h4409.1958v694.13898H1818.8459z"
         style="fill:url(#I);stroke-width:.882206"
         transform="matrix(.00294336 0 0 .00430582 14.1281769 -1.60495313)"
         id="path51" /><path
         d="M5759.009 2991.935H2564.422l-688.839 694.139h3241.732z"
         style="opacity:.39;fill:url(#J)"
         transform="matrix(.00294336 0 0 .00430582 14.1281769 -1.60495313)"
         id="path52" /><path
         d="M1718.828 2925.7581h4469.0425v66.177002H1718.828z"
         style="fill:#fff1d0;fill-opacity:1;stroke-width:.871724"
         transform="matrix(.00294336 0 0 .00430582 14.1281769 -1.60495313)"
         id="path53" /><path
         d="M1823.9351 3114.1809h1222.373v6.4990001h-1222.373zM1823.9351 3244.2581h1222.373v6.4990001h-1222.373z"
         style="opacity:.21"
         transform="matrix(.00294336 0 0 .00430582 14.1281769 -1.60495313)"
         id="path54" /><path
         d="M1818.8459 3395.606h1247.8719v290.46799H1818.8459zM3676.5359 2222.624h14.181v191.44099h-14.181z"
         style="fill:#fff1d0;fill-opacity:1"
         transform="matrix(.00294336 0 0 .00430582 14.1281769 -1.60495313)"
         id="path55" /><path
         d="M3052.5371 2590.5042h3211.21v1095.5696h-3211.21z"
         style="fill:url(#K);stroke-width:.96363"
         transform="matrix(.00294336 0 0 .00430582 14.1281769 -1.60495313)"
         id="path56" /><path
         d="m4201.498 2506.244-998.318 1179.83h1078.985l1002.443-1179.83z"
         style="opacity:.73;fill:url(#L)"
         transform="matrix(.00294336 0 0 .0039983 14.1281769 -.47144831)"
         id="path57" /><path
         d="M5745.319 2506.244h-268.535l-970.173 1179.83h311.388z"
         style="opacity:.73;fill:url(#M)"
         transform="matrix(.00294336 0 0 .00430582 14.1281769 -1.60495313)"
         id="path58" /><path
         d="M3297.199 2414.3127h510.51001v74.448997H3297.199z"
         style="fill:#fff1d0;fill-opacity:1"
         transform="matrix(.00294336 0 0 .00430582 14.1281769 -1.60495313)"
         id="path59" /><path
         d="M23.83303605 8.68271544h1.50261715v.09158903h-1.50261715z"
         id="path60" /><path
         d="M3736.8049 2222.8706h14.181v191.44099h-14.181z"
         style="fill:#fff1d0;fill-opacity:1"
         transform="matrix(.00294336 0 0 .00430582 14.1281769 -1.60495313)"
         id="path61" /><path
         d="M3297.199 2506.2439h9.4540005v1179.83H3297.199zM3547.7271 2506.2439h9.4540005v1179.83H3547.7271zM3798.2549 2506.2439h9.4540005v1179.83H3798.2549zM4048.783 2506.2439h9.4540005v1179.83H4048.783zM4299.312 2506.2439h9.4540005v1179.83H4299.312zM4549.8398 2506.2439h9.4540005v1179.83H4549.8398zM4800.3682 2506.2439h9.4540005v1179.83H4800.3682zM5050.896 2506.2439h9.4540005v1179.83H5050.896zM5301.4248 2506.2439h9.4540005v1179.83H5301.4248zM5551.9531 2506.2439h9.4540005v1179.83H5551.9531zM5802.481 2506.2439h9.4540005v1179.83H5802.481zM6053.0098 2506.2439h9.4540005v1179.83H6053.0098z"
         style="opacity:.21"
         transform="matrix(.00294336 0 0 .00430582 14.1281769 -1.60495313)"
         id="path62" /><path
         d="M3052.5371 3395.606h3211.21v40.661999h-3211.21zM3052.5371 3527.9609h3211.21v40.661999h-3211.21z"
         style="fill:#fff1d0;fill-opacity:1"
         transform="matrix(.00294336 0 0 .00430582 14.1281769 -1.60495313)"
         id="path63" /><path
         d="M2924.9509 2500.7988H6393.562v96.902H2924.9509z"
         style="fill:#fff1d0;fill-opacity:1;stroke:#ccbfb2;stroke-opacity:1"
         transform="matrix(.00294336 0 0 .00430582 14.1281769 -1.60495313)"
         id="path64" /><path
         d="M3052.5371 2507.4231h3205.26v44.905998h-3205.26zM1818.8459 2991.9351h1233.691v28.362h-1233.691z"
         style="opacity:.29"
         transform="matrix(.00294336 0 0 .00430582 14.1281769 -1.60495313)"
         id="path65" /></g><g
       fill="#8526fe"
       class="color000000 svgShape"
       clip-path="url(#N)"
       transform="matrix(-.00433847 .0022572 .00201243 .00609048 31.49618946 -7.75426093)"
       id="g77"><path
         fill="#d8a353"
         d="M685.506 1704.68H1824.29c129.7 0 388.51-156.44 523.54-249.26 15.88-10.92 25.18-29.03 25.18-48.3 0-32.86-26.63-59.49-59.48-59.49H963.626c-102.228 0-175.39 12.53-199.193 18.79-161.61 33.83-304.428 184.16-308.187 259.33-3.006 60.14 151.588 77.67 229.26 78.93z"
         class="colorf15846 svgShape"
         style="fill:#feb816;fill-opacity:1;stroke:#000;stroke-width:33.8528;stroke-dasharray:none;stroke-opacity:1"
         id="path66" /><path
         fill="#5fe4d4"
         d="m2308.3366 1052.6-226.6495 282.4744 237.7332 1.1518 113.375-312.5593-63.1757-.3061c-23.8347-.1155-46.3392 10.6251-61.283 29.2392z"
         class="colorf1f1f1 svgShape"
         style="fill:#76522e;fill-opacity:1;stroke-width:.963529"
         id="path67" /><path
         fill="#5fe4d4"
         d="m2299.75 1284.48-193.58 127.04h214.22l108.99-157.85h-26.52c-36.64 0-72.48 10.71-103.11 30.81z"
         class="colorf1f1f1 svgShape"
         style="fill:#76522e;fill-opacity:1"
         id="path68" /><path
         fill="#fff"
         fill-rule="evenodd"
         d="M907.25 1464.14c0-16.6 13.461-30.07 30.067-30.07H974.9c16.606 0 30.07 13.47 30.07 30.07v105.24c0 16.6-13.464 30.06-30.07 30.06h-37.583c-16.606 0-30.067-13.46-30.067-30.06zm30.067-15.03c-8.303 0-15.034 6.73-15.034 15.03v105.24c0 8.3 6.731 15.03 15.034 15.03H974.9c8.303 0 15.034-6.73 15.034-15.03v-105.24c0-8.3-6.731-15.03-15.034-15.03z"
         class="colorffffff svgShape"
         clip-rule="evenodd"
         id="path69" /><path
         fill="#ad59d4"
         d="M1072.62 1464.14c0-12.45 10.09-22.55 22.55-22.55 12.45 0 22.55 10.1 22.55 22.55v37.59c0 12.45-10.1 22.55-22.55 22.55-12.46 0-22.55-10.1-22.55-22.55zm112.75 0c0-12.45 10.1-22.55 22.55-22.55 12.45 0 22.55 10.1 22.55 22.55v37.59c0 12.45-10.1 22.55-22.55 22.55-12.45 0-22.55-10.1-22.55-22.55zm112.75 0c0-12.45 10.1-22.55 22.55-22.55 12.45 0 22.55 10.1 22.55 22.55v37.59c0 12.45-10.1 22.55-22.55 22.55-12.45 0-22.55-10.1-22.55-22.55zm112.75 0c0-12.45 10.1-22.55 22.55-22.55 12.45 0 22.55 10.1 22.55 22.55v37.59c0 12.45-10.1 22.55-22.55 22.55-12.45 0-22.55-10.1-22.55-22.55zm451 0c0-12.45 10.1-22.55 22.55-22.55 12.46 0 22.55 10.1 22.55 22.55v37.59c0 12.45-10.09 22.55-22.55 22.55-12.45 0-22.55-10.1-22.55-22.55z"
         class="color3e3d3d svgShape"
         style="fill:#4d1f00;fill-opacity:1"
         id="path70" /><path
         fill="#5fe4d4"
         d="m1933.28 1276.22-660.87 267.93c-7.6 3.08-5.48 14.36 2.72 14.48l492.78 6.99 274.36-278.12 31.57-129.77c1.15-4.73-2.47-9.29-7.34-9.29-26.87 0-52.23 13.05-67.72 35z"
         class="colorf1f1f1 svgShape"
         style="fill:#76522e;fill-opacity:1"
         id="path71" /><path
         fill="#d8a353"
         d="m1763.67 1589.05-78.44-45.98v139.06l79.84-55.06c13.58-9.37 12.83-29.68-1.4-38.02z"
         class="colorf15846 svgShape"
         id="path72" /><path
         fill="#ad59d4"
         d="M1974.62 1464.14c0-12.45 10.1-22.55 22.56-22.55 12.45 0 22.55 10.1 22.55 22.55v37.59c0 12.45-10.1 22.55-22.55 22.55-12.46 0-22.56-10.1-22.56-22.55z"
         class="color3e3d3d svgShape"
         style="fill:#4d1f00;fill-opacity:1"
         id="path73" /><path
         fill="#fff"
         d="M1436.02 1536.67c3.52-14.16 15.49-24.59 29.94-26.61 77.6-10.9 129.59-11.25 206.84-.23 14.93 2.13 27.08 13.25 30.19 28 11.5 54.67 11.28 92.53.05 144.67-3.14 14.56-15.13 25.52-29.85 27.78-77.77 11.93-130.02 13.15-208.1.15-14-2.33-25.41-12.64-28.86-26.4-13.52-53.98-13.95-92.19-.21-147.36z"
         class="colorffffff svgShape"
         style="stroke:#050316;stroke-opacity:1"
         id="path74" /><path
         fill="#ad59d4"
         fill-rule="evenodd"
         d="M1671.74 1517.27c-76.52-10.91-127.8-10.57-204.74.23-11.52 1.62-20.93 9.91-23.69 20.98-13.43 53.96-13.01 90.91.21 143.72 2.7 10.79 11.69 18.96 22.8 20.81 77.19 12.85 128.63 11.67 205.73-.16 11.75-1.8 21.18-10.52 23.64-21.93 11.01-51.1 11.23-87.89-.06-141.54-2.43-11.59-12.01-20.42-23.89-22.11zm-206.83-14.66c78.27-10.98 130.97-11.34 208.96-.22 17.97 2.56 32.7 15.97 36.47 33.9 11.72 55.68 11.51 94.6.05 147.79-3.82 17.71-18.35 30.92-36.06 33.63-78.43 12.03-131.5 13.28-210.48.13-16.87-2.81-30.72-15.25-34.91-31.99-13.81-55.15-14.25-94.6-.21-151 4.29-17.24 18.82-29.8 36.18-32.24z"
         class="color3e3d3d svgShape"
         clip-rule="evenodd"
         style="fill:#050316;fill-opacity:1"
         id="path75" /><path
         fill="#ad59d4"
         d="m584.032 1494.21-30.067-15.04c16.678-18.73 61.133-50.4 82.684-60.13l7.516 11.28zm71.409-60.14-56.376 63.9 56.376 3.75 26.308-56.37zm37.583 15.04-22.55 52.61h56.375l15.034-48.85z"
         class="color3e3d3d svgShape"
         style="fill:#4d1f00;fill-opacity:1"
         id="path76" /><path
         fill="#5fe4d4"
         fill-rule="evenodd"
         d="M534.44422 1681.9874c31.46085-57.6389-3.11407-121.174-24.78771-146.2521-25.57773 33.2508-40.74762 65.7776-41.24095 90.1588-.52002 25.7462 28.15119 43.8115 66.02866 56.0933z"
         class="colorf1f1f1 svgShape"
         clip-rule="evenodd"
         style="fill:#76522e;fill-opacity:1;stroke-width:.91244"
         id="path77" /></g><path
       d="m7.88 17.18-.12.03z"
       style="fill:#212121"
       transform="matrix(.07826556 0 0 .0823761 32.52083178 2.13731494)"
       id="path78" /><text
       xml:space="preserve"
       x="309.74805"
       y="23.888025"
       style="font-weight:700;font-size:12px;font-family:sans-serif;-inkscape-font-specification:&quot;sans-serif Bold&quot;;fill:#00000e;fill-opacity:1;stroke:#050316;stroke-width:27.8362;paint-order:fill markers stroke"
       transform="matrix(.01873192 0 0 .01652331 2.37767398 7.9177145)"
       id="text78" /><path
       fill="#434A54"
       d="M277.406 158.607H170.594v-25.343c0-5.891 4.781-10.672 10.672-10.672h85.467c5.891 0 10.672 4.781 10.672 10.672v25.343z"
       style="fill:#050316;fill-opacity:1"
       transform="matrix(.02234916 0 0 .02052887 2.39112419 6.35791277)"
       id="path79" /><path
       fill="#FFCE54"
       d="M53.145 357.189c-23.171 0-47.062-21.5-49.702-23.938a10.717 10.717 0 0 1-3.438-7.844v-74.896a10.68 10.68 0 0 1 3.125-7.547l21.343-21.328c2-2 4.719-3.125 7.547-3.125h36.468c4.969-7.5 15.484-21.312 32.859-35.046 22.89-18.078 62.749-39.624 122.654-39.624 59.937 0 99.732 21.562 122.576 39.655 17.328 13.734 27.797 27.546 32.766 35.062 62.701.016 94.732.516 113.201 17.453 19.452 17.844 19.452 48.804 19.452 110.49 0 5.906-4.766 10.688-10.656 10.688zm-31.797-36.687c7.297 5.844 21.296 15.344 31.796 15.344h437.523c-.062-46.998-.859-73.396-12.531-84.099-12.938-11.859-45.562-11.859-104.779-11.859a10.686 10.686 0 0 1-9.438-5.703c-.078-.141-9.531-17.531-31.406-34.608-29.249-22.828-65.748-34.39-108.513-34.39-102.451 0-139.763 68.295-140.138 68.983a10.663 10.663 0 0 1-9.422 5.672H36.426l-15.078 15.094z"
       style="fill:#feba17;fill-opacity:1;stroke:#000;stroke-width:7.44674;stroke-dasharray:none;stroke-opacity:1"
       transform="matrix(.02234916 0 0 .02052887 2.39112419 6.35791277)"
       id="path80" /><path
       fill="#FFCE54"
       d="M74.441 229.184s39.499-74.67 149.56-74.67c110.076 0 149.357 74.701 149.357 74.701 127.981 0 127.981 0 127.981 117.287H53.348c-19.703.156-42.671-21.094-42.671-21.094v-74.896l21.343-21.328Z"
       style="fill:#feba17;fill-opacity:1"
       transform="matrix(.02234916 0 0 .02052887 2.39112419 6.35791277)"
       id="path81" /><path
       fill="#4FC2E9"
       d="M366.232 218.513c-15.625-20.656-58.39-63.999-142.232-63.999-83.874 0-126.779 43.358-142.435 63.999z"
       style="fill:#0a86d3;fill-opacity:1"
       transform="matrix(.02234916 0 0 .02052887 2.39112419 6.35791277)"
       id="path82" /><path
       fill="#434A54"
       d="M117.346 282.754c-29.405 0-53.327 23.906-53.327 53.311 0 29.438 23.922 53.344 53.327 53.344 29.406 0 53.327-23.906 53.327-53.344 0-29.405-23.921-53.311-53.327-53.311zm277.323 0c-29.405 0-53.327 23.906-53.327 53.311 0 29.438 23.922 53.344 53.327 53.344 29.405 0 53.327-23.906 53.327-53.344 0-29.405-23.922-53.311-53.327-53.311z"
       style="fill:#050316;fill-opacity:1"
       transform="matrix(.02234916 0 0 .02052887 2.39112419 6.35791277)"
       id="path83" /><path
       fill="#F5F7FA"
       d="M106.675 336.064c0 5.906 4.781 10.688 10.671 10.688 5.891 0 10.672-4.781 10.672-10.688 0-5.875-4.781-10.656-10.672-10.656-5.89 0-10.671 4.781-10.671 10.656z"
       style="fill:#76522e;fill-opacity:1"
       transform="matrix(.02234916 0 0 .02052887 2.39112419 6.35791277)"
       id="path84" /><path
       fill="#3BAFDA"
       d="M192.017 153.01212h21.9836l-.6556 65.49988h-21.328z"
       style="fill:#feba17;fill-opacity:1"
       transform="matrix(.02234916 0 0 .02052887 2.39112419 6.35791277)"
       id="path85" /><path
       fill="#F5F7FA"
       d="M383.998 336.064c0 5.906 4.65004 10.688 10.3787 10.688 5.72964 0 10.37968-4.781 10.37968-10.688 0-5.875-4.65004-10.656-10.37968-10.656-5.72866 0-10.3787 4.781-10.3787 10.656zm121.649-64.568c-1.27606-8.141-3.14542-15.062-5.85121-20.984h-32.93058c-5.72964 0-10.37968 4.766-10.37968 10.671 0 5.891 4.65004 10.656 10.37968 10.656h36.21313a10.115128 10.4 0 0 0 2.56866-.343z"
       style="fill:#76522e;fill-opacity:1;stroke-width:.986209"
       transform="matrix(.02234916 0 0 .02052887 2.39112419 6.35791277)"
       id="path86" /><path
       fill="#FC6E51"
       d="M32.875557 220.11143a9.8225159 10.146508 0 0 0-6.94106 2.9689L6.3050999 243.34199c-1.8394225 1.9001-2.8740976 4.48328-2.8740976 7.17001H32.875557c5.418019 0 9.800443-4.54218 9.800443-10.13891v-20.26261h-9.800443z"
       style="fill:#76522e;fill-opacity:1;stroke-width:.934756"
       transform="matrix(.02234916 0 0 .02052887 2.39112419 6.35791277)"
       id="path87" /><path
       fill="#38303b"
       d="M1406.516 3044.6616c2.4542-1.409 5.0857-2.3188 7.8942-2.7256v23.2285h6.6263v-23.2285c2.8085.4068 5.4538 1.3167 7.9351 2.7256l2.2497-4.9223c-1.9634-1.1643-4.0903-2.0488-6.3809-2.6442-2.2905-.5955-4.6491-.8946-7.0762-.8946-2.4541 0-4.8265.2991-7.117.8946-2.3177.5954-4.4447 1.4792-6.3808 2.6442zm-17.7079-8.4615c-2.6453 0-4.9492.5144-6.9126 1.5459-1.9633 1.0315-3.4905 2.5479-4.5811 4.5561-1.091 2.0081-1.6361 4.4342-1.6361 7.2818v15.5806h6.6263v-6.8343h13.0888v6.8343h6.5445v-15.5806c0-2.8476-.5455-5.2737-1.6361-7.2818-1.091-2.0082-2.6178-3.5244-4.5811-4.5561-1.9634-1.0315-4.2677-1.5459-6.9126-1.5459zm-6.5035 16.8416v-4.068c0-2.3594.586-4.1346 1.7588-5.3291 1.1724-1.2202 2.7676-1.8306 4.7856-1.8306 2.0451 0 3.6537.6108 4.8265 1.8306 1.1453 1.1951 1.7179 2.9697 1.7179 5.3291v4.068zm-30.8054 12.1228 6.9126-9.8855 6.7898 9.8855h7.6079l-10.5938-14.4822 10.0621-13.9941h-7.5261l-6.5853 9.2345-6.4627-9.2345h-7.1579l9.9802 13.75-10.6756 14.7263zm-20.9768-23.1878v17.8992h-4.9492v5.2886h16.5649v-5.2886h-4.9894v-17.8992h4.9894v-5.2885h-16.5649v5.2885z"
       style="fill:#050316;fill-opacity:1;stroke-width:3.7083"
       transform="matrix(-.041581 0 0 .03573906 65.28574239 -97.18275359)"
       id="path88" /></g></svg>
