<?xml version="1.0" encoding="UTF-8" standalone="no"?>
<svg
   xml:space="preserve"
   width="10.135928"
   height="4.778151"
   version="1.1"
   id="svg88"
   sodipodi:docname="to-airport 2.svg"
   xmlns:inkscape="http://www.inkscape.org/namespaces/inkscape"
   xmlns:sodipodi="http://sodipodi.sourceforge.net/DTD/sodipodi-0.dtd"
   xmlns="http://www.w3.org/2000/svg"
   xmlns:svg="http://www.w3.org/2000/svg"><sodipodi:namedview
     id="namedview1"
     pagecolor="#ffffff"
     bordercolor="#000000"
     borderopacity="0.25"
     inkscape:showpageshadow="2"
     inkscape:pageopacity="0.0"
     inkscape:pagecheckerboard="0"
     inkscape:deskcolor="#d1d1d1" /><defs
     id="defs39" /><path
     fill="#d8a353"
     d="M 8.9510536,2.0028103 4.010473,4.5732735 C 3.447773,4.8660324 2.010109,4.4974236 1.237492,4.236895 1.146621,4.2062313 1.069828,4.1169246 1.031049,3.9995611 0.96492003,3.7994279 1.026863,3.5771292 1.169382,3.5029802 L 7.0259,0.45597685 c 0.443513,-0.2307491 0.78614,-0.3195766 0.902006,-0.3351784 0.7692216,-0.1587451 1.6913616,0.434468 1.8589436,0.88380455 0.134069,0.3594964 -0.501354,0.815212 -0.835796,0.9982073 z"
     class="colorf15846 svgShape"
     style="fill:#feb816;fill-opacity:1;stroke:#000000;stroke-width:0.18838;stroke-dasharray:none;stroke-opacity:1"
     id="path66" /><path
     fill="#5fe4d4"
     d="M 0.59818603,1.6943833 2.149958,2.9031948 1.120877,3.4468211 3.02948e-8,1.799095 0.27346903,1.6546305 c 0.103174,-0.054503 0.222424,-0.039885 0.324717,0.039753 z"
     class="colorf1f1f1 svgShape"
     style="fill:#76522e;fill-opacity:1;stroke-width:0.00536174"
     id="path67" /><path
     fill="#5fe4d4"
     d="m 1.102081,3.0872622 1.0955,0.3367858 -0.929387,0.4835373 -0.79051197,-0.71537 0.115056,-0.059861 c 0.158962,-0.082704 0.336006,-0.098373 0.50934297,-0.045092 z"
     class="colorf1f1f1 svgShape"
     style="fill:#76522e;fill-opacity:1;stroke-width:0.00556469"
     id="path68" /><path
     fill="#ffffff"
     fill-rule="evenodd"
     d="M 7.504953,1.0383268 C 7.471547,0.93722475 7.386039,0.88557015 7.313995,0.92305325 L 7.150942,1.0078853 c -0.07204,0.037483 -0.10335,0.1499128 -0.06994,0.2510148 L 7.29279,1.8998622 C 7.3262,2.0009642 7.411697,2.0525511 7.483742,2.015068 L 7.646794,1.930236 C 7.718834,1.892753 7.750152,1.7803909 7.716744,1.6792889 Z M 7.344262,1.0146538 c 0.03602,-0.0187411 0.07877,0.00705 0.09547,0.057605 L 7.65152,1.7132212 c 0.0167,0.050551 0.001,0.1067331 -0.03498,0.1254746 l -0.163053,0.084832 c -0.03602,0.018741 -0.07877,-0.00705 -0.09547,-0.057605 L 7.146231,1.2249611 c -0.0167,-0.050551 -0.001,-0.1067331 0.03498,-0.1254746 z"
     class="colorffffff svgShape"
     clip-rule="evenodd"
     id="path69"
     style="stroke-width:0.00556469" /><path
     fill="#ad59d4"
     d="M 6.787501,1.4116 C 6.762451,1.335774 6.698341,1.2970348 6.644288,1.325159 6.590278,1.353261 6.566778,1.4375727 6.591838,1.5133992 l 0.07565,0.2289411 c 0.02505,0.075826 0.0892,0.1145426 0.143213,0.086441 0.05406,-0.028125 0.07751,-0.1124137 0.05245,-0.1882402 z M 6.298338,1.6660993 c -0.02506,-0.075826 -0.0892,-0.1145427 -0.143213,-0.08644 -0.05401,0.028102 -0.07751,0.1124137 -0.05245,0.1882402 l 0.07565,0.2289411 c 0.02506,0.075826 0.0892,0.1145426 0.143213,0.086441 0.05401,-0.028102 0.07751,-0.1124137 0.05245,-0.1882402 z M 5.809176,1.9205986 c -0.02506,-0.075826 -0.0892,-0.1145427 -0.143213,-0.086441 -0.05401,0.028102 -0.07751,0.1124137 -0.05245,0.1882402 l 0.07565,0.2289411 c 0.02506,0.075826 0.0892,0.1145426 0.143213,0.086441 0.05401,-0.028102 0.07751,-0.1124137 0.05245,-0.1882402 z M 5.320013,2.1750979 C 5.294963,2.0992719 5.230813,2.0605552 5.1768,2.0886569 5.12279,2.1167589 5.09929,2.2010706 5.12435,2.2768971 L 5.2,2.5058382 c 0.02505,0.075826 0.0892,0.1145426 0.143213,0.086441 0.05401,-0.028102 0.07751,-0.1124137 0.05245,-0.1882402 z M 3.363363,3.1930951 C 3.338313,3.1172691 3.274163,3.0785524 3.22015,3.1066541 3.16609,3.1347791 3.14264,3.2190678 3.1677,3.2948943 l 0.07565,0.2289411 c 0.02505,0.075826 0.08916,0.1145652 0.143213,0.086441 0.05401,-0.028102 0.07751,-0.1124137 0.05245,-0.1882402 z"
     class="color3e3d3d svgShape"
     style="fill:#4d1f00;fill-opacity:1;stroke-width:0.00556469"
     id="path70" /><path
     fill="#5fe4d4"
     d="m 2.675377,2.2097587 3.406355,0.1401065 c 0.03917,0.0016 0.05267,0.07509 0.01734,0.09433 L 3.975227,3.5990706 2.225227,2.5244717 1.827109,1.80537 C 1.812599,1.779158 1.819109,1.743214 1.840259,1.732222 1.956834,1.671571 2.093119,1.693809 2.204495,1.792531 Z"
     class="colorf1f1f1 svgShape"
     style="fill:#76522e;fill-opacity:1;stroke-width:0.00556469"
     id="path71" /><path
     fill="#d8a353"
     d="M 4.040774,3.7321999 4.288552,3.2751048 4.5684,4.122047 4.111212,3.96692 C 4.033442,3.940505 3.995821,3.8151144 4.040772,3.7321999 Z"
     class="colorf15846 svgShape"
     id="path72"
     style="stroke-width:0.00556469" /><path
     fill="#ad59d4"
     d="m 2.874201,3.4475944 c -0.02505,-0.075826 -0.0892,-0.1145427 -0.143257,-0.086418 -0.05401,0.028102 -0.07751,0.1124137 -0.05245,0.1882401 l 0.07565,0.2289412 c 0.02506,0.075826 0.0892,0.1145426 0.143213,0.086441 0.05406,-0.028125 0.07755,-0.1124363 0.0525,-0.1882628 z"
     class="color3e3d3d svgShape"
     style="fill:#4d1f00;fill-opacity:1;stroke-width:0.00556469"
     id="path73" /><path
     fill="#ffffff"
     d="M 5.356862,2.6736089 C 5.313092,2.5953129 5.240174,2.5588081 5.173418,2.5791219 4.814817,2.6878944 4.588555,2.8031146 4.275586,3.0446004 4.215096,3.0912734 4.184766,3.1864242 4.200956,3.2832787 4.261086,3.642203 4.338228,3.872292 4.491878,4.1645013 4.534798,4.2460913 4.608876,4.2857789 4.677286,4.2663174 5.038697,4.1634344 5.267837,4.0529261 5.580424,3.7975077 5.636474,3.7517157 5.665224,3.6631685 5.652504,3.5715762 5.602524,3.2122946 5.527498,2.9786068 5.356862,2.6736089 Z"
     class="colorffffff svgShape"
     style="stroke:#050316;stroke-width:0.00556469;stroke-opacity:1"
     id="path74" /><path
     fill="#ad59d4"
     fill-rule="evenodd"
     d="M 4.295157,3.0875208 C 4.605181,2.8483527 4.828342,2.7346743 5.183878,2.6267825 c 0.05324,-0.016136 0.110747,0.013114 0.144999,0.074305 0.166857,0.2983281 0.239394,0.5243194 0.288316,0.8757978 0.01,0.071811 -0.01256,0.1418622 -0.05704,0.178207 C 5.251126,4.0075883 5.025581,4.1165119 4.667278,4.2184916 4.612678,4.2340506 4.554218,4.2022276 4.520584,4.1382876 4.369982,3.8519159 4.29499,3.6283437 4.236005,3.2761056 4.223225,3.2000316 4.247015,3.1246291 4.295155,3.0875206 Z M 5.16298,2.5313777 C 4.801312,2.6411753 4.57195,2.7579371 4.255971,3.0017023 c -0.07281,0.056154 -0.10973,0.1710754 -0.09,0.2887874 0.06121,0.3655723 0.14044,0.6021397 0.2972,0.9002249 0.05221,0.09924 0.141836,0.146898 0.224124,0.1234282 C 5.05177,4.2103791 5.284529,4.0982026 5.600717,3.8398391 5.668257,3.7846461 5.703306,3.6776181 5.687797,3.5662058 5.636717,3.1991439 5.55924,2.9578813 5.384827,2.6460693 5.331517,2.5507523 5.243207,2.5070535 5.16298,2.5313777 Z"
     class="color3e3d3d svgShape"
     clip-rule="evenodd"
     style="fill:#050316;fill-opacity:1;stroke-width:0.00556469"
     id="path75" /><path
     fill="#ad59d4"
     d="m 8.9677396,0.49189985 0.100178,-0.1594681 c -0.11005,-0.076429 -0.366651,-0.1689708 -0.47973,-0.1795862 l -0.0099,0.085666 z m -0.430834,-0.2050971 0.37318,0.2619297 -0.237039,0.1500913 -0.2275772,-0.283938 z m -0.1327852,0.1764331 0.2037062,0.2695203 -0.2445812,0.1272497 -0.163532,-0.2635852 z"
     class="color3e3d3d svgShape"
     style="fill:#4d1f00;fill-opacity:1;stroke-width:0.00556469"
     id="path76" /><path
     fill="#5fe4d4"
     fill-rule="evenodd"
     d="M 9.5607636,1.5236248 C 9.3082766,1.2435897 9.3304196,0.77858785 9.3739816,0.57692845 c 0.177883,0.1447793 0.309155,0.3086416 0.360361,0.45602135 0.05407,0.1556329 -0.03396,0.3303759 -0.173579,0.490675 z"
     class="colorf1f1f1 svgShape"
     clip-rule="evenodd"
     style="fill:#76522e;fill-opacity:1;stroke-width:0.00507745"
     id="path77" /><path
     d="m 10.135928,1.3799639 -0.0094,0.00247 z"
     style="fill:#212121;stroke-width:0.0802945"
     id="path78" /></svg>
