<svg xmlns="http://www.w3.org/2000/svg" width="150" height="150"><!--!Font Awesome Pro 6.7.2 by @fontawesome - https://fontawesome.com License - https://fontawesome.com/license (Commercial License) Copyright 2025 Fonticons, Inc.--><path fill="#050316" d="M88.945 121.734C82.91 133.802 77.168 135.911 75 135.911c-.908 0-2.432-.38-4.336-1.67l-4.482 15.232c2.9.351 5.83.527 8.818.527 41.426 0 75-33.568 75-74.985S116.426 0 75 0 0 33.568 0 74.985c0 2.988.176 5.917.527 8.817l13.74-4.042a64 64 0 0 1-.175-4.775c0-4.833.556-9.549 1.64-14.06h22.471c-.38 3.896-.586 7.91-.644 12.01l14.18-4.16c.116-2.665.322-5.272.585-7.82h45.41a135.5 135.5 0 0 1 0 28.12h-13.77l-4.13 14.06H95.42c-1.64 7.146-3.867 13.444-6.445 18.628zm-27.89-93.497C67.09 16.169 72.832 14.06 75 14.06s7.91 2.109 13.945 14.177c2.578 5.184 4.805 11.482 6.446 18.629H54.609c1.641-7.147 3.868-13.445 6.446-18.63M112.5 74.985c0-4.803-.234-9.52-.645-14.06h22.471a61.8 61.8 0 0 1 1.64 14.06c0 4.833-.556 9.55-1.64 14.06h-22.47c.439-4.54.644-9.256.644-14.06m-2.725-28.12c-2.138-10.515-5.42-19.83-9.55-27.357a61.17 61.17 0 0 1 28.828 27.358h-19.307zm-88.857 0a61.17 61.17 0 0 1 28.828-27.357c-4.13 7.498-7.412 16.842-9.55 27.358H20.888Zm88.857 56.24h19.307a61.17 61.17 0 0 1-28.828 27.358c4.13-7.499 7.412-16.843 9.55-27.358zm-98.35-12.742c-4.071 1.201-4.57 6.796-.76 8.7l16.786 8.406c.381.205.762.44 1.084.733L2.754 133.978c-3.662 3.661-3.662 9.607 0 13.269 3.662 3.661 9.61 3.661 13.271 0l25.782-25.777c.293.323.556.674.732 1.084l8.408 16.784c1.905 3.808 7.5 3.31 8.701-.762l17.637-59.988c1.055-3.544-2.256-6.854-5.83-5.829z" style="stroke-width:.29294"/></svg>