<svg xmlns="http://www.w3.org/2000/svg" width="15" height="20" viewBox="0 0 384 512"><!--!Font Awesome Pro 6.7.2 by @fontawesome - https://fontawesome.com License - https://fontawesome.com/license (Commercial License) Copyright 2025 Fonticons, Inc.--><path fill="#050316" d="M336 192c0-79.5-64.5-144-144-144S48 112.5 48 192c0 12.4 4.5 31.6 15.3 57.2 10.5 24.8 25.4 52.2 42.5 79.9 28.5 46.2 61.5 90.8 86.2 122.6 24.8-31.8 57.8-76.4 86.2-122.6 17.1-27.7 32-55.1 42.5-79.9 10.8-25.6 15.3-44.8 15.3-57.2m48 0c0 87.4-117 243-168.3 307.2-12.3 15.3-35.1 15.3-47.4 0C117 435 0 279.4 0 192 0 86 86 0 192 0s192 86 192 192m-160 0a32 32 0 1 0-64 0 32 32 0 1 0 64 0m-112 0a80 80 0 1 1 160 0 80 80 0 1 1-160 0"/></svg>