<?xml version="1.0" encoding="UTF-8" standalone="no"?>
<svg
   xml:space="preserve"
   width="43.5mm"
   height="18.5mm"
   viewBox="0 0 43.5 18.5"
   version="1.1"
   id="svg5"
   sodipodi:docname="logo.svg"
   inkscape:version="1.3 (0e150ed, 2023-07-21)"
   xmlns:inkscape="http://www.inkscape.org/namespaces/inkscape"
   xmlns:sodipodi="http://sodipodi.sourceforge.net/DTD/sodipodi-0.dtd"
   xmlns:xlink="http://www.w3.org/1999/xlink"
   xmlns="http://www.w3.org/2000/svg"
   xmlns:svg="http://www.w3.org/2000/svg"><sodipodi:namedview
     id="namedview5"
     pagecolor="#ffffff"
     bordercolor="#000000"
     borderopacity="0.25"
     inkscape:showpageshadow="2"
     inkscape:pageopacity="0.0"
     inkscape:pagecheckerboard="0"
     inkscape:deskcolor="#d1d1d1"
     inkscape:document-units="mm"
     inkscape:zoom="28.487739"
     inkscape:cx="121.75413"
     inkscape:cy="34.96241"
     inkscape:window-width="3824"
     inkscape:window-height="2091"
     inkscape:window-x="2568"
     inkscape:window-y="258"
     inkscape:window-maximized="0"
     inkscape:current-layer="g5" /><defs
     id="defs2"><linearGradient
       id="a"><stop
         offset="0"
         style="stop-color:#feb816;stop-opacity:1"
         id="stop1" /><stop
         offset="1"
         style="stop-color:#4d1f00;stop-opacity:1"
         id="stop2" /></linearGradient><linearGradient
       xlink:href="#a"
       id="b"
       x1="6.8410001"
       x2="166.276"
       y1="53.860001"
       y2="53.860001"
       gradientTransform="matrix(0.96489532,0,0,2.28571,-6.407754,-77.369)"
       gradientUnits="userSpaceOnUse" /></defs><g
     id="g5"
     transform="matrix(0.23366505,0,0,0.23093412,0.14866768,0.25392248)"><path
       d="M 12.917,88.52 6.803,63.734 h 5.494 l 5.145,21.457 h -2.774 l 5.413,-21.457 h 4.903 L 30.1,85.191 H 27.434 L 32.74,63.734 h 5.09 L 31.718,88.52 h -5.71 L 21.645,70.285 H 23.18 L 18.627,88.52 Z m 26.827,0 V 63.734 h 5.333 V 88.52 Z M 53.777,73.33 h 8.754 v 5.24 h -8.754 z m 0.377,9.772 h 9.858 V 88.52 H 48.875 V 63.734 h 14.787 v 5.418 h -9.508 z m 12.82,5.418 V 63.734 h 4.391 l 10.397,16.5 h -2.074 v -16.5 h 5.226 V 88.52 h -4.39 L 70.126,72.02 H 72.2 v 16.5 z m 33.562,0 V 69.293 h -5.791 v -5.559 h 16.888 v 5.56 h -5.764 V 88.52 Z m 9.885,0 8.323,-24.786 h 5.252 l 8.35,24.786 h -5.549 l -6.518,-21.351 h 2.1 l -6.517,21.35 z m 4.552,-4.816 1.373,-5.17 h 9.212 l 1.374,5.17 z m 15.918,4.816 8.242,-15.048 -0.027,4.992 -7.919,-14.73 h 6.007 l 5.064,9.596 -2.56,0.035 4.984,-9.63 h 5.764 l -7.92,14.446 v -4.957 l 8.35,15.296 h -6.14 l -5.145,-10.091 h 2.451 l -5.064,10.09 z m 21.225,0 V 63.734 h 5.333 V 88.52 Z"
       aria-label="WIEN TAXI"
       style="font-weight:800;font-size:30.6902px;font-family:Montserrat;-inkscape-font-specification:'Montserrat Ultra-Bold';fill:#d59601;fill-opacity:1;stroke:#0e0e0e;stroke-width:0.0497014;stroke-linejoin:round;stroke-opacity:0.045;paint-order:stroke markers fill"
       transform="translate(-6.584,-10.402)"
       id="path2" /><path
       d="m 6.81,47.363 9.65,-36.517 h 6.09 l 9.682,36.517 H 25.798 L 18.24,15.906 h 2.436 l -7.558,31.457 z m 5.277,-7.095 1.593,-7.616 h 10.682 l 1.592,7.616 z m 21.894,7.095 V 10.846 h 6.184 v 36.517 z m 10.588,0 V 10.846 h 9.994 q 2.998,0 5.153,1.617 2.187,1.617 3.373,4.695 1.187,3.026 1.187,7.2 0,4.12 -1.187,7.146 -1.186,2.974 -3.373,4.59 -2.155,1.566 -5.153,1.566 h -6.559 l 2.749,-4.33 v 14.033 z m 13.523,0 -5.434,-13.303 h 6.59 l 5.465,13.303 z m -7.34,-12.937 -2.748,-4.748 h 6.184 q 1.937,0 2.874,-1.408 0.968,-1.409 0.968,-3.913 0,-2.556 -0.968,-3.964 -0.937,-1.409 -2.874,-1.409 h -6.184 l 2.749,-4.747 z M 67.68,47.363 V 10.846 h 9.995 q 2.998,0 5.153,1.617 2.186,1.617 3.373,4.695 1.187,3.026 1.187,7.2 0,4.12 -1.187,7.146 -1.187,3.026 -3.373,4.696 -2.155,1.617 -5.153,1.617 h -6.559 l 2.748,-4.486 V 47.364 Z M 73.864,34.426 71.116,29.678 H 77.3 q 1.936,0 2.873,-1.408 0.968,-1.409 0.968,-3.913 0,-2.556 -0.968,-3.964 -0.937,-1.409 -2.873,-1.409 h -6.184 l 2.748,-4.747 z m 27.86,13.667 q -2.624,0 -4.842,-1.408 -2.217,-1.409 -3.872,-3.965 -1.624,-2.608 -2.53,-6.051 -0.906,-3.443 -0.906,-7.564 0,-4.122 0.906,-7.565 0.906,-3.443 2.53,-5.999 1.655,-2.608 3.872,-4.017 2.218,-1.408 4.841,-1.408 2.655,0 4.841,1.408 2.218,1.409 3.842,4.017 1.624,2.556 2.53,6 0.937,3.442 0.937,7.564 0,4.12 -0.937,7.616 -0.906,3.443 -2.53,5.999 -1.624,2.556 -3.842,3.965 -2.186,1.408 -4.84,1.408 z m 0,-8.555 q 1.249,0 2.31,-0.73 1.094,-0.73 1.875,-2.087 0.812,-1.409 1.249,-3.339 0.468,-1.93 0.468,-4.277 0,-2.4 -0.468,-4.278 -0.437,-1.93 -1.25,-3.287 -0.78,-1.408 -1.873,-2.139 -1.062,-0.73 -2.312,-0.73 -1.25,0 -2.342,0.73 -1.062,0.73 -1.874,2.14 -0.78,1.356 -1.25,3.286 -0.436,1.878 -0.436,4.278 0,2.347 0.437,4.277 0.468,1.93 1.25,3.339 0.811,1.356 1.873,2.087 1.093,0.73 2.342,0.73 z m 15.397,7.825 V 10.846 h 9.994 q 2.998,0 5.153,1.617 2.187,1.617 3.373,4.695 1.187,3.026 1.187,7.2 0,4.12 -1.187,7.146 -1.186,2.974 -3.373,4.59 -2.155,1.566 -5.153,1.566 h -6.559 l 2.749,-4.33 v 14.033 z m 13.523,0 -5.434,-13.303 h 6.59 l 5.466,13.303 z m -7.34,-12.937 -2.748,-4.748 h 6.184 q 1.937,0 2.874,-1.408 0.968,-1.409 0.968,-3.913 0,-2.556 -0.968,-3.964 -0.937,-1.409 -2.874,-1.409 h -6.184 l 2.749,-4.747 z m 21.27,12.937 V 19.036 h -6.715 v -8.19 h 19.582 v 8.19 h -6.683 v 28.327 z"
       aria-label="AIRPORT"
       style="font-weight:800;font-size:40.3643px;font-family:Montserrat;-inkscape-font-specification:'Montserrat Ultra-Bold';opacity:0.87;fill:#4d1f00;fill-opacity:1;stroke:#120d0a;stroke-width:0.0649617;stroke-linejoin:round;stroke-opacity:0.045;paint-order:stroke markers fill"
       transform="translate(-6.584,-10.402)"
       id="path3" /><path
       d="M 0.32670884,43.683 H 153.89635 c 0.0745,0 0.13271,0.131 0.13271,0.294 v 3.527 c 0,0.163 -0.0582,0.294 -0.13271,0.294 H 0.32670884 c -0.0735003,0 -0.13270883,-0.131 -0.13270883,-0.294 v -3.527 c 0,-0.163 0.0592086,-0.294 0.13270883,-0.294 z"
       style="fill:url(#b);stroke:#000000;stroke-width:0;paint-order:stroke markers fill"
       id="path4" /><path
       d="m 184.06211,44.230305 c 0.3827,0.421 0.66991,0.945 0.66991,1.543 0,1.194 -1.08732,2.09 -2.10442,2.627 -1.06207,0.563 -2.38137,0.923 -3.4182,0.923 h -5.05866 l -4.36508,6.734 c -0.42767,0.665 -1.23329,1.073 -2.09889,1.073 h -1.60147 c -1.07312,0 -1.84245,-0.9 -1.5505,-1.81 l 1.94819,-5.997 h -3.90065 l -1.93319,2.27 c -0.30142,0.36 -0.78038,0.569 -1.28853,0.569 h -2.11468 c -0.83483,0 -1.50947,-0.595 -1.50947,-1.331 0,-0.124 0.0189,-0.249 0.0599,-0.364 l 1.52052,-4.693 -1.52052,-4.69 c -0.0381,-0.116768 -0.0585,-0.241639 -0.0599,-0.368 0,-0.736 0.67464,-1.33 1.51026,-1.33 h 2.11389 c 0.50815,0 0.98632,0.208 1.28853,0.567 l 1.93319,2.272 3.77146,-0.06536 -1.94897,-5.998 c -0.29117,-0.91 0.48443,-1.85029 1.55128,-1.81 l 1.73066,0.06536 c 0.865,0.03267 1.66649,0.408 2.09889,1.073 l 4.36981,6.735 h 5.05945 c 1.04156,0 2.36087,0.372 3.42294,0.94 0.53814,0.289 1.04708,0.643 1.42977,1.065 z"
       style="fill:#4d1f00;fill-opacity:1;stroke-width:14.257;stroke-dasharray:none"
       id="path5"
       sodipodi:nodetypes="cscsccssccccsssccccssccccssccsccc" /></g></svg>
