<svg xmlns="http://www.w3.org/2000/svg" xmlns:xlink="http://www.w3.org/1999/xlink" xml:space="preserve" width="187mm" height="80mm" viewBox="0 0 187 80"><defs><linearGradient id="a"><stop offset="0" style="stop-color:#feb816;stop-opacity:1"/><stop offset="1" style="stop-color:#4d1f00;stop-opacity:1"/></linearGradient><linearGradient xlink:href="#a" id="b" x1="6.841" x2="166.276" y1="53.86" y2="53.86" gradientTransform="matrix(.9452 0 0 2.28571 .311 -66.967)" gradientUnits="userSpaceOnUse"/></defs><path d="M12.917 88.52 6.803 63.734h5.494l5.145 21.457h-2.774l5.413-21.457h4.903L30.1 85.191h-2.666l5.306-21.457h5.09L31.718 88.52h-5.71l-4.363-18.235h1.535L18.627 88.52zm26.827 0V63.734h5.333V88.52Zm14.033-15.19h8.754v5.24h-8.754zm.377 9.772h9.858v5.418H48.875V63.734h14.787v5.418h-9.508zm12.82 5.418V63.734h4.391l10.397 16.5h-2.074v-16.5h5.226V88.52h-4.39l-10.398-16.5H72.2v16.5zm33.562 0V69.293h-5.791v-5.559h16.888v5.56h-5.764V88.52zm9.885 0 8.323-24.786h5.252l8.35 24.786h-5.549l-6.518-21.351h2.1l-6.517 21.35zm4.552-4.816 1.373-5.17h9.212l1.374 5.17zm15.918 4.816 8.242-15.048-.027 4.992-7.919-14.73h6.007l5.064 9.596-2.56.035 4.984-9.63h5.764l-7.92 14.446v-4.957l8.35 15.296h-6.14l-5.145-10.091h2.451l-5.064 10.09zm21.225 0V63.734h5.333V88.52z" aria-label="WIEN TAXI" style="font-weight:800;font-size:30.6902px;font-family:Montserrat;-inkscape-font-specification:&quot;Montserrat Ultra-Bold&quot;;fill:#d59601;fill-opacity:1;stroke:#0e0e0e;stroke-width:.0497014;stroke-linejoin:round;stroke-opacity:.045;paint-order:stroke markers fill" transform="translate(-6.584 -10.402)"/><path d="m6.81 47.363 9.65-36.517h6.09l9.682 36.517h-6.434L18.24 15.906h2.436l-7.558 31.457zm5.277-7.095 1.593-7.616h10.682l1.592 7.616zm21.894 7.095V10.846h6.184v36.517zm10.588 0V10.846h9.994q2.998 0 5.153 1.617 2.187 1.617 3.373 4.695 1.187 3.026 1.187 7.2 0 4.12-1.187 7.146-1.186 2.974-3.373 4.59-2.155 1.566-5.153 1.566h-6.559l2.749-4.33v14.033zm13.523 0L52.658 34.06h6.59l5.465 13.303zm-7.34-12.937-2.748-4.748h6.184q1.937 0 2.874-1.408.968-1.409.968-3.913 0-2.556-.968-3.964-.937-1.409-2.874-1.409h-6.184l2.749-4.747zM67.68 47.363V10.846h9.995q2.998 0 5.153 1.617 2.186 1.617 3.373 4.695 1.187 3.026 1.187 7.2 0 4.12-1.187 7.146T82.828 36.2q-2.155 1.617-5.153 1.617h-6.559l2.748-4.486v14.033zm6.184-12.937-2.748-4.748H77.3q1.936 0 2.873-1.408.968-1.409.968-3.913 0-2.556-.968-3.964-.937-1.409-2.873-1.409h-6.184l2.748-4.747zm27.86 13.667q-2.624 0-4.842-1.408-2.217-1.409-3.872-3.965-1.624-2.608-2.53-6.051t-.906-7.564q0-4.122.906-7.565t2.53-5.999q1.655-2.608 3.872-4.017 2.218-1.408 4.841-1.408 2.655 0 4.841 1.408 2.218 1.409 3.842 4.017 1.624 2.556 2.53 6 .937 3.442.937 7.564 0 4.12-.937 7.616-.906 3.443-2.53 5.999t-3.842 3.965q-2.186 1.408-4.84 1.408zm0-8.555q1.249 0 2.31-.73 1.094-.73 1.875-2.087.812-1.409 1.249-3.339.468-1.93.468-4.277 0-2.4-.468-4.278-.437-1.93-1.25-3.287-.78-1.408-1.873-2.139-1.062-.73-2.312-.73t-2.342.73q-1.062.73-1.874 2.14-.78 1.356-1.25 3.286-.436 1.878-.436 4.278 0 2.347.437 4.277.468 1.93 1.25 3.339.811 1.356 1.873 2.087 1.093.73 2.342.73zm15.397 7.825V10.846h9.994q2.998 0 5.153 1.617 2.187 1.617 3.373 4.695 1.187 3.026 1.187 7.2 0 4.12-1.187 7.146-1.186 2.974-3.373 4.59-2.155 1.566-5.153 1.566h-6.559l2.749-4.33v14.033zm13.523 0L125.21 34.06h6.59l5.466 13.303zm-7.34-12.937-2.748-4.748h6.184q1.937 0 2.874-1.408.968-1.409.968-3.913 0-2.556-.968-3.964-.937-1.409-2.874-1.409h-6.184l2.749-4.747zm21.27 12.937V19.036h-6.715v-8.19h19.582v8.19h-6.683v28.327z" aria-label="AIRPORT" style="font-weight:800;font-size:40.3643px;font-family:Montserrat;-inkscape-font-specification:&quot;Montserrat Ultra-Bold&quot;;opacity:.87;fill:#4d1f00;fill-opacity:1;stroke:#120d0a;stroke-width:.0649617;stroke-linejoin:round;stroke-opacity:.045;paint-order:stroke markers fill" transform="translate(-6.584 -10.402)"/><path d="M6.908 54.085h150.435c.073 0 .13.131.13.294v3.527c0 .163-.057.294-.13.294H6.908c-.072 0-.13-.131-.13-.294v-3.527c0-.163.058-.294.13-.294z" style="fill:url(#b);stroke:#000;stroke-width:0;paint-order:stroke markers fill" transform="translate(-6.584 -10.402)"/><path d="M190.84 54.599c.485.421.849.945.849 1.543 0 1.194-1.378 2.09-2.667 2.627-1.346.563-3.018.923-4.332.923h-6.411l-5.532 6.734c-.542.665-1.563 1.073-2.66 1.073h-3.585c-1.36 0-2.335-.9-1.965-1.81l2.469-5.997h-3.388l-2.45 2.27c-.382.36-.989.569-1.633.569h-2.68c-1.058 0-1.913-.595-1.913-1.331 0-.124.024-.249.076-.364l1.927-4.693-1.927-4.69a1 1 0 0 1-.076-.368c0-.736.855-1.33 1.914-1.33h2.679c.644 0 1.25.208 1.633.567l2.45 2.272h3.388l-2.47-5.998c-.369-.91.613-1.81 1.966-1.81h3.585c1.097 0 2.112.408 2.66 1.073l5.538 6.735h6.412c1.32 0 2.992.372 4.338.94.682.289 1.327.643 1.812 1.065zm-2.87.146c-1.104-.466-2.419-.736-3.273-.736h-6.999c-.364 0-.702-.138-.887-.36l-5.837-7.084.887-.351-.887.35c-.178-.221-.524-.359-.887-.359h-3.585l2.839 6.903c.09.213.024.444-.166.621-.192.178-.498.284-.817.284h-5.25c-.32 0-.626-.106-.817-.284l-2.756-2.555h-2.514l1.965 4.773q.075.196 0 .391l-1.965 4.773h2.514l2.756-2.555c.191-.177.497-.284.817-.284h5.25c.32 0 .625.107.817.284.19.177.255.408.166.621l-2.84 6.903h3.586c.364 0 .702-.137.887-.36l5.83-7.093c.186-.222.524-.359.888-.359h6.998c.868 0 2.182-.262 3.28-.719 1.154-.479 1.677-1.002 1.677-1.406 0-.182-.109-.4-.402-.657s-.733-.51-1.276-.74z" style="fill:#4d1f00;fill-opacity:1;stroke-width:16.05;stroke-dasharray:none" transform="translate(-6.584 -10.402)"/></svg>