<svg xmlns="http://www.w3.org/2000/svg" width="15" height="20" viewBox="0 0 384 512"><!--!Font Awesome Pro 6.7.2 by @fontawesome - https://fontawesome.com License - https://fontawesome.com/license (Commercial License) Copyright 2025 Fonticons, Inc.--><path fill="#050316" d="M80 48c-8.8 0-16 7.2-16 16v384c0 8.8 7.2 16 16 16h224c8.8 0 16-7.2 16-16V64c0-8.8-7.2-16-16-16zM16 64C16 28.7 44.7 0 80 0h224c35.3 0 64 28.7 64 64v384c0 35.3-28.7 64-64 64H80c-35.3 0-64-28.7-64-64zm144 336h64c8.8 0 16 7.2 16 16s-7.2 16-16 16h-64c-8.8 0-16-7.2-16-16s7.2-16 16-16"/></svg>