<svg xmlns="http://www.w3.org/2000/svg" width="234" height="235" fill="none"><path fill="#263238" d="M233.367 233.863c0 .277-52.245.5-116.678.5-64.455 0-116.689-.225-116.689-.5 0-.277 52.234-.5 116.689-.5 64.433 0 116.678.223 116.678.5"/><path fill="#E0E0E0" d="m210.584 76.684-.063 119.879a6.713 6.713 0 0 1-6.715 6.709l-177.879-.094a6.71 6.71 0 0 1-6.708-6.715l.063-119.88a6.71 6.71 0 0 1 6.716-6.709l177.877.094a6.71 6.71 0 0 1 6.709 6.716"/><path fill="#263238" d="M210.585 76.684q-.002-.002-.026-.414a3.3 3.3 0 0 0-.053-.511c-.032-.203-.059-.44-.138-.702-.119-.53-.366-1.169-.782-1.856a6.8 6.8 0 0 0-1.904-2.019c-.44-.292-.93-.575-1.489-.769a6.4 6.4 0 0 0-1.817-.394l-.495-.025h-.509l-1.051.001-2.239.001L189.36 70l-68.331-.003-47.186-.013-26.287-.008-13.747-.006-7.016-.002c-.59.001-1.177-.016-1.75.076-.58.067-1.14.253-1.68.47a6.65 6.65 0 0 0-2.708 2.174c-.187.227-.319.493-.478.74-.12.268-.273.523-.362.805-.226.546-.331 1.133-.406 1.718-.043.586-.03 1.19-.032 1.792l-.001 1.807-.003 7.282-.007 14.813-.013 30.553-.032 64.249c.011.678.109 1.352.303 2.001a7 7 0 0 0 .898 1.809c.378.561.868 1.039 1.397 1.454.53.416 1.131.742 1.766.965 1.266.511 2.653.381 4.014.401l4.082.002 47.857.027 59.856.038 54.162.038 9.418.007c.518.004 1.03.005 1.533-.052.502-.069 1.002-.171 1.473-.355 1.914-.676 3.42-2.285 4.033-4.171.077-.235.129-.478.193-.717.034-.245.083-.488.104-.733.035-.491.033-.99.031-1.487l.003-2.968.018-22.642.069-68.326.029-18.577.012-4.83c.005-1.09.013-1.647.013-1.647s.006.557.009 1.646l.007 4.83.01 18.577-.004 68.327-.005 22.642-.001 2.967c.002.497.005.995-.031 1.501-.022.252-.072.501-.107.751-.065.245-.118.494-.196.735-.628 1.932-2.169 3.581-4.13 4.275a6.6 6.6 0 0 1-1.51.364c-.518.059-1.039.058-1.552.054l-3.112-.001-6.306-.002-54.162-.019-59.856-.025-31.662-.016-16.195-.008-4.083-.002c-.683-.006-1.36.014-2.05-.015a6.4 6.4 0 0 1-2.033-.398 6.4 6.4 0 0 1-1.82-.995c-.546-.427-1.05-.92-1.44-1.498a7.2 7.2 0 0 1-.926-1.865 7.6 7.6 0 0 1-.313-2.063l.036-64.248.019-30.553.01-14.813q0-3.663.004-7.283l.001-1.807c.002-.602-.01-1.2.034-1.81.076-.601.186-1.205.418-1.766.092-.29.248-.553.373-.828.164-.255.3-.527.492-.762a6.85 6.85 0 0 1 2.786-2.234c.555-.223 1.13-.414 1.726-.483.594-.094 1.193-.076 1.778-.078l7.015.005 13.747.01 26.288.018 47.186.037 68.33.069 10.722.015 3.8.006.498.026a6.5 6.5 0 0 1 1.829.402 6.6 6.6 0 0 1 1.497.779 6.8 6.8 0 0 1 1.907 2.036c.416.693.659 1.336.776 1.868.077.262.102.5.133.704.037.203.044.375.048.513q.016.415.015.415"/><path fill="#fff" d="m32.507 74.33-.066 124.897 159.761.084.066-124.896z"/><path fill="#263238" d="M200.942 131.503a5.116 5.116 0 1 1-.007 10.231 5.116 5.116 0 0 1 .007-10.231"/><path fill="#F5F5F5" d="M170.259 169H48.186c-2.465 0-4.463-1.013-4.463-2.262v-6.476c0-1.249 1.998-2.262 4.463-2.262H170.26c2.465 0 4.464 1.013 4.464 2.262v6.476c-.001 1.249-1.999 2.262-4.464 2.262M170.964 105.561h-55.89a2.13 2.13 0 0 1-2.129-2.128v-6.094c0-1.175.953-2.128 2.129-2.128h55.89c1.176 0 2.129.953 2.129 2.129v6.093a2.13 2.13 0 0 1-2.129 2.128M172.384 126.114H46.8a2.13 2.13 0 0 1-2.128-2.129v-6.093c0-1.176.953-2.129 2.128-2.129h125.585c1.175 0 2.128.953 2.128 2.129v6.093a2.13 2.13 0 0 1-2.129 2.129M104.921 105.561H46.707a2.13 2.13 0 0 1-2.129-2.128v-6.094c0-1.175.953-2.128 2.129-2.128h58.214c1.176 0 2.129.953 2.129 2.129v6.093a2.13 2.13 0 0 1-2.129 2.128"/><path fill="#E0E0E0" d="M48.907 100.634v.705h-.288v-.711l-.81-1.329h.311l.653 1.075.655-1.075h.289zM49.652 100.567c0-.46.341-.787.804-.787s.802.327.802.787-.338.789-.802.789c-.463 0-.804-.329-.804-.789m1.323 0c0-.33-.221-.542-.519-.542-.297 0-.521.213-.521.542s.224.545.521.545.519-.216.519-.545M53.086 99.795v1.544h-.265v-.233a.63.63 0 0 1-.524.25c-.4 0-.664-.218-.664-.672v-.89h.28v.857c0 .303.15.455.416.455.291 0 .478-.181.478-.513v-.798zM54.451 99.78v.271q-.034-.002-.064-.002c-.3 0-.486.183-.486.521v.769h-.28v-1.544h.268v.26c.099-.182.291-.275.562-.275M57.394 99.3v2.039h-.239l-1.223-1.52v1.52h-.291v-2.04h.238l1.224 1.521V99.3zM59.187 100.406v.933h-.265v-.204c-.093.139-.265.221-.507.221-.35 0-.571-.187-.571-.454 0-.248.16-.452.62-.452h.443v-.055c0-.236-.137-.373-.414-.373a.78.78 0 0 0-.49.166l-.116-.21c.16-.128.39-.198.638-.198.423 0 .662.204.662.626m-.28.461v-.216h-.431c-.277 0-.355.108-.355.239 0 .155.128.251.34.251.21 0 .376-.096.446-.274M62.27 100.45v.889h-.28v-.856c0-.303-.145-.452-.399-.452-.28 0-.463.178-.463.513v.795h-.28v-.856c0-.303-.145-.451-.398-.451-.28 0-.464.177-.464.512v.796h-.279v-1.544h.268v.23c.11-.157.3-.244.533-.244.236 0 .434.093.536.285.117-.175.332-.285.594-.285.376-.002.632.214.632.668M64.184 100.66h-1.252c.035.271.253.452.56.452q.272 0 .445-.187l.154.181c-.14.163-.352.25-.608.25-.499 0-.83-.329-.83-.789 0-.458.329-.787.774-.787.446 0 .764.321.764.796 0 .023-.004.058-.007.084m-1.253-.201h.991a.48.48 0 0 0-.495-.443.48.48 0 0 0-.496.443"/><path fill="#263238" d="M55.69 90.53v2.038h-.311l-1.125-1.38v1.38h-.375V90.53h.312l1.124 1.38v-1.38zM57.507 91.656v.912h-.344v-.19c-.088.135-.257.21-.49.21-.355 0-.58-.195-.58-.466 0-.26.176-.463.647-.463h.402v-.024c0-.212-.128-.338-.387-.338a.77.77 0 0 0-.472.155l-.143-.265c.166-.129.408-.192.659-.192.448 0 .708.213.708.661m-.365.425v-.18h-.375c-.248 0-.315.094-.315.207 0 .13.111.215.298.215.177 0 .332-.081.392-.241M60.574 91.677v.891h-.364v-.845c0-.276-.128-.41-.35-.41-.238 0-.404.157-.404.465v.79h-.365v-.845c0-.276-.128-.41-.35-.41-.241 0-.404.157-.404.465v.79h-.364v-1.555h.346v.197a.65.65 0 0 1 .51-.215c.227 0 .416.084.524.259a.73.73 0 0 1 .583-.26c.376.001.638.214.638.683M62.514 91.907h-1.22c.043.227.233.373.504.373a.56.56 0 0 0 .422-.17l.195.225c-.14.166-.358.253-.626.253-.521 0-.86-.335-.86-.798 0-.464.342-.796.805-.796.454 0 .786.318.786.805 0 .03-.003.073-.006.108m-1.223-.242h.883a.423.423 0 0 0-.44-.379.43.43 0 0 0-.443.38M47.079 90.933v.504h.883v.355h-.884v.695h-.441v-1.91h1.443v.356zM48.27 90.578c0-.133.106-.237.264-.237s.265.099.265.23c0 .141-.106.245-.265.245-.158 0-.264-.105-.264-.238m.051.442h.426v1.467h-.426zM50.052 90.998v.393c-.036-.003-.063-.006-.096-.006-.235 0-.39.128-.39.41v.693h-.425V91.02h.406v.194c.104-.142.278-.216.505-.216M50.168 92.351l.142-.305c.13.084.33.141.51.141.196 0 .27-.051.27-.133 0-.24-.887.005-.887-.581 0-.279.251-.475.68-.475.201 0 .425.046.564.128l-.142.303a.85.85 0 0 0-.423-.11c-.191 0-.273.06-.273.137 0 .251.887.008.887.587 0 .273-.254.466-.693.466-.248 0-.498-.068-.635-.158M52.703 92.417a.6.6 0 0 1-.346.092c-.347 0-.548-.177-.548-.526v-.603h-.227v-.328h.227v-.357h.425v.358h.365v.327h-.365v.597c0 .126.068.194.183.194.062 0 .125-.02.171-.055z"/><path fill="#B85C08" d="m64.39 90.29-.332.438v.007l.528-.07v.237l-.528-.063v.007l.336.42-.22.126-.21-.49h-.008l-.227.494-.2-.126.333-.427v-.007l-.518.066v-.238l.514.067v-.007l-.328-.427.213-.123.217.487h.007l.214-.49z" style="fill:#e6b800;fill-opacity:1"/><path fill="#E0E0E0" d="M49.31 163.988v.705h-.29v-.711l-.81-1.329h.313l.652 1.075.656-1.075h.288zM50.055 163.921c0-.461.34-.787.804-.787.463 0 .8.326.8.787 0 .46-.337.79-.8.79-.464-.001-.804-.33-.804-.79m1.322 0c0-.329-.221-.542-.518-.542s-.522.213-.522.542.224.545.522.545c.297-.001.518-.216.518-.545M53.488 163.149v1.544h-.265v-.233a.63.63 0 0 1-.524.251c-.399 0-.664-.219-.664-.674v-.888h.28v.856c0 .303.151.455.416.455.291 0 .478-.181.478-.513v-.798zM54.854 163.134v.271q-.034-.004-.065-.003c-.3 0-.486.183-.486.521v.769h-.28v-1.544h.269v.259c.098-.18.29-.273.562-.273M57.796 162.653v2.04h-.238l-1.224-1.521v1.521h-.291v-2.04h.239l1.223 1.521v-1.521zM59.59 163.76v.932h-.266v-.204c-.093.14-.265.222-.507.222-.35 0-.57-.186-.57-.455 0-.247.16-.451.62-.451h.442v-.055c0-.236-.137-.373-.413-.373a.78.78 0 0 0-.49.166l-.116-.21c.16-.128.39-.198.637-.198.423 0 .662.204.662.626m-.28.461v-.216h-.432c-.276 0-.355.108-.355.239 0 .154.128.251.34.251.21 0 .377-.097.447-.274M62.672 163.804v.889h-.28v-.857c0-.303-.145-.451-.398-.451-.28 0-.463.178-.463.513v.795h-.28v-.857c0-.303-.146-.451-.399-.451-.28 0-.463.178-.463.513v.795h-.28v-1.544h.268v.23c.111-.157.3-.245.534-.245.236 0 .434.093.535.286.117-.175.333-.286.595-.286.375 0 .631.216.631.67M64.587 164.014h-1.252c.035.271.253.451.559.451.18 0 .332-.061.446-.186l.154.181c-.14.163-.353.251-.61.251-.497 0-.83-.33-.83-.79 0-.457.33-.787.776-.787.445 0 .763.321.763.795a1 1 0 0 1-.006.085m-1.252-.201h.99a.48.48 0 0 0-.495-.443.48.48 0 0 0-.495.443"/><path fill="#B85C08" d="m60.969 152.822-.333.437v.007l.529-.07v.238l-.529-.063v.007l.336.42-.22.126-.21-.49h-.007l-.228.493-.2-.125.333-.427v-.008l-.518.067v-.238l.515.067v-.008l-.33-.426.214-.123.217.486h.007l.214-.49z" style="fill:#e6b800;fill-opacity:1"/><path fill="#B85C08" d="m122.515 153.698-.332.437v.007l.528-.07v.238l-.528-.063v.007l.336.42-.221.126-.21-.49h-.007l-.227.494-.2-.126.333-.427v-.007l-.518.066v-.237l.514.066v-.007l-.328-.427.213-.122.217.486h.007l.214-.49z"/><path fill="#263238" d="M48.611 112.831v.317h-1.529v-2.039h1.489v.317h-1.11v.531h.984v.311h-.984v.563zM51.602 112.257v.891h-.364v-.845c0-.276-.129-.411-.35-.411-.239 0-.405.158-.405.467v.789h-.364v-.845c0-.276-.128-.411-.35-.411-.242 0-.405.158-.405.467v.789H49v-1.555h.346v.198a.64.64 0 0 1 .51-.216c.227 0 .417.084.525.259a.73.73 0 0 1 .582-.259c.377 0 .639.213.639.682M53.37 112.236v.912h-.344v-.189c-.087.134-.256.209-.49.209-.355 0-.579-.195-.579-.466 0-.259.175-.463.646-.463h.402v-.023c0-.213-.128-.338-.387-.338a.77.77 0 0 0-.472.154l-.143-.265c.166-.129.408-.192.659-.192.45 0 .708.213.708.661m-.364.426v-.181h-.376c-.247 0-.314.094-.314.207 0 .131.11.215.297.215.177 0 .332-.081.393-.241M53.79 111.118c0-.123.098-.219.232-.219s.233.09.233.21a.223.223 0 0 1-.233.227c-.134 0-.233-.096-.233-.218m.049.474h.364v1.556h-.364zM54.68 110.987h.364v2.161h-.364z"/><path fill="#E0E0E0" d="M49.31 121.554v.705h-.29v-.711l-.81-1.328h.313l.652 1.075.656-1.075h.288zM50.055 121.487c0-.46.34-.786.804-.786.463 0 .8.326.8.786s-.337.79-.8.79c-.464-.001-.804-.33-.804-.79m1.322 0c0-.329-.221-.542-.518-.542s-.522.213-.522.542.224.545.522.545c.297 0 .518-.216.518-.545M53.488 120.715v1.544h-.265v-.233a.63.63 0 0 1-.524.25c-.399 0-.664-.218-.664-.672v-.889h.28v.856c0 .303.151.455.416.455.291 0 .478-.181.478-.513v-.798zM54.854 120.7v.271q-.034-.004-.065-.003c-.3 0-.486.184-.486.522v.769h-.28v-1.544h.269v.259c.098-.18.29-.274.562-.274M57.523 122.005v.254h-1.48v-2.04h1.439v.254h-1.148v.626h1.023v.248h-1.023v.658zM60.516 121.37v.889h-.28v-.857c0-.303-.145-.451-.398-.451-.28 0-.464.177-.464.513v.795h-.279v-.857c0-.303-.146-.451-.399-.451-.28 0-.463.177-.463.513v.795h-.28v-1.544h.268v.23c.11-.157.3-.245.533-.245.236 0 .434.094.536.286.117-.175.332-.286.595-.286.375 0 .631.216.631.67M62.257 121.327v.932h-.265v-.204c-.094.14-.265.221-.507.221-.35 0-.57-.186-.57-.454 0-.247.16-.452.62-.452h.442v-.055c0-.236-.137-.373-.413-.373a.8.8 0 0 0-.49.166l-.116-.209c.16-.128.39-.198.637-.198.422-.001.662.203.662.626m-.28.46v-.216h-.431c-.277 0-.356.108-.356.239 0 .155.129.251.341.251.21 0 .376-.096.446-.274M62.727 120.237c0-.102.081-.183.189-.183s.19.079.19.178a.183.183 0 0 1-.19.187c-.108-.001-.19-.08-.19-.182m.05.478h.279v1.544h-.28zM63.59 120.097h.28v2.162h-.28z"/><path fill="#B85C08" d="m57.367 110.87-.332.438v.007l.528-.07v.237l-.528-.063v.007l.336.42-.22.126-.21-.49h-.008l-.228.494-.2-.126.333-.427v-.007l-.518.066v-.237l.515.066v-.007l-.329-.427.214-.122.217.486h.007l.213-.49zM73.285 132.026l-.332.438v.007l.528-.07v.238l-.528-.063v.007l.336.419-.22.126-.211-.489h-.007l-.228.493-.2-.126.333-.426v-.008l-.518.067v-.238l.515.066v-.007l-.329-.427.213-.122.218.486h.007l.213-.49z" style="fill:#e6b800;fill-opacity:1"/><path fill="#F5F5F5" d="M172.383 148.073H46.609a2.13 2.13 0 0 1-2.129-2.129v-6.093c0-1.176.953-2.129 2.129-2.129h125.774c1.176 0 2.129.953 2.129 2.129v6.093a2.13 2.13 0 0 1-2.129 2.129"/><path fill="#263238" d="M114.543 89.75h.379v1.718h1.066v.32h-1.445zM117.569 90.877v.911h-.344V91.6c-.088.134-.256.21-.489.21-.356 0-.58-.195-.58-.466 0-.26.175-.464.647-.464h.401v-.023c0-.213-.128-.338-.387-.338a.77.77 0 0 0-.472.154l-.142-.265c.166-.128.408-.192.658-.192.449 0 .708.213.708.661m-.364.425v-.18h-.376c-.247 0-.314.093-.314.206 0 .131.11.216.297.216.177 0 .332-.082.393-.242M117.859 91.634l.14-.277c.137.09.347.154.542.154.23 0 .326-.064.326-.171 0-.297-.961-.017-.961-.638 0-.294.265-.486.685-.486.206 0 .442.049.582.134l-.14.276a.85.85 0 0 0-.445-.116c-.221 0-.326.072-.326.174 0 .315.961.035.961.644 0 .291-.268.481-.705.481-.26 0-.519-.076-.659-.175M120.474 91.704a.57.57 0 0 1-.35.105c-.341 0-.536-.18-.536-.524v-.75h-.256v-.29h.256v-.356h.365v.356h.416v.29h-.416v.74c0 .152.075.234.215.234.076 0 .149-.02.204-.064zM123.425 89.75v2.038h-.312l-1.124-1.38v1.38h-.376V89.75h.312l1.124 1.38v-1.38zM125.241 90.877v.911h-.344V91.6c-.088.134-.256.21-.489.21-.356 0-.58-.195-.58-.466 0-.26.175-.464.647-.464h.401v-.023c0-.213-.128-.338-.387-.338a.77.77 0 0 0-.472.154l-.142-.265c.166-.128.407-.192.658-.192.448 0 .708.213.708.661m-.365.425v-.18h-.375c-.248 0-.315.093-.315.206 0 .131.111.216.297.216.178 0 .332-.082.393-.242M128.309 90.897v.891h-.364v-.844c0-.277-.129-.411-.35-.411-.239 0-.405.157-.405.466v.79h-.364v-.846c0-.276-.128-.41-.35-.41-.242 0-.405.157-.405.466v.79h-.364v-1.556h.347v.198a.65.65 0 0 1 .51-.216c.227 0 .416.084.524.26a.73.73 0 0 1 .583-.26c.375 0 .638.213.638.682M130.245 91.127h-1.221c.044.227.234.373.504.373a.56.56 0 0 0 .423-.17l.195.225c-.14.166-.358.253-.627.253-.521 0-.859-.335-.859-.798s.341-.795.804-.795c.454 0 .787.317.787.804 0 .03-.003.073-.006.108m-1.223-.242h.882a.423.423 0 0 0-.44-.379.43.43 0 0 0-.442.38"/><path fill="#E0E0E0" d="M118.149 100.634v.705h-.288v-.711l-.81-1.329h.311l.653 1.075.655-1.075h.288zM118.895 100.567c0-.46.34-.787.804-.787.463 0 .801.327.801.787s-.338.789-.801.789c-.464 0-.804-.329-.804-.789m1.322 0c0-.33-.221-.542-.518-.542s-.522.213-.522.542.224.545.522.545c.297 0 .518-.216.518-.545M122.329 99.795v1.544h-.266v-.233a.63.63 0 0 1-.524.25c-.399 0-.664-.218-.664-.672v-.89h.279v.857c0 .303.152.455.417.455.291 0 .478-.181.478-.513v-.798zM123.694 99.78v.271q-.035-.002-.065-.002c-.3 0-.486.183-.486.521v.769h-.28v-1.544h.268v.26c.1-.182.292-.275.563-.275M126.636 99.3v2.039h-.238l-1.224-1.52v1.52h-.291v-2.04h.239l1.223 1.521V99.3zM128.429 100.406v.933h-.265v-.204c-.093.139-.265.221-.507.221-.35 0-.571-.187-.571-.454 0-.248.16-.452.62-.452h.443v-.055c0-.236-.137-.373-.414-.373a.78.78 0 0 0-.489.166l-.116-.21c.16-.128.39-.198.638-.198.422 0 .661.204.661.626m-.28.461v-.216h-.431c-.277 0-.355.108-.355.239 0 .155.128.251.341.251.21 0 .376-.096.445-.274M131.513 100.45v.889h-.28v-.856c0-.303-.145-.452-.399-.452-.28 0-.463.178-.463.513v.795h-.28v-.856c0-.303-.145-.451-.399-.451-.279 0-.463.177-.463.512v.796h-.28v-1.544h.269v.23c.11-.157.3-.244.532-.244.236 0 .434.093.536.285.117-.175.333-.285.595-.285.376-.002.632.214.632.668M133.426 100.66h-1.252c.035.271.253.452.559.452a.58.58 0 0 0 .446-.187l.155.181c-.14.163-.353.25-.61.25-.498 0-.829-.329-.829-.789 0-.458.328-.787.775-.787.445 0 .762.321.762.796a1 1 0 0 1-.006.084m-1.252-.201h.99a.48.48 0 0 0-.495-.443.48.48 0 0 0-.495.443"/><path fill="#B85C08" d="m132.249 89.51-.332.438v.007l.528-.07v.238l-.528-.063v.007l.336.42-.22.125-.211-.49h-.007l-.227.494-.199-.126.332-.427v-.007l-.518.066v-.238l.515.067v-.007l-.329-.427.213-.123.217.487h.007l.214-.49z" style="fill:#e6b800;fill-opacity:1"/><path fill="#263238" d="M46.05 133.046c0-.609.467-1.049 1.093-1.049.332 0 .618.12.807.341l-.245.23a.71.71 0 0 0-.544-.239c-.423 0-.729.297-.729.717 0 .419.306.716.728.716a.71.71 0 0 0 .545-.242l.245.233c-.19.222-.475.341-.81.341-.623 0-1.09-.44-1.09-1.048M48.094 133.287c0-.466.35-.795.827-.795.484 0 .83.329.83.795 0 .467-.346.799-.83.799-.478 0-.827-.332-.827-.799m1.29 0c0-.297-.198-.486-.463-.486-.262 0-.46.189-.46.486 0 .298.198.487.46.487.265 0 .463-.189.463-.487M51.634 133.174v.891h-.364v-.845c0-.276-.138-.41-.37-.41-.26 0-.434.157-.434.468v.787h-.364v-1.556h.346v.201c.12-.142.309-.218.536-.218.373 0 .65.213.65.682M53.033 133.981a.57.57 0 0 1-.35.105c-.341 0-.536-.181-.536-.525v-.748h-.256v-.292h.256v-.355h.364v.355h.416v.292h-.416v.74c0 .151.076.233.216.233a.33.33 0 0 0 .204-.065zM54.636 133.153v.912h-.344v-.189c-.087.134-.256.21-.49.21-.355 0-.58-.196-.58-.467 0-.259.175-.463.647-.463h.402v-.023c0-.213-.128-.338-.387-.338a.77.77 0 0 0-.472.154l-.143-.265c.166-.128.408-.192.659-.192.448 0 .708.213.708.661m-.364.426v-.181h-.376c-.247 0-.314.094-.314.207 0 .131.11.216.297.216.177 0 .332-.082.393-.242M54.988 133.287c0-.466.35-.795.842-.795.303 0 .545.125.664.361l-.28.163a.44.44 0 0 0-.386-.215c-.269 0-.472.186-.472.486 0 .303.203.487.471.487a.44.44 0 0 0 .388-.216l.28.163c-.12.233-.362.364-.665.364-.492.001-.842-.331-.842-.798M57.767 133.981a.57.57 0 0 1-.35.105c-.34 0-.536-.181-.536-.525v-.748h-.256v-.292h.256v-.355h.364v.355h.417v.292h-.416v.74c0 .151.075.233.215.233a.33.33 0 0 0 .204-.065zM61.175 132.026v2.039h-.312l-1.124-1.38v1.38h-.376v-2.039h.312l1.124 1.381v-1.381zM63.197 132.51v1.555h-.346v-.198a.64.64 0 0 1-.501.219c-.4 0-.67-.219-.67-.688v-.888h.364v.839c0 .282.134.416.364.416.253 0 .425-.157.425-.468v-.787zM66.274 133.174v.891h-.365v-.845c0-.276-.128-.41-.35-.41-.238 0-.404.157-.404.466v.789h-.364v-.845c0-.276-.129-.41-.35-.41-.242 0-.405.157-.405.466v.789h-.364v-1.555h.346v.198a.64.64 0 0 1 .51-.216c.227 0 .417.084.524.259a.73.73 0 0 1 .583-.259c.376 0 .639.213.639.682M68.394 133.287c0 .484-.335.799-.79.799a.64.64 0 0 1-.515-.222v.201h-.347v-2.161h.364v.795c.126-.14.3-.207.499-.207.454 0 .79.312.79.795m-.37 0c0-.297-.198-.486-.46-.486s-.463.189-.463.486c0 .298.2.487.463.487.262 0 .46-.189.46-.487M70.198 133.404h-1.22c.043.227.232.373.504.373a.56.56 0 0 0 .422-.169l.195.224c-.14.166-.358.254-.627.254-.52 0-.859-.336-.859-.799s.341-.795.804-.795c.455 0 .787.318.787.804 0 .029-.003.073-.006.108m-1.224-.242h.883a.424.424 0 0 0-.44-.379.43.43 0 0 0-.443.379"/><path fill="#263238" d="M71.455 132.492v.347a.5.5 0 0 0-.085-.009c-.276 0-.451.163-.451.481v.754h-.364v-1.555h.346v.227c.105-.163.295-.245.554-.245" style="fill:#222;fill-opacity:1"/><path fill="#263238" d="M48.404 154.628h-1.02l-.2.472h-.391l.918-2.039h.372l.92 2.039h-.395zm-.125-.297-.384-.891-.382.891zM50.738 152.938v2.162h-.35v-.201a.64.64 0 0 1-.516.221c-.451 0-.786-.315-.786-.798s.335-.795.786-.795c.201 0 .379.067.501.209v-.798zm-.358 1.384c0-.297-.202-.486-.463-.486-.263 0-.464.189-.464.486s.201.486.464.486c.261.001.462-.189.462-.486M52.741 152.938v2.162h-.35v-.201a.64.64 0 0 1-.515.221c-.451 0-.786-.315-.786-.798s.335-.795.786-.795c.201 0 .379.067.501.209v-.798zm-.358 1.384c0-.297-.201-.486-.463-.486s-.463.189-.463.486.2.486.463.486c.262.001.463-.189.463-.486M54.12 153.527v.346a.5.5 0 0 0-.085-.008c-.277 0-.452.163-.452.48v.755h-.364v-1.556h.346v.227c.106-.163.295-.244.554-.244M55.87 154.439h-1.22c.043.227.232.372.503.372a.56.56 0 0 0 .423-.169l.195.224c-.14.166-.358.253-.627.253-.52 0-.859-.334-.859-.798 0-.463.341-.795.804-.795.455 0 .787.318.787.804 0 .03-.003.073-.006.109m-1.224-.242h.883a.423.423 0 0 0-.44-.379.43.43 0 0 0-.443.379M56.05 154.945l.14-.276c.137.09.347.154.542.154.23 0 .326-.064.326-.172 0-.297-.961-.017-.961-.638 0-.294.265-.486.684-.486.207 0 .443.049.583.134l-.14.277a.85.85 0 0 0-.445-.117c-.221 0-.326.073-.326.175 0 .314.96.034.96.644 0 .291-.267.48-.704.48-.26 0-.518-.076-.658-.175M57.55 154.945l.14-.276c.137.09.347.154.542.154.23 0 .326-.064.326-.172 0-.297-.961-.017-.961-.638 0-.294.265-.486.685-.486.206 0 .442.049.582.134l-.14.277a.85.85 0 0 0-.445-.117c-.221 0-.326.073-.326.175 0 .314.961.034.961.644 0 .291-.268.48-.705.48-.26 0-.519-.076-.658-.175"/><path fill="#B85C08" d="M91.059 190.714c-.002-.015.22.005.612-.112a2.12 2.12 0 0 0 1.285-1.146c.172-.351.201-.778.182-1.256a1902 1902 0 0 1-.023-5.318c-.001-.353.013-.702-.11-1.037a2.05 2.05 0 0 0-1.59-1.366c-.371-.057-.788-.021-1.195-.03l-5.246.009-12.02.008a2.03 2.03 0 0 0-2.02 1.849c-.019 1.021-.006 2.057-.01 3.058l-.003 2.96c-.021.482.055.937.306 1.324.237.384.602.682 1.017.833.411.171.866.122 1.32.131l1.331.002 2.547.005 4.57.013 6.619.032 1.8.02.467.01q.16.006.16.011a1 1 0 0 1-.159.011l-.468.01-1.799.019-6.619.033-8.448.02c-.227-.001-.45.004-.683-.003a2.1 2.1 0 0 1-.702-.136 2.2 2.2 0 0 1-1.114-.908c-.276-.413-.362-.945-.339-1.425l-.002-2.96c.003-1.009-.011-2.02.008-3.076a2.236 2.236 0 0 1 2.222-2.036l12.02.008 5.246.009c.412.012.808-.026 1.223.038a2.2 2.2 0 0 1 1.075.522c.298.261.512.599.63.958.13.36.112.742.11 1.084l-.023 5.319c.014.469-.023.933-.207 1.289a2.15 2.15 0 0 1-1.345 1.153c-.404.104-.625.071-.625.071" style="fill:#e6b800;fill-opacity:1"/><path fill="#B85C08" d="M74.977 185.688c0-.644.495-1.106 1.161-1.106.37 0 .679.134.88.379l-.317.293a.69.69 0 0 0-.539-.25c-.4 0-.684.281-.684.684s.284.685.684.685a.68.68 0 0 0 .539-.254l.318.294c-.202.247-.51.382-.884.382-.663 0-1.158-.462-1.158-1.107M77.137 185.936c0-.495.382-.847.905-.847.522 0 .901.352.901.847s-.379.846-.901.846c-.523 0-.905-.351-.905-.846m1.323 0c0-.285-.18-.455-.418-.455-.239 0-.422.171-.422.455s.183.455.422.455c.238 0 .418-.171.418-.455M80.943 185.817v.941h-.477v-.869c0-.265-.122-.388-.333-.388-.23 0-.395.141-.395.444v.813h-.476v-1.645h.455v.193a.72.72 0 0 1 .544-.217c.389 0 .682.226.682.728M82.431 186.678a.68.68 0 0 1-.388.104c-.388 0-.614-.198-.614-.59v-.675h-.253v-.367h.253v-.401h.477v.401h.41v.367h-.41v.669c0 .141.076.217.205.217a.32.32 0 0 0 .192-.061zM82.645 184.618c0-.15.12-.266.296-.266.177 0 .297.11.297.257 0 .159-.12.275-.297.275s-.297-.116-.297-.266m.058.495h.476v1.645h-.476zM85.302 185.817v.941h-.476v-.869c0-.265-.123-.388-.334-.388-.229 0-.394.141-.394.444v.813h-.477v-1.645h.456v.193a.72.72 0 0 1 .544-.217c.388 0 .681.226.681.728M87.388 185.113v1.645h-.452v-.196a.67.67 0 0 1-.51.22c-.413 0-.703-.232-.703-.74v-.929h.476v.859c0 .275.123.397.334.397.22 0 .379-.14.379-.443v-.813zM89.435 186.071h-1.244c.046.204.22.33.47.33.175 0 .3-.052.414-.159l.253.275c-.153.174-.382.266-.678.266-.569 0-.94-.358-.94-.847 0-.492.377-.846.878-.846.483 0 .856.324.856.852 0 .037-.005.089-.009.129m-1.25-.279h.81a.39.39 0 0 0-.404-.342.39.39 0 0 0-.406.342" style="fill:#222;fill-opacity:1"/><path fill="#B85C08" d="M63.958 190.714H45.85a2.13 2.13 0 0 1-2.128-2.128v-6.094c0-1.175.953-2.128 2.128-2.128h18.107c1.175 0 2.128.953 2.128 2.128v6.094a2.13 2.13 0 0 1-2.128 2.128" style="fill:#feb816;fill-opacity:1"/><path fill="#fff" d="m51.266 186.547.168-.373c.18.131.449.223.706.223.293 0 .413-.098.413-.229 0-.4-1.245-.125-1.245-.92 0-.364.294-.667.902-.667.27 0 .544.065.743.19l-.153.376a1.2 1.2 0 0 0-.593-.168c-.293 0-.406.11-.406.244 0 .394 1.243.122 1.243.908 0 .357-.296.663-.907.663-.34.001-.682-.1-.871-.247M54.804 185.82v.938h-.446v-.205c-.09.15-.26.23-.502.23-.385 0-.614-.214-.614-.499 0-.29.205-.492.707-.492h.379c0-.205-.122-.324-.38-.324a.8.8 0 0 0-.473.153l-.171-.333c.18-.129.446-.199.709-.199.5.001.79.232.79.731m-.477.418v-.168H54c-.223 0-.293.083-.293.193 0 .119.1.199.269.199.159 0 .296-.074.351-.224M56.838 185.113l-.694 1.645h-.492l-.691-1.645h.492l.455 1.119.471-1.119zM58.587 186.071h-1.244c.046.204.22.33.47.33.175 0 .3-.052.414-.159l.253.275c-.153.174-.382.266-.678.266-.568 0-.939-.358-.939-.847 0-.492.377-.846.878-.846.483 0 .856.324.856.852 0 .037-.007.089-.01.129m-1.25-.279h.81a.39.39 0 0 0-.403-.342.39.39 0 0 0-.407.342" style="fill:#222;fill-opacity:1"/><path fill="#E0E0E0" d="M49.981 143.279v.705h-.288v-.711l-.81-1.328h.311l.653 1.075.656-1.075h.288zM50.727 143.212c0-.46.34-.787.804-.787.462 0 .8.327.8.787s-.337.789-.8.789c-.464 0-.804-.329-.804-.789m1.322 0c0-.329-.221-.542-.518-.542s-.522.213-.522.542.224.544.522.544c.297 0 .518-.215.518-.544M54.16 142.44v1.544h-.265v-.234a.63.63 0 0 1-.524.251c-.399 0-.664-.219-.664-.673v-.888h.28v.856c0 .303.15.454.416.454.291 0 .478-.18.478-.512v-.799h.28zM55.526 142.425v.271q-.035-.004-.065-.003c-.3 0-.486.184-.486.522v.768h-.28v-1.543h.268v.259c.1-.18.292-.274.563-.274M58.468 141.945v2.039h-.239l-1.223-1.52v1.52h-.291v-2.039h.239l1.223 1.52v-1.52zM60.477 142.44v1.544h-.265v-.234a.63.63 0 0 1-.525.251c-.399 0-.664-.219-.664-.673v-.888h.28v.856c0 .303.151.454.417.454.29 0 .477-.18.477-.512v-.799h.28zM63.575 143.095v.889h-.28v-.857c0-.303-.146-.451-.399-.451-.28 0-.463.178-.463.513v.795h-.28v-.856c0-.303-.145-.452-.398-.452-.28 0-.464.178-.464.513v.795h-.28v-1.543h.269v.23c.11-.157.3-.245.533-.245.236 0 .434.093.536.286.116-.175.332-.286.594-.286.375-.001.632.215.632.669M65.69 143.212c0 .472-.33.789-.782.789a.65.65 0 0 1-.55-.262v.245h-.268v-2.161h.28v.85a.66.66 0 0 1 .538-.248c.452 0 .781.315.781.787m-.283 0c0-.329-.224-.542-.521-.542-.294 0-.519.213-.519.542s.224.544.519.544c.297 0 .521-.215.521-.544M67.47 143.305h-1.253c.035.271.253.451.56.451.18 0 .331-.061.445-.186l.154.18c-.14.163-.352.251-.608.251-.499 0-.83-.329-.83-.789 0-.457.329-.787.775-.787.445 0 .763.321.763.795 0 .024-.004.059-.007.085m-1.253-.201h.99a.48.48 0 0 0-.495-.443.48.48 0 0 0-.495.443M68.693 142.425v.271q-.034-.004-.064-.003c-.3 0-.486.184-.486.522v.768h-.28v-1.543h.268v.259c.099-.18.291-.274.562-.274"/><path fill="#B85C08" d="M192.312 74.167H32.391v9.788h159.921z" style="fill:#feb816;fill-opacity:1"/><path fill="#fff" d="M41.934 78.582v.647h1.134v.455h-1.134v.892h-.567v-2.45h1.851v.456zM43.422 79.352c0-.728.567-1.266 1.34-1.266.77 0 1.34.535 1.34 1.266s-.57 1.267-1.34 1.267c-.773 0-1.34-.54-1.34-1.267m2.107 0c0-.466-.33-.784-.767-.784s-.766.318-.766.784c0 .465.329.784.766.784.438 0 .767-.319.767-.784M48.088 80.577l-.473-.683h-.521v.683h-.567v-2.45h1.06c.655 0 1.064.34 1.064.89a.8.8 0 0 1-.504.773l.55.787zm-.532-1.988h-.462v.854h.462c.347 0 .521-.161.521-.427 0-.27-.174-.427-.521-.427M51.327 80.577l-.004-1.47-.72 1.21h-.256l-.717-1.179v1.439h-.532v-2.45h.468l.917 1.522.903-1.522h.466l.007 2.45z" style="fill:#222;fill-opacity:1"/><path fill="#263238" d="m192.264 74.415-159.76.007.092-.091-.055 124.883v.013l-.102-.102 159.76.102-.085.085zl.019 124.896v.085h-.085l-159.76-.067h-.102v-.115l.076-124.883v-.092h.092z"/><path fill="#B85C08" d="M200.86 110.961s-3.141-.506-4.967.954c-1.825 1.461-2.647 3.286-2.875 5.294s-1.679 9.768-1.679 9.768l-2.839-3.835-3.129 2.746s2.641 12.662 5.122 13.515c2.479.853 5.172-1.931 5.811-2.432.639-.502 4.556-26.01 4.556-26.01" style="fill:#feb816;fill-opacity:1"/><path fill="#B85C08" d="M199.798 110.879s-4.122 5.881-4.6 7.382-3.954 4.219-3.888 7.779c.037 2.035.255 3.749.434 4.844a7.5 7.5 0 0 1-.053 2.746l-1.609 7.759s1.024 1.774 3.548 2.046c2.524.273 8.958 1.792 13.235 0l3.07-1.501v-12.007l2.115-4.912 6.019-9.756s-3.074-2.128-5.941-3.048c-3.015-.967-7.89-1.052-12.33-1.332" style="fill:#feb816;fill-opacity:1"/><path fill="#263238" d="M190.4 139.84c-.006-.001.006-.095.037-.271l.141-.771.556-2.829c.102-.601.297-1.239.395-1.945l.083-.536.048-.557c.043-.376.028-.766.029-1.164-.027-.798-.18-1.622-.417-2.462-.223-.836-.516-1.731-.46-2.685.041-.948.333-1.835.675-2.643a17 17 0 0 1 1.187-2.24c.852-1.371 1.713-2.539 2.423-3.527l1.685-2.336.458-.636q.161-.218.171-.214.006.008-.139.236l-.429.656c-.378.566-.937 1.377-1.637 2.372-.695.998-1.544 2.173-2.383 3.54a17 17 0 0 0-1.164 2.221c-.336.799-.618 1.665-.657 2.577-.055.916.227 1.786.45 2.63.237.845.39 1.692.413 2.505-.004.405.009.802-.038 1.183l-.053.564-.089.542c-.106.712-.309 1.351-.42 1.949l-.614 2.814-.177.764q-.063.263-.074.263"/><path fill="#B85C08" d="M216.053 114.012s7.507 2.686 4.658 12.047c-2.269 7.454-6.932 16.348-9.882 16.525-1.532.091-3.202.034-4.243-.787-4.22-3.325-6.789-12.24-6.789-12.24l4.036-4.511 4.893 7.251c.55-.236 3.806-10.274 3.806-10.274s2.342-7.696 3.521-8.011" style="fill:#feb816;fill-opacity:1"/><path fill="#263238" d="M212.484 122.861a1 1 0 0 1-.052.18l-.18.514c-.168.464-.405 1.118-.705 1.941l-2.557 6.893-.061.162-.097-.144-4.903-7.243.158.014-.497.508-3.725 3.805.024-.099c.617 1.97 1.235 3.791 1.951 5.358a25 25 0 0 0 2.172 3.945c.703 1.055 1.383 1.804 1.836 2.326l.553.571q.188.197.183.206a2 2 0 0 1-.207-.181l-.577-.55c-.47-.51-1.169-1.25-1.89-2.301a24.4 24.4 0 0 1-2.224-3.945c-.73-1.571-1.361-3.401-1.984-5.368l-.018-.056.041-.043 3.719-3.81.496-.507.088-.09.07.104 4.881 7.257-.157.019 2.626-6.867.752-1.923.204-.505q.074-.173.08-.171"/><path fill="#B85C08" d="m194.223 221.167.5 7.627s-7.584 3.07-7.629 4.488l14.823-.438-.292-11.916z" style="fill:#feb816;fill-opacity:1"/><path fill="#E0E0E0" d="M199.287 228.016c.289.07.497.386.439.678a.58.58 0 0 1-.669.441c-.29-.065-.551-.438-.461-.721s.481-.514.747-.382"/><path fill="#263238" d="M201.942 233.368 201.91 232l-14.253.512s-.651.307-.563.77zM194.481 228.725c.005.073.367.095.73.317.369.213.562.521.628.49.066-.016-.055-.446-.499-.707-.442-.265-.877-.166-.859-.1M192.946 229.414c-.015.071.302.185.557.484.264.291.336.62.408.615.068.01.105-.416-.218-.781-.321-.369-.748-.387-.747-.318M192.115 231.301c.066.013.157-.351-.041-.742-.195-.392-.541-.539-.57-.477-.039.06.187.267.345.59.165.32.194.624.266.629M194.561 226.975c.033.065.362-.045.772-.029.41.007.733.135.769.072.04-.054-.279-.313-.762-.324-.483-.016-.816.225-.779.281"/><path fill="#B85C08" d="m207.881 221.314.435 7.631s-7.611 3.005-7.668 4.423l14.827-.311-.19-11.918z" style="fill:#feb816;fill-opacity:1"/><path fill="#E0E0E0" d="M212.885 228.206a.605.605 0 0 1 .433.682.58.58 0 0 1-.672.436c-.29-.067-.548-.442-.455-.725.093-.282.485-.51.749-.375"/><path fill="#263238" d="m215.492 233.368-.018-1.155-14.256.391s-.654.301-.57.764zM208.075 228.875c.004.072.366.097.727.323.367.216.558.525.624.495.066-.016-.051-.446-.493-.711-.44-.269-.876-.173-.858-.107M206.532 229.551c-.016.07.301.187.553.488.261.293.33.623.402.618.069.01.11-.415-.211-.783-.318-.371-.744-.392-.744-.323M205.687 231.43c.066.015.159-.349-.035-.742-.191-.394-.536-.543-.565-.482-.04.06.184.268.339.593.162.321.189.626.261.631M208.167 227.125c.032.065.362-.042.771-.023.41.011.732.142.768.079.041-.053-.276-.315-.759-.33-.482-.02-.817.218-.78.274M210.145 141.674s3.777 3.964 5.759 8.842 1.111 28.365 1.111 28.365l-.415 12.314s.597 10.586.14 18.129-.97 15.906-.97 15.906l-8.233.395-8.736-63.99 2.185 29.511c1.391 7.527 1.227 20.803.958 34.47l-8.721.009s-3.003-20.426-3.689-25.277c-.773-5.484-3.055-20.566-3.055-20.566s-1.757-14.431-1.147-22.206 5.243-18.646 5.396-19.103l18.62 3.354"/><path fill="#455A64" d="m211.093 139.606 2.185 5.811s16.234 22.649 15.762 24.536-9.319 9.201-11.914 8.022-9.319-6.016-11.56-10.853c-2.242-4.836-8.611-18.402-8.611-18.402l-2.006-3.775 2.241-1.533zM190.578 138.798c1.968 1.055 1.758 4.355 3.725 5.411-3.282 4.596-4.405 10.383-4.852 16.013s-.308 11.332-1.437 16.866l-4.075-.287a95.8 95.8 0 0 1 3.474-32.304 14.2 14.2 0 0 1 3.165-5.699" style="fill:#76522e;fill-opacity:1"/><path fill="#263238" d="M206.457 148.328c.007.025.402-.055 1.027-.236a22 22 0 0 0 2.39-.866 22 22 0 0 0 2.273-1.139c.561-.329.891-.561.877-.583-.015-.025-.37.163-.946.457s-1.378.69-2.284 1.08a39 39 0 0 1-2.354.915c-.61.215-.991.343-.983.372"/><path fill="#000" d="m216.987 165.571.393.028c-2.684 2.772-7.175 3.597-10.669 1.959-1.19-.558-2.372-1.59-2.319-2.904a23.96 23.96 0 0 0 12.595.917" opacity=".2"/><path fill="#455A64" d="M196.711 144.96c1.518-.278 4.431.516 5.498 1.631 1.066 1.115 1.706 2.565 2.231 4.015 1.139 3.144 1.949 6.626 4.42 8.878 2.325 2.119 5.629 2.687 8.738 3.165.085 1.149.071 2.516-.874 3.175-.279.194-.61.299-.938.389a15.4 15.4 0 0 1-2.825.502c-4.426.363-9.115-1.419-11.713-5.02-3.286-4.556-3.545-10.031-5.404-15.332" style="fill:#76522e;fill-opacity:1"/><path fill="#263238" d="M195.844 146.363q-.005.003.045.168l.15.484c.138.424.323 1.055.542 1.873.224.816.467 1.823.751 2.993.286 1.169.605 2.504 1.052 3.955.449 1.447 1.03 3.021 1.936 4.568.443.776.97 1.545 1.606 2.259a11.7 11.7 0 0 0 2.224 1.926c1.682 1.116 3.714 1.878 5.892 2.153 1.088.14 2.212.146 3.339.033a15.4 15.4 0 0 0 2.526-.491c.278-.079.564-.176.822-.341.265-.176.487-.415.635-.69a2.9 2.9 0 0 0 .291-.868c.105-.595.083-1.183.043-1.743l-.005-.079-.08-.012c-2.078-.32-4.112-.665-5.924-1.424-.901-.379-1.746-.853-2.463-1.455a9.1 9.1 0 0 1-1.806-2.048c-.977-1.503-1.548-3.124-2.071-4.621-.521-1.502-.963-2.92-1.552-4.141a9.8 9.8 0 0 0-.989-1.655 8 8 0 0 0-.577-.674 3.7 3.7 0 0 0-.664-.51c-.927-.551-1.825-.802-2.554-.962a7.1 7.1 0 0 0-1.708-.173c-.393.015-.593.073-.593.073.002.013.203-.032.594-.035.389-.001.967.04 1.692.208.719.168 1.61.43 2.512.979.225.137.441.305.639.5q.292.306.562.667c.356.484.68 1.034.964 1.641.574 1.211 1.008 2.627 1.523 4.134.518 1.501 1.084 3.136 2.071 4.666a9.3 9.3 0 0 0 1.838 2.095c.732.617 1.594 1.102 2.508 1.489 1.839.774 3.888 1.122 5.968 1.444l-.084-.092c.039.553.058 1.128-.042 1.692-.093.559-.351 1.116-.837 1.424-.466.286-1.05.389-1.595.526q-.83.186-1.666.276a14.5 14.5 0 0 1-3.293-.03c-2.147-.268-4.154-1.016-5.813-2.111a11.6 11.6 0 0 1-2.195-1.889 13 13 0 0 1-1.593-2.226c-.904-1.527-1.49-3.087-1.945-4.526-.454-1.442-.782-2.773-1.079-3.939a95 95 0 0 0-.785-2.987 31 31 0 0 0-.579-1.864l-.169-.479a1 1 0 0 0-.064-.161"/><path fill="#263238" d="M214.132 166.502c.063-.018-.425-.98-.282-2.242.12-1.266.794-2.107.736-2.137-.017-.015-.21.169-.427.537-.219.364-.44.927-.509 1.579a4 4 0 0 0 .173 1.65c.138.404.289.623.309.613"/><path fill="#263238" d="M214.023 163.676c-.003.056.773.153 1.735.218.962.064 1.744.071 1.748.016.004-.056-.773-.153-1.735-.218-.961-.064-1.744-.071-1.748-.016M213.695 164.942c-.001.055.807.118 1.804.139.998.02 1.807-.008 1.808-.064.001-.055-.807-.118-1.804-.138s-1.807.007-1.808.063"/><path fill="#455A64" d="M192.985 145.945c-2.718 2.454-3.734 6.344-3.635 10.004.1 3.661 1.164 7.215 1.981 10.784s1.391 7.315.513 10.87l3.485.499c2.845-3.012 4.293-7.292 3.862-11.413-.358-3.413-1.908-6.566-3.019-9.812-1.111-3.247-1.77-6.909-.37-10.042" style="fill:#76522e;fill-opacity:1"/><path fill="#263238" d="M195.802 146.835a1 1 0 0 0-.072.153l-.193.457a9.7 9.7 0 0 0-.466 1.851c-.121.822-.153 1.848-.032 3.025.121 1.178.408 2.502.852 3.925.447 1.424 1.054 2.941 1.662 4.584.6 1.643 1.217 3.425 1.484 5.377a14.3 14.3 0 0 1-.498 6.108 14.5 14.5 0 0 1-3.284 5.718l.088-.031-1.713-.245-1.772-.254.083.124c.551-2.254.523-4.542.258-6.685-.263-2.149-.756-4.176-1.222-6.094-.471-1.918-.917-3.736-1.199-5.461-.286-1.722-.41-3.349-.341-4.827.136-2.966 1.048-5.259 1.935-6.637.433-.702.868-1.176 1.152-1.502l.347-.351a1 1 0 0 0 .113-.125 1 1 0 0 0-.127.11l-.362.338c-.294.318-.741.787-1.187 1.489-.914 1.375-1.855 3.682-2.011 6.671-.078 1.49.039 3.128.319 4.86.277 1.734.718 3.56 1.183 5.478.461 1.919.947 3.939 1.205 6.075.26 2.128.285 4.391-.259 6.612l-.026.108.11.016 1.772.254 1.713.245.052.008.035-.038a14.7 14.7 0 0 0 3.325-5.8c.631-2.082.77-4.22.492-6.19-.276-1.975-.904-3.765-1.512-5.409-.616-1.643-1.229-3.155-1.683-4.569-.45-1.413-.744-2.727-.875-3.895-.13-1.167-.11-2.185-.001-3.003.107-.819.299-1.434.428-1.848l.173-.463c.039-.103.054-.159.054-.159"/><path fill="#263238" d="M192.414 174.798c.009.063 1.1-.143 2.434.042 1.335.173 2.334.659 2.359.6.011-.022-.224-.173-.638-.347a6.8 6.8 0 0 0-1.695-.452 6.9 6.9 0 0 0-1.753-.01c-.446.059-.712.142-.707.167"/><path fill="#263238" d="M194.439 178.011c.05.025.416-.593.818-1.38.402-.788.688-1.447.638-1.472s-.416.593-.818 1.38c-.402.788-.688 1.447-.638 1.472M192.62 177.752c.051.022.387-.642.752-1.483.364-.842.617-1.542.566-1.564s-.388.642-.752 1.484c-.364.84-.617 1.541-.566 1.563M197.619 144.807c.024.008.082-.076.11-.234.03-.156.017-.385-.081-.611a1.1 1.1 0 0 0-.39-.479c-.134-.087-.234-.103-.245-.08-.027.051.287.244.45.639.175.389.101.749.156.765"/><path fill="#455A64" d="M193.091 143.957c.471-.739 1.585-.989 2.456-1.093 1.066-.092 2.097.817 2.2 1.882.103 1.066-.68 2.128-1.714 2.407s-2.207-.208-2.799-1.1c-.41-.617-.54-1.471-.143-2.096" style="fill:#76522e;fill-opacity:1"/><path fill="#263238" d="M195.046 143.276c-.013-.016-.246.151-.464.548a2.38 2.38 0 0 0-.205 1.719 2.38 2.38 0 0 0 1.038 1.386c.387.236.672.263.676.243.011-.033-.253-.11-.597-.361-.34-.245-.754-.7-.922-1.32a2.46 2.46 0 0 1 .139-1.604c.171-.39.361-.588.335-.611M193.309 143.679c-.017-.015-.152.107-.28.365a2.07 2.07 0 0 0-.182 1.099c.048.442.228.814.408 1.038.179.226.336.316.351.298.021-.024-.097-.149-.233-.379a2.4 2.4 0 0 1-.325-.978 2.5 2.5 0 0 1 .113-1.024c.086-.253.175-.401.148-.419"/><path fill="#000" d="M193.04 145.941c.691.798 1.595 1.141 2.649 1.206-.205.473-.856.915-1.37.948a1.44 1.44 0 0 1-1.299-.686 1.44 1.44 0 0 1 .02-1.468M205.445 149.355c.358-.442.921-.655 1.456-.848 2.019-.729 4.196-1.976 6.216-2.705-1.842 1.634-3.837 3.561-5.95 4.824-.51.305-1.177.595-1.661.25-.463-.33-.419-1.079-.061-1.521M188.722 152.986c.314-2.425 1.435-4.818 3.392-6.284-1.052 1.915-2.116 3.864-2.586 5.999-.515 2.345-.137 3.844.097 6.233l-.227 1.179c-.659-2.355-.991-4.702-.676-7.127" opacity=".2"/><path fill="#263238" d="M206.536 151.033c.007.012.118-.044.313-.154.196-.109.472-.279.807-.498a24.495 24.495 0 0 0 4.725-4.081c.266-.3.474-.548.611-.725s.208-.279.197-.288c-.023-.02-.357.344-.912.915a37 37 0 0 1-2.26 2.137 37 37 0 0 1-2.442 1.924c-.647.467-1.055.744-1.039.77"/><path fill="#263238" d="M196.563 92.378c-.586-1.047-.222-2.452.645-3.282s2.125-1.147 3.324-1.114c1.2.034 2.365.381 3.515.726.857-1.118 2.366-1.695 3.75-1.433 1.384.261 2.578 1.348 2.969 2.702a2.49 2.49 0 0 1 2.479.413c.668.572.985 1.527.791 2.385l-5.08 2.56-4.487 10.981c-1.511 1.671-4.296 1.992-6.148.709s-2.53-4.002-1.498-6.005a4 4 0 0 1-.947-.904c-.996-.45-1.832-1.245-2.209-2.275-.797-2.183.643-4.899 2.896-5.463" style="fill:#050316;fill-opacity:1"/><path fill="#9F7362" d="M202.887 112.194c.115-1.707.163-1.831.161-1.818 0 0-3.297-.815-3.649-5.227-.175-2.194.21-5.74.62-8.63.368-2.602 2.35-5.675 4.934-5.196l7.974 2.69c.785.145 1.009.836.931 1.63l.037.378-1.352 12.452-.417 3.739c-.248 2.366-2.374 4.774-4.753 4.739-2.633-.04-4.662-2.13-4.486-4.757"/><path fill="#263238" d="M200.851 100.502a.56.56 0 0 0 .495.606.536.536 0 0 0 .616-.459.56.56 0 0 0-.495-.606.537.537 0 0 0-.616.459M200.749 98.87c.064.078.512-.203 1.113-.154.602.04 1.019.384 1.09.315.034-.03-.026-.167-.207-.322a1.54 1.54 0 0 0-.865-.342 1.48 1.48 0 0 0-.893.213c-.196.127-.269.255-.238.29M206.035 100.804a.56.56 0 0 0 .494.606.537.537 0 0 0 .616-.459.56.56 0 0 0-.495-.606.536.536 0 0 0-.615.459M206.503 99.202c.064.079.512-.202 1.113-.153.601.04 1.019.383 1.09.314.034-.03-.026-.167-.207-.322a1.54 1.54 0 0 0-1.759-.13c-.195.129-.268.256-.237.291M204.019 103.291c.006-.034-.363-.128-.963-.253-.152-.028-.295-.07-.313-.176-.027-.114.05-.275.138-.447l.546-1.134c.76-1.616 1.323-2.95 1.258-2.98s-.735 1.255-1.495 2.871l-.527 1.143c-.072.17-.187.36-.127.596.033.118.139.21.236.244.096.038.182.046.258.057.606.081.984.113.989.079"/><path fill="#65463C" d="M203.049 110.376s2.917.417 5.958-1.103c0 0-1.712 2.962-6.042 2.214z"/><path fill="#263238" d="M206.624 97.57c.061.163.663.081 1.371.161.71.066 1.283.269 1.375.12.042-.07-.059-.224-.291-.381a2.3 2.3 0 0 0-1.022-.349 2.3 2.3 0 0 0-1.07.135c-.259.107-.389.237-.363.314M200.87 97.113c.114.147.616.043 1.206.082.591.022 1.081.177 1.207.043.056-.066-.012-.209-.22-.355-.205-.145-.557-.278-.962-.3-.406-.02-.767.076-.983.2-.219.124-.298.26-.248.33"/><path fill="#263238" d="M210.717 91.432a3.04 3.04 0 0 1-1.242 2.217 3.03 3.03 0 0 1-2.499.461c-.657-.172-1.361-.564-1.965-.253-.634.328-.728 1.24-1.302 1.665-.818.61-1.993-.109-2.991.106-.77.167-1.295.851-1.841 1.419-.547.568-1.34 1.087-2.076.806.099-.673.2-1.354.451-1.987.25-.633.668-1.224 1.265-1.551.327-.18.699-.276 1.006-.488.664-.457.875-1.325 1.315-2a3.28 3.28 0 0 1 2.615-1.464c.864-.023 1.728.302 2.58.154.629-.109 1.199-.47 1.834-.54 1.237-.14 2.304.82 3.122 1.758" style="fill:#050316;fill-opacity:1"/><path fill="#263238" d="M206.683 92.871c.558-.115 1.703-.384 2.032-.836.715-.982 1.89-1.6 3.032-1.45s2.174 1.138 2.317 2.367c1.387.115 2.675 1.09 3.241 2.451.567 1.362.389 3.056-.447 4.265-.219.316-.525 1.019-.525 1.019s.589.567.839.972c1.158 1.875-1.186 2.955-1.186 2.955.167 1.34-1.067 1.494-1.86 1.593-.762.095-.957 2.267-1.584 2.265l-.22-6.603a.8.8 0 0 1-.282.089c-1.489.221-1.466-2.654-1.077-3.447-.494-.51-.994-1.028-1.353-1.656-.359-.629-.592-2.285-.45-3.012-.53-.009-2.722-.921-2.477-.972" style="fill:#050316;fill-opacity:1"/><path fill="#9F7362" d="M212.143 102.244c.117-.924 1.174-1.467 1.943-.941.422.288.721.827.605 1.809-.307 2.617-2.871 1.769-2.867 1.694.003-.048.183-1.481.319-2.562"/><path fill="#65463C" d="M212.742 103.907c.012-.007.042.037.115.082a.46.46 0 0 0 .339.047c.289-.069.573-.481.641-.951.035-.238.011-.47-.051-.668-.057-.201-.165-.35-.302-.39a.23.23 0 0 0-.284.093c-.043.069-.033.123-.047.126-.008.006-.051-.05-.017-.156a.3.3 0 0 1 .122-.152.35.35 0 0 1 .26-.037c.2.038.36.245.429.462.079.219.111.481.072.748-.079.526-.406.987-.797 1.052a.49.49 0 0 1-.409-.118c-.074-.074-.081-.134-.071-.138"/><path fill="#455A64" d="M198.088 100.466c.013-.021-.253-.147-.627-.5a3.75 3.75 0 0 1-1.047-1.867 3.7 3.7 0 0 1-.049-1.478 3.2 3.2 0 0 1 .719-1.516c.771-.908 2.17-1.464 3.528-1.174.124.022.241.067.36.1.115.041.224.092.332.135l.168.068-.021-.174a1.3 1.3 0 0 1 .211-.87c.169-.253.403-.46.66-.613.522-.316 1.115-.397 1.674-.343 1.119.106 2.106.483 2.989.47.877-.002 1.566-.31 1.913-.65.181-.165.273-.334.334-.444q.075-.177.066-.181c-.022-.014-.095.258-.451.568-.348.308-1.014.582-1.86.566-.421-.008-.88-.098-1.372-.21-.492-.11-1.022-.251-1.603-.304a3.4 3.4 0 0 0-.901.026c-.307.056-.61.167-.89.33a2.25 2.25 0 0 0-.729.675c-.194.283-.288.65-.245 1.007l.147-.106c-.115-.047-.232-.1-.355-.145-.126-.035-.251-.082-.382-.106-1.445-.306-2.908.285-3.718 1.252a3.3 3.3 0 0 0-.743 1.61 3.8 3.8 0 0 0 .076 1.543c.234.926.741 1.55 1.135 1.891.199.172.368.288.491.351q.184.098.19.089M197.45 91.498c.018.026.243-.235.779-.386.265-.07.606-.113.981-.038a1.93 1.93 0 0 1 1.092.596l.115.127.039-.166c.208-.89 1.034-1.82 2.17-2.095.853-.212 1.691.076 2.396.368.71.3 1.361.6 1.953.71.587.123 1.086.08 1.406-.018.161-.05.279-.104.355-.148q.114-.068.109-.078c-.009-.017-.169.075-.484.149-.314.07-.791.09-1.355-.048-.569-.124-1.194-.427-1.911-.743-.36-.152-.747-.306-1.173-.395a3 3 0 0 0-1.345.002c-1.22.297-2.089 1.295-2.296 2.255l.154-.039a2.05 2.05 0 0 0-1.201-.62 2.2 2.2 0 0 0-1.035.082c-.276.092-.468.219-.587.316-.116.1-.168.163-.162.169"/><path fill="#65463C" d="M204.398 104.561c.156-.195.416-.286.666-.29.235-.004.547.166.726.398q.007.006.012.014.014.015.026.029l-.01-.005c.065.082.11.183.112.287.005.236-.146.454-.342.586-.311.21-.758.219-1.051-.015-.293-.235-.373-.711-.139-1.004"/><path fill="#263238" d="M205.951 104.069c-.034-.009-.086.129-.217.311a1.5 1.5 0 0 1-.658.525 1.5 1.5 0 0 1-.841.056c-.219-.046-.35-.112-.37-.083-.017.023.086.145.321.242.23.097.602.147.975.004a1.35 1.35 0 0 0 .717-.66c.107-.23.102-.39.073-.395M216.033 96.84a.6.6 0 0 0 .116-.086c.07-.063.175-.156.294-.291.234-.268.56-.704.707-1.344.07-.318.085-.686-.002-1.061a2.2 2.2 0 0 0-.587-1.07 1.74 1.74 0 0 0-1.245-.502c-.474 0-.987.195-1.299.615l.122.063.009-.028c.323-.937.322-1.96-.075-2.744-.384-.786-1.108-1.276-1.766-1.349a1.94 1.94 0 0 0-1.455.412c-.142.116-.226.232-.282.309a.6.6 0 0 0-.07.128c.014.01.104-.177.386-.394.275-.211.78-.442 1.409-.358.621.08 1.304.554 1.665 1.308.371.749.371 1.733.057 2.644l-.009.027-.132.406.254-.342c.278-.377.747-.56 1.188-.562.446-.01.864.172 1.155.459.296.284.477.649.564 1.004.088.357.08.707.018 1.014a3.1 3.1 0 0 1-.653 1.33c-.225.275-.378.402-.369.412"/><path fill="#263238" d="m178.466 120.906 2.541 9.599c.141.532.627.899 1.178.889l13.157-.259a1.193 1.193 0 0 0 1.145-1.439l-1.938-9.194a1.19 1.19 0 0 0-1.168-.947h-13.874a1.075 1.075 0 0 0-1.041 1.351" style="fill:#050316;fill-opacity:1"/><path fill="#9F7362" d="M177.359 123.074c-.29-.318-.264-.846-.006-1.191s.699-.517 1.129-.533.854.107 1.256.26c.496.19.974.428 1.424.711.318.199.647.459.71.829s-.341.793-.667.607c.424.179.852.627.919 1.095.068.469-.182.721-.636.856.346.134.566.567.408.903-.166.352-.652.448-1.015.309-.364-.139-.633-.446-.886-.742.259.444.351.983.253 1.487a2.91 2.91 0 0 1-1.902-2.336c-.492-.369-.656-1.112-.366-1.654-.404-.126-.861-.742-.83-1.164"/><path fill="#65463C" d="M181.479 125.712c-.011.013-.169-.125-.433-.331-.264-.2-.648-.478-1.142-.584a1.55 1.55 0 0 0-.694.001c-.209.052-.382.15-.507.253-.254.212-.311.426-.33.416-.006-.001 0-.055.039-.144.037-.088.113-.211.24-.33a1.3 1.3 0 0 1 .533-.293c.224-.062.484-.065.743-.01.523.113.913.413 1.168.631.254.224.392.381.383.391M181.37 123.803c-.007.014-.211-.065-.526-.22-.159-.075-.346-.167-.561-.245a5 5 0 0 0-.72-.186 2.1 2.1 0 0 0-.732-.007 1.34 1.34 0 0 0-.542.235c-.277.207-.335.434-.354.423-.005-.002.001-.058.042-.15a1 1 0 0 1 .264-.334c.139-.116.334-.222.57-.273s.501-.049.77-.002q.403.073.738.2c.22.086.405.186.56.27.306.173.496.275.491.289"/><path fill="#fff" d="m187.119 124.196.073-.012a.67.67 0 0 1 .702.563.67.67 0 0 1-.542.717.67.67 0 0 1-.733-.521.67.67 0 0 1 .5-.747"/><path fill="#9F7362" d="M199.903 120.895s-1.395-2.723-1.808-2.563-.953.169-.689 1.199c.264 1.029.949 1.738.909 2.546s-.673 2.621.03 3.465c.703.845 1.891 3.386 1.891 3.386l3.092-3.149-.691-1.015s1.159-1.607 1.385-2.541-.114-2.255-.114-2.255.083-.779-.337-1.376c0 0 .075-.617.062-1.248-.014-.63-1.641-3.23-1.641-3.23s-.825.319-.553 1.188c.272.868.64 1.606.64 1.606l-1.899-.724s-.495.921.513 1.465c1.008.545 1.166 1.003 1.166 1.003l-1.445.108s-.134.803.445.967l.579.163z"/><path fill="#65463C" d="m200.746 119.684 1.302.28.021.005.009.019c.145.308.287.705.254 1.158-.031.451-.249.915-.601 1.286-.395.396-.883.609-1.292.828-.413.214-.766.444-.991.71-.228.264-.33.536-.362.727-.035.192-.012.302-.024.303q-.006 0-.019-.078a1 1 0 0 1-.001-.232c.019-.199.114-.49.344-.772.227-.286.59-.531 1.004-.751.41-.225.886-.44 1.26-.816.331-.349.543-.793.575-1.214.036-.425-.091-.808-.225-1.113l.029.024c-.798-.191-1.292-.334-1.283-.364M203.6 119.857c-.019.004-.046-.123-.135-.305a1.3 1.3 0 0 0-.532-.555 2.7 2.7 0 0 0-.746-.264c-.201-.043-.329-.064-.328-.081.002-.014.132-.022.341.001.208.026.503.081.79.245.143.082.265.186.358.295.093.11.152.227.191.326.075.203.073.337.061.338M203.432 118.253c-.03.017-.247-.348-.616-.707-.366-.363-.735-.574-.718-.604.011-.027.417.145.798.522.384.374.563.777.536.789"/><path fill="#5D5D5D" d="M175.184 62.384q-5.184 0-9.28-2.752-4.032-2.752-6.336-7.872-2.24-5.184-2.24-12.16t2.24-12.096q2.304-5.184 6.336-7.936 4.096-2.752 9.28-2.752t9.216 2.752q4.096 2.752 6.4 7.936 2.304 5.12 2.304 12.096T190.8 51.76q-2.304 5.12-6.4 7.872-4.032 2.752-9.216 2.752m0-4.224q3.904 0 6.848-2.176 3.008-2.176 4.672-6.336t1.664-10.048-1.664-10.048-4.672-6.336q-2.944-2.175-6.848-2.176-3.905 0-6.912 2.176-2.945 2.176-4.608 6.336Q162 33.712 162 39.6t1.664 10.048 4.608 6.336q3.007 2.176 6.912 2.176m54.986-.256V62h-31.424v-3.264l18.624-18.24q3.52-3.456 4.736-5.952 1.28-2.56 1.28-5.12 0-3.967-2.752-6.144-2.688-2.24-7.744-2.24-7.872 0-12.224 4.992l-3.264-2.816q2.624-3.072 6.656-4.736 4.096-1.665 9.216-1.664 6.848 0 10.816 3.264 4.032 3.2 4.032 8.832 0 3.456-1.536 6.656t-5.824 7.36L205.53 57.904z" opacity=".2"/></svg>