<svg xmlns="http://www.w3.org/2000/svg" width="318" height="241" fill="none"><path fill="#5D5D5D" d="M232.184 68.384q-5.184 0-9.28-2.752-4.032-2.752-6.336-7.872-2.24-5.184-2.24-12.16t2.24-12.096q2.304-5.184 6.336-7.936 4.096-2.752 9.28-2.752t9.216 2.752q4.096 2.752 6.4 7.936 2.304 5.12 2.304 12.096T247.8 57.76q-2.304 5.12-6.4 7.872-4.032 2.752-9.216 2.752m0-4.224q3.904 0 6.848-2.176 3.008-2.176 4.672-6.336t1.664-10.048-1.664-10.048-4.672-6.336q-2.944-2.175-6.848-2.176-3.905 0-6.912 2.176-2.945 2.176-4.608 6.336Q219 39.712 219 45.6t1.664 10.048 4.608 6.336q3.007 2.176 6.912 2.176m36.81-40.96V68h-4.608V27.296h-10.56V23.2z" opacity=".2"/><path fill="#263238" d="M276.367 239.5c0 .277-52.245.5-116.678.5C95.234 240 43 239.775 43 239.5c0-.277 52.234-.5 116.689-.5 64.433 0 116.678.223 116.678.5"/><path fill="#38303B" d="M165.144 98.623c-1.599-3.69-6.428-5.643-10.359-4.794s-7.043 4.097-8.557 7.823c-1.309 3.217-1.58 6.762-2.667 10.06a21.3 21.3 0 0 1-4.438 7.613c-1.817 2.002-4.035 3.68-5.444 5.987-1.83 2.997-2.044 6.919-.552 10.098s4.647 5.519 8.122 6.025c3.644.532 7.451-.829 10.997.164 1.802.504 3.429 1.597 5.28 1.871 3.197.475 6.372-1.735 7.765-4.651s1.28-6.35.527-9.493c-.816-3.406-2.348-6.679-2.49-10.179-.158-3.877.78-6.435 1.122-10.301.3-3.391 2.947-5.024.694-10.223"/><path fill="#F7B094" d="m170.686 235.293-.286-3.973c-.037-.519-.09-1.074-.45-1.476-.631-.704-1.833-.592-2.822-.417-.356.063-.744.143-.969.402-.281.325-.195.787-.094 1.186l1.354 5.36"/><path fill="#38303B" d="m180.398 240.294-6.852.094c-.743.011-6.638-.212-7.487-.214-.281 0-.589-.011-.796-.201-.244-.222-.25-.597-.227-.925.09-1.3.357-2.588.79-3.818.099-.279.243-.591.528-.672.262-.075.529.078.763.217.949.563 1.014.56 2.159.336.282-.055 1.379-.387 1.646-.49.296-.114.627-.056.937.009a31 31 0 0 1 7.72 2.712c.554.282 1.124.603 1.444 1.135s.276 1.333-.251 1.66"/><path fill="#F7B094" d="m117.43 225.708 3.27-2.275c.427-.297.892-.604 1.452-.547.983.099 1.733 1.212 2.284 2.181.199.348.406.735.362 1.095-.054.45-.472.668-.851.834l-5.084 2.231"/><path fill="#38303B" d="M119.86 239.795c-1.175-2.128-2.135-3.873-3.309-6.001-.359-.651-2.937-5.957-3.335-6.708-.131-.248-.266-.525-.197-.796.081-.32.409-.502.71-.636a14.5 14.5 0 0 1 3.74-1.099c.293-.045.635-.065.842.148.189.197.18.504.167.777-.05 1.102-.016 1.158.72 2.063.181.222.99 1.034 1.207 1.221.24.207.344.528.433.831a31 31 0 0 1 1.24 8.088c.012.621-.004 1.276-.322 1.809-.319.532-1.046.871-1.583.559"/><path fill="#2E3C87" d="M151.251 171.712c4.165 18.833 7.883 38.606 13.637 56.949.457 1.458 1.111 3.965 1.803 4.063.967.136 1.799.021 2.715-.144a1.467 1.467 0 0 0 1.214-1.576c-2.615-27.772-1.883-55.733-8.06-82.845-.218-.959-12.56.402-12.56.402" style="fill:#2e3c87;fill-opacity:.93000001"/><path fill="#415299" d="M121.949 227.163a.84.84 0 0 0 1.167.487c6.618-3.336 12.453-9 17.337-16.063 7.172-10.369 11.59-18.597 15.573-30.926 3.062-9.481 5.658-19.43 4.809-29.413a128 128 0 0 0-13.584 1.553c-.919.155-1.132.222-1.791.932-.631.68-.979 2.453-1.15 3.396-1.942 10.693-2.298 21.155-4.603 31.766-2.786 12.828-8.787 26.213-18.589 34.102a.84.84 0 0 0-.273.927z" style="fill:#415299;fill-opacity:.93000001"/><path fill="#B85C08" d="m141.914 161.738.493 2.35c.183.875 1.109 1.525 2.207 1.545q10.036.188 20.075.157c.536-.001 1.127-.02 1.519-.316.334-.252.434-.641.518-1.004l.71-3.092" style="fill:#e6b800;fill-opacity:1"/><path fill="#F7B094" d="M173.312 159.094c.729 1.214 3.335 6.42 3.667 7.772.359 1.463.495 3.026 1.242 4.34.145.256.652.162.756-.133a5 5 0 0 0 .299-1.634c.004-.31.513-.477.739-.246.168.172.289.396.377.604.548 1.299 1.179 2.255 1.727 3.553.232.549.582 1.384.96 1.863.178.225.378.015.385-.266.005-.243-.184-1.163-.127-1.056.13.238.614.165.607-.274-.03-1.855-.67-4.229-1.216-5.45-1.373-3.073-5.089-7.102-6.413-10.352"/><path fill="#B85C08" d="M158.668 133.308c2.841 9.074 7.707 18.21 14.109 26.487.691.894 1.186 1.618 2.102 1.567 1.284-.071 3.418-.757 2.828-2.125-2.789-6.46-6.699-13.93-7.488-20.253-.356-2.851-.504-5.666-1.197-8.574s-1.926-6.273-4.264-8.511" style="fill:#76522e;fill-opacity:1"/><path fill="#D26C0D" d="M144.286 164.082c-1.446.02-2.562-1.413-2.771-2.844s1.428-4.512 1.214-6.011c-.304-2.12-2.261-20.915 1.976-31.136.965-2.328 2.574-4.659 5.015-5.285 1.291-.332 2.648-.141 3.978-.08 2.773.127 5.714-.287 8.196.957 4.23 2.12 4.962 7.74 5.15 12.469l.472 11.833c.196 4.915 1.868 9.424.353 13.362-.446 1.159 1.112 4.51.303 5.452-.902 1.051-3.28.652-4.665.688q-8.57.226-17.14.45" style="fill:#feb816;fill-opacity:1"/><path fill="#38303B" d="m168.952 129.762-.492-.492a.35.35 0 0 1 0-.489l8.212-8.211a.345.345 0 0 1 .488 0l.492.492a.345.345 0 0 1 0 .488l-8.211 8.212a.35.35 0 0 1-.489 0"/><path fill="#B85C08" d="M154.928 151.055c-1.268 1.045-4.59 2.745-5.949 3.669-1.016.691-2.765-.041-4.196-1.63-.988-1.097-1.746-3.29-2.155-4.708-.773-2.678-1.036-6.381-1.112-9.64-.1-4.3.439-8.183.893-11.319s2.765-7.338 5.055-8.182c3.293-1.212 4.711.174 5.103 5.038.281 3.482-.555 6.425-1.18 12.307-.283 2.661-.632 7.432-.632 7.432z" style="fill:#76522e;fill-opacity:1"/><path fill="#F7B094" d="M160.809 136.529c1.02-.977 4.911-5.298 5.599-6.51.744-1.31 1.308-2.771 2.374-3.839.207-.208.655.011.67.319a5.2 5.2 0 0 1-.177 1.641c-.083.298 1.008.636 1.284.473.205-.122 3.673-3.615 3.756-3.702.187-.195.62-.002.491.416-.546 1.768-1.808 3.879-2.66 4.91-2.142 2.593-6.742 5.505-8.888 8.281"/><path fill="#B85C08" d="M148.855 154.643c1.621-.274 5.106-2.449 6.619-4.194 2.385-2.752 9.979-11.681 10.19-13.181.09-.638-1.96-2.502-2.761-3.343-.478-.503-4.521 4.093-6.659 5.894-.662.559-4.537 3.501-6.379 4.739" style="fill:#76522e;fill-opacity:1"/><path stroke="#2E3C87" stroke-miterlimit="10" stroke-width=".283" d="M147.773 144.762c3.532-.587 7.259-3.295 14.309-10.56a.636.636 0 0 1 .911-.005l2.631 2.708"/><path stroke="#2E3C87" stroke-miterlimit="10" stroke-width=".283" d="M150.304 143.923c-.707-.492-2.049-1.024-2.906-1.101"/><path fill="#F7B094" d="M152.948 117.766c.504-1.93 1.239-4.773 1.584-6.075.142-.536.284-1.072.445-1.603.036-.12.079-.249.164-.324a.35.35 0 0 1 .236-.074c.791-.013 1.394.662 2.083 1.042.841.465 1.838.492 2.696.918.104.051.214.122.24.261a.7.7 0 0 1-.018.259c-.297 1.569-.626 5.878-.823 7.877-.11 1.117-2.116 1.719-4.123 1.117-2.415-.725-2.685-2.63-2.484-3.398"/><path fill="#E89C82" d="M155.139 109.765a.36.36 0 0 1 .237-.075c.791-.012 1.394.663 2.082 1.043.842.465 1.839.492 2.697.918.103.051.213.122.239.261a.7.7 0 0 1-.017.258l-.5 2.632c-.935.391-1.896.552-2.799.364-1.238-.259-2.327-1.262-2.75-2.711l.202-.764c.143-.536.285-1.072.445-1.602.037-.121.079-.25.164-.324"/><path fill="#F7B094" d="M153.195 108.378c-1.15-.168-2.2-.824-2.385-1.693-.186-.869.712-1.854 1.888-1.892"/><path fill="#F7B094" d="M153.083 108.459c1.207 4.33 4.267 4.885 7.471 5.915.566.182 1.511.259 2.112.193 1.476-.161 2.143-1.57 2.432-2.763.505-2.078.757-4.198.75-6.319-.004-1.46-.142-2.956-.862-4.296s-2.119-2.51-3.871-2.798c-2.183-.356-4.359.712-5.819 2.074-2.154 2.011-3.252 4.876-2.359 7.462"/><path fill="#F7B094" d="M165.848 105.415c0 1.344.054 1.122.185 1.89.014.083.18.739.635 1.048.358.243.447.793.131 1.094a1.03 1.03 0 0 1-.592.285c-.347.061-.685-.032-.883-.319"/><path fill="#38303B" d="M149.941 105.175c3.249-.304 6.246-1.458 8.962-2.852 1.269-.651 2.513-1.375 3.384-2.355.475-.534.827-1.264.398-1.846-.466-.634-1.56-.72-2.464-.669q-.984.056-1.948.205c-1.084.168-2.156.428-3.082.892-1.064.534-1.89 1.31-2.688 2.081-.818.791-1.66 1.653-1.765 2.689M161.175 103.056c-.046.035.01.093.077.098a.4.4 0 0 0 .191-.045 4 4 0 0 1 2.399-.141c.117.031.237.068.364.063.128-.004.264-.07.262-.156-.001-.036-.028-.071-.057-.101-.128-.127-.335-.208-.548-.264a3.52 3.52 0 0 0-2.156.15c-.239.101-.463.24-.555.42"/><path fill="#ED825D" d="M157.778 108.219c-.021.977.827 1.804 1.894 1.848 1.066.043 1.947-.714 1.966-1.69.021-.977-.827-1.804-1.894-1.848s-1.946.713-1.966 1.69" opacity=".54"/><path fill="#38303B" d="M162.679 105.232c.03.52.305.933.613.923.309-.01.535-.439.504-.959-.03-.519-.305-.932-.613-.923-.309.01-.535.44-.504.959"/><path fill="#fff" stroke="#777776" stroke-miterlimit="10" stroke-width=".992" d="M175.95 52h26.486a7.946 7.946 0 0 1 7.946 7.946V82.9a7.946 7.946 0 0 1-7.946 7.946h-17.347l-11.566 12.686c-.453.497-1.271.077-1.132-.58l2.576-12.173c-3.923-.485-6.963-3.824-6.963-7.879V59.946A7.946 7.946 0 0 1 175.95 52Z" style="stroke:#050316;stroke-opacity:1"/><path fill="#B85C08" d="M180.582 66.549c.037 4.865 8.325 17.714 8.325 17.714s8.092-12.973 8.055-17.838c-.036-4.866-3.733-8.782-8.256-8.748-4.524.035-8.16 4.006-8.124 8.872m3.783-.423c-.018-2.476 1.938-4.498 4.37-4.516s4.419 1.974 4.438 4.45-1.938 4.498-4.37 4.516c-2.432.02-4.419-1.973-4.438-4.45" style="fill:#feb816;fill-opacity:1"/></svg>