<svg xmlns="http://www.w3.org/2000/svg" width="246" height="246" fill="none"><path fill="#263238" d="M233.367 245.5c0 .277-52.245.5-116.678.5C52.234 246 0 245.775 0 245.5c0-.277 52.234-.5 116.689-.5 64.433 0 116.678.223 116.678.5"/><path fill="#5D5D5D" d="M188.184 74.384q-5.184 0-9.28-2.752-4.032-2.752-6.336-7.872-2.24-5.184-2.24-12.16t2.24-12.096q2.304-5.184 6.336-7.936 4.096-2.752 9.28-2.752t9.216 2.752q4.096 2.752 6.4 7.936 2.304 5.12 2.304 12.096T203.8 63.76q-2.304 5.12-6.4 7.872-4.032 2.752-9.216 2.752m0-4.224q3.904 0 6.848-2.176 3.008-2.176 4.672-6.336t1.664-10.048-1.664-10.048-4.672-6.336q-2.944-2.175-6.848-2.176-3.905 0-6.912 2.176-2.945 2.176-4.608 6.336Q175 45.712 175 51.6t1.664 10.048 4.608 6.336q3.007 2.175 6.912 2.176M227.31 48.4q7.04.384 10.688 3.84 3.712 3.392 3.712 8.896 0 3.84-1.856 6.848-1.856 2.944-5.504 4.672t-8.896 1.728q-4.864 0-9.216-1.536-4.289-1.6-6.912-4.224l2.24-3.648q2.24 2.304 5.952 3.776 3.712 1.408 7.936 1.408 5.504 0 8.512-2.368 3.008-2.432 3.008-6.656 0-4.16-3.008-6.528t-9.088-2.368h-3.2v-3.392l12.416-15.552h-22.912V29.2h28.8v3.264z" opacity=".2"/><path fill="#B85C08" d="M241.906 201.919h-32.887a4.097 4.097 0 0 1-4.097-4.097v-2.395c0-7.935 3.551-14.367 14.367-14.367h12.346c11.335 0 14.367 6.432 14.367 14.367v2.395a4.095 4.095 0 0 1-4.096 4.097" style="fill:#feb816;fill-opacity:1"/><path fill="#38303B" d="M213.329 201.586a37.5 37.5 0 0 1-.359-15.232 37 37 0 0 1 1.032-4.216c.119-.388-.487-.553-.605-.167a38.13 38.13 0 0 0-.674 19.782c.092.394.698.227.606-.167M239.097 201.892a43 43 0 0 0 .197-15.563 42 42 0 0 0-.988-4.358c-.109-.388-.716-.224-.605.167a42.3 42.3 0 0 1 1.416 15.243 42 42 0 0 1-.626 4.344c-.078.395.528.564.606.167M217.386 183.449c1.363-2.283 3.474-4.197 6.075-4.918 2.489-.691 5.066-.067 7.145 1.412 1.284.914 2.334 2.122 3.143 3.468.208.346.751.031.542-.317-1.462-2.432-3.737-4.452-6.519-5.193-2.648-.706-5.423-.036-7.619 1.558-1.349.98-2.457 2.244-3.31 3.673-.207.348.336.665.543.317" style="fill:#050316;fill-opacity:1"/><path fill="#38303B" d="M233.471 183.32c-.225.345-.255.801-.154 1.193.098.38.352.755.748.864.434.12.862-.118 1.115-.462.272-.369.321-.877.149-1.298-.199-.491-.664-.892-1.221-.771-.161.034-.269.231-.219.386a.32.32 0 0 0 .386.219c.074-.016-.049-.004-.004-.001l.046-.002c.013 0 .044-.004.056.003-.002-.001-.076-.018-.016 0q.044.012.088.028c-.074-.028.031.02.051.034.001.001.065.048.027.018-.037-.031.025.022.025.024q.038.035.072.073c.039.042.008.008 0-.002l.031.043q.041.062.074.128c.004.008.029.06.013.025-.018-.042.015.042.014.04q.019.053.031.108.007.027.012.055c.018.085.001-.037.002.015.001.049.006.096.003.144l-.005.07c.001-.012.012-.062-.001-.004q-.011.051-.025.102l-.017.049c-.022.077.021-.036-.001.007q-.027.056-.059.11c-.012.02-.079.1-.029.046q-.03.036-.064.071l-.042.04c-.008.007-.048.04-.013.012a.676.676 0 0 1-.082.05l-.039.021c-.042.022.012 0 .014-.007-.005.013-.081.024-.093.027-.042.012-.015-.006-.01.003l.021-.002-.042.002h-.042c-.061.002.064.018 0 .001-.013-.004-.079-.011-.083-.023.001.003.058.031.015.006l-.046-.025c-.004-.003-.043-.026-.042-.028.001-.004.059.053.016.01l-.073-.074c-.013-.014-.03-.046.009.013l-.025-.035a1 1 0 0 1-.051-.086c-.01-.02-.047-.115-.02-.038q-.02-.055-.039-.11a1 1 0 0 1-.028-.115l-.009-.047c-.014-.071.003.055-.001-.011a2 2 0 0 1-.003-.24c0-.004.01-.081.002-.029-.007.049.004-.018.006-.028q.012-.063.031-.124l.015-.044c.023-.066-.009.011.004-.008.023-.034.038-.073.061-.108.09-.137.032-.353-.112-.429a.317.317 0 0 0-.427.111M216.82 182.831c-.428.095-.714.511-.821.912-.119.447-.046.942.27 1.291.303.335.788.435 1.197.255.408-.179.594-.628.629-1.045.04-.476-.134-.974-.521-1.263-.132-.099-.357-.026-.43.112-.087.165-.028.325.113.43-.081-.06.009.012.027.03l.031.035c.046.049-.039-.06-.003-.003q.028.041.052.084l.019.035.01.017c.014-.002.055.181.059.201q.007.03.012.063c.012.061-.002-.02-.002-.02.014.008.009.111.009.129a2 2 0 0 1-.007.171c-.005.075.015-.073 0 0a2 2 0 0 1-.058.222c-.021.064.027-.046.004-.009q-.011.021-.022.045-.024.042-.05.085c-.036.058.048-.051.001-.002l-.028.032-.044.043c-.046.046.05-.031 0 .001-.029.018-.064.034-.092.053-.034.023.074-.024.013-.006q-.027.009-.054.016l-.036.008c-.066.017.076-.003.009 0h-.112c-.065-.002.058.015.018.002-.015-.005-.032-.005-.047-.009s-.076-.034-.091-.029c.027-.009.06.028.005 0l-.035-.019-.05-.031c-.055-.034.044.041-.001 0a1 1 0 0 1-.081-.078c-.009-.01-.029-.026-.034-.039l.024.029-.024-.035q-.03-.047-.054-.097c-.027-.053.002.009.005.013-.015-.016-.022-.063-.029-.084a1 1 0 0 1-.024-.109c-.016-.075.003.071 0-.005l-.003-.045a1 1 0 0 1 0-.113l.005-.068c.004-.071-.012.058 0-.006q.026-.132.071-.258c.026-.071-.032.061.004-.006q.014-.029.029-.058.031-.055.067-.108c.038-.061-.047.051 0-.002l.047-.052.036-.034.029-.026-.026.02a1 1 0 0 0 .097-.058c.033-.023-.075.024-.016.007q.035-.011.071-.019a.317.317 0 0 0 .219-.387.323.323 0 0 0-.387-.218M231.602 179.685v-.814c0-.255.076-.634-.124-.828-.228-.222-.572-.383-.848-.54q-.446-.255-.916-.466a10.6 10.6 0 0 0-1.939-.659 9.8 9.8 0 0 0-3.91-.101c-1.296.228-2.703.713-3.782 1.484-.289.206-.228.565-.247.892l-.054.966c-.023.404.605.403.628 0l.087-1.549q-.077.136-.156.271c1.618-1.027 3.487-1.627 5.413-1.588 1.934.039 3.789.719 5.374 1.809l-.155-.272v1.396c.001.404.629.404.629-.001" style="fill:#050316;fill-opacity:1"/><path fill="#86514D" d="M216.474 137.771c1.917 7.099 2.883 11.415 4.466 18.172.588 2.508 2.324 9.59 2.852 12.093.604 2.863-1.768 4.57-3.245.497-1.195-3.297-2.446-5.784-3.569-8.693-3.067-7.948-6.226-14.17-8.123-23.214" style="fill:#76522e;fill-opacity:1"/><path fill="#86514D" d="m177.16 232.485.601 3.702c.039.24.078.485.048.726-.122.942-1.206 1.454-1.625 2.311a.55.55 0 0 0-.073.291c.029.322.455.419.783.431l2.883.105c.363.014.792-.004.994-.301.091-.134.114-.3.135-.46l.931-6.995M203.285 232.485l-.592 3.702c-.038.24-.076.484-.046.726.119.942 1.186 1.454 1.599 2.31a.57.57 0 0 1 .072.292c-.028.322-.447.419-.77.431l-2.837.105c-.357.013-.779-.004-.978-.301-.089-.134-.113-.3-.134-.46l-.915-6.995"/><path fill="#38303B" d="M212.932 243.771c-2.353.089-4.281.159-6.635.249-.719.027-1.477.047-2.116-.286-.352-.183-.703-.478-1.093-.399-.301.061-.512.331-.788.465-.243.118-.522.127-.792.132l-2.468.053c-.271.006-.571.002-.775-.176-.241-.21-.256-.573-.242-.892.058-1.262.287-2.515.678-3.716.089-.273.221-.578.495-.663.253-.078.514.064.744.194.932.523 2.157.893 3.017.259.224-.165.408-.391.665-.496.284-.118.606-.069.909-.013a30 30 0 0 1 7.539 2.451c.542.259 1.103.558 1.425 1.065.322.509.298 1.285-.206 1.614" style="fill:#050316;fill-opacity:1"/><path fill="#F09532" d="M208.041 239.003c-.543.394-.824.997-.903 1.651-.009.074.041.172.092.223a.32.32 0 0 0 .222.091c.187-.008.292-.139.314-.314.007-.059-.008.051-.001.011l.006-.042.018-.093a2 2 0 0 1 .047-.186q.028-.092.062-.182c.015-.039-.003 0-.007.016.004-.016.014-.033.022-.048q.02-.044.042-.086a2 2 0 0 1 .09-.157q.026-.04.054-.079l.014-.019c-.028.036.002-.002.008-.009a1.6 1.6 0 0 1 .2-.204c.009-.008.026-.017.033-.027l-.022.016.026-.019c.133-.096.211-.277.113-.429-.085-.132-.287-.217-.43-.114M205.853 238.37a4.37 4.37 0 0 0-1.088 1.864c-.045.158.054.349.219.386a.32.32 0 0 0 .386-.219 5 5 0 0 1 .074-.234l.039-.108.027-.068.002-.005q.096-.225.221-.437.121-.206.264-.396c.032-.043-.044.055.013-.016q.018-.023.037-.045l.074-.088a5 5 0 0 1 .178-.19c.115-.116.125-.329 0-.444-.127-.115-.323-.125-.446 0" style="fill:#feb816;fill-opacity:1"/><path fill="#38303B" d="M167.526 243.844c2.353.089 4.281.159 6.634.249.72.028 1.477.047 2.117-.286.352-.183.703-.478 1.092-.399.302.061.513.331.79.465.242.118.522.126.791.132l2.468.053c.272.006.571.002.776-.176.24-.209.256-.573.241-.892a14 14 0 0 0-.678-3.715c-.089-.273-.221-.579-.495-.663-.252-.079-.514.064-.745.192-.932.524-2.156.894-3.016.26-.224-.165-.409-.391-.665-.496-.284-.118-.607-.068-.909-.013a30.1 30.1 0 0 0-7.539 2.45c-.542.26-1.103.559-1.425 1.066-.322.508-.298 1.285.205 1.614" style="fill:#050316;fill-opacity:1"/><path fill="#86514D" d="M185.347 128.129c-5.297-4.706-8.579-7.38-13.696-11.634-1.899-1.579-7.236-6.109-9.15-7.63-2.188-1.74-4.334-.227-1.411 2.826 2.365 2.469 4.043 4.659 6.11 6.902 5.646 6.128 9.833 11.633 16.749 17.119" style="fill:#76522e;fill-opacity:1"/><path fill="#86514D" d="M162.945 109.231c-1.228-1.338-1.414-2.481-1.885-3.722-.334-.879-.823-1.677-1.308-2.467l-2.345-3.823c-.082-.133-.196-.284-.329-.26-.184.034-.176.34-.125.556l.572 2.375c.01.042-.029.072-.06.044-1.358-1.267-3.016-2.608-3.855-3.002-.307-.108-.376.19-.212.462l3.226 3.657c.036.041-.006.102-.048.07l-2.865-2.253c-.368-.29-.75-.586-1.167-.723-.138-.045-.269.091-.226.249.105.393.377.681.658.974 1.647 1.718 2.768 2.925 2.734 3.016-.068.066-1.686-1.331-2.757-2.214-.238-.197-.547-.395-.796-.387-.246.009-.317.244-.159.478.845 1.252 1.753 2.201 2.871 3.133.041.034.008.104-.037.076 0 0-2.394-2.087-2.629-1.66-.186.339.32.878.634 1.207 1.724 1.801 4.374 4.125 6.514 5.232 1.332.689 1.739 1.229 1.989 1.534" style="fill:#76522e;fill-opacity:1"/><path fill="#794642" d="M160.261 108.924c-.979-1.417-1.185-3.184-1.369-4.853-.031-.282-.477-.285-.445 0 .192 1.745.406 3.595 1.429 5.078.163.234.548.012.385-.225" style="fill:#4d1f00;fill-opacity:1"/><path fill="#2E3C87" d="M194.339 176.841h-.998l-6.88 28.618-3.657 27.334a.385.385 0 0 1-.373.335l-5.781.161a.49.49 0 0 1-.501-.512l1.362-28.471 5.033-37.373 1.774-6.838 21.808.974.735 8.741-1.059 36.014-1.784 27.169a.526.526 0 0 1-.543.492l-4.84-.166a.526.526 0 0 1-.508-.508l-.956-27.153z" style="fill:#2e3c87;fill-opacity:.93000001"/><path fill="#38303B" d="M197.45 113.39a1.5 1.5 0 0 0-1.211-.794c-.522-.039-1.027.237-1.317.663-.068.099-.019.246.08.304.11.064.237.02.304-.08.206-.301.572-.469.933-.442.354.027.667.264.826.573.131.255.516.03.385-.224M202.186 114.058c.229-.28.589-.445.953-.393.343.049.666.294.798.616.045.112.148.191.273.156.106-.029.201-.162.156-.274-.189-.467-.601-.844-1.108-.927a1.49 1.49 0 0 0-1.387.506c-.076.093-.091.225 0 .315.079.079.238.094.315.001"/><path fill="#F2E2C8" d="M206.567 177.155c-1.449-1.403-2.371-3.267-2.796-5.225-.087-.398-.696-.229-.61.168.447 2.059 1.437 4.03 2.959 5.504.292.283.74-.164.447-.447M185.259 171.111c-.742 1.999-1.808 4.037-3.683 5.183-.347.212-.03.759.319.546 2.024-1.238 3.172-3.401 3.974-5.561.142-.382-.469-.546-.61-.168M182.761 230.412c-2.057.075-4.117.017-6.174.029-.407.002-.408.634 0 .632 2.057-.011 4.117.047 6.174-.028.406-.015.408-.648 0-.633M203.75 230.978c-1.814-.026-3.626-.14-5.437-.237-.407-.021-.406.611 0 .633 1.811.097 3.622.211 5.437.236.408.006.408-.627 0-.632" opacity=".46"/><path fill="#F2E2C8" d="M214.318 134.09c-3.278-2.513-5.83-4.319-10.855-4.825-2.56-.258-7.075-1.363-10.515-1.752-.381-.044-8.483-2.392-8.827-2.207-.272.146-.723-.427-2.077 1.493-1.02 1.446-2.106 2.851-2.569 4.598s-.94 2.478.298 3.71c1.27 1.265 4.114 2.855 4.876 4.53.411.902.281 1.969.142 2.963l-3.616 25.861c-.083.588-.147 1.253.198 1.716.356.477.995.539 1.562.565l23.168 1.027c.498.022 1.046.027 1.43-.316.437-.391.496-1.079.52-1.692.326-8.168 1.504-16.679 1.576-24.854 1.083-1.195.517 1.922 1.957 1.31.675-.287 4.932-5.299 5.245-6.009 1.201-2.731-2.265-5.927-2.513-6.118" style="fill:#feb816;fill-opacity:1"/><path fill="#38303B" d="M202.669 118.528c1.587-.581 2.793-1.882 3.53-3.342s1.052-3.081 1.282-4.69c.116-.813.166-1.759-.456-2.331-.321-.295-.764-.428-1.19-.551-1.982-.576-3.452-.867-5.511-1.059s-4.739-.258-6.546.688c-.267.14-.536.304-.689.555-.154.251-.172.556-.184.848-.088 1.978-.102 4.019.655 5.87s2.459 3.485 4.53 3.651" style="fill:#050316;fill-opacity:1"/><path fill="#86514D" d="M195.609 129.175a1.5 1.5 0 0 1-.658-1.558c.389-1.963 1.06-5.23 1.318-6.587a.55.55 0 0 1 .078-.224c.081-.11.226-.133.355-.142 1.078-.073 2.154.236 3.23.124.879-.093 1.778-.463 2.62-.188.085.027.173.066.225.142.063.091.06.215.053.329a34 34 0 0 1-.127 1.506c-.128 1.298-.376 4.235-.541 6.03a1.49 1.49 0 0 1-.917 1.252c-.689.28-1.732.576-2.853.436-1.066-.135-2.096-.678-2.783-1.12" style="fill:#76522e;fill-opacity:1"/><path fill="#794642" d="M202.78 120.742c-.053-.077-.141-.115-.226-.143-.842-.274-1.74.096-2.62.188-1.075.112-2.152-.197-3.229-.123-.13.009-.275.031-.355.141a.55.55 0 0 0-.078.224l-.456 2.396c.854.643 1.821 1.1 2.858 1.242 1.422.195 2.964-.291 3.961-1.378l.07-.714c.05-.501.1-1.002.128-1.505.006-.113.009-.237-.053-.328" style="fill:#4d1f00;fill-opacity:1"/><path fill="#86514D" d="M206.265 115.839c-.398 4.735-4.153 8.285-7.211 8.028s-6.167-4.385-5.77-9.119c.399-4.735 4.084-7.45 7.141-7.193 3.059.257 6.238 3.55 5.84 8.284" style="fill:#76522e;fill-opacity:1"/><path fill="#86514D" d="M205.754 117.655c.819-.165 1.566-.769 1.698-1.557s-.508-1.669-1.346-1.691M193.685 116.64c-.78-.299-1.417-1.02-1.415-1.819.001-.798.779-1.561 1.609-1.442" style="fill:#76522e;fill-opacity:1"/><path fill="#38303B" d="M198.183 111.833c.045.058-.014.154-.083.164s-.133-.032-.193-.071a2.58 2.58 0 0 0-2.442-.197c-.121.054-.245.118-.374.112-.13-.006-.266-.113-.259-.256a.36.36 0 0 1 .063-.169c.136-.214.352-.353.572-.449a2.28 2.28 0 0 1 2.192.215c.24.165.461.391.546.69M201.59 112.12c-.053.05-.011.155.055.177s.137-.011.202-.039a2.58 2.58 0 0 1 2.44.214c.111.073.222.157.351.172.128.016.28-.067.297-.209a.34.34 0 0 0-.034-.177c-.098-.234-.287-.406-.489-.537a2.28 2.28 0 0 0-2.197-.155c-.264.123-.519.31-.653.589" style="fill:#050316;fill-opacity:1"/><path fill="#794642" d="M204.876 118.017c-.063.752-.755 1.308-1.544 1.241-.79-.066-1.379-.73-1.316-1.482.064-.751.755-1.307 1.545-1.241.789.067 1.379.73 1.315 1.482M197.087 117.362c-.063.752-.754 1.308-1.544 1.241s-1.379-.73-1.316-1.482c.064-.752.755-1.307 1.545-1.241.789.067 1.378.73 1.315 1.482" style="fill:#4d1f00;fill-opacity:1"/><path fill="#38303B" d="M203.51 114.353c-.039.469-.289.831-.558.808s-.455-.421-.415-.89c.039-.469.289-.832.558-.809s.455.422.415.891M196.698 113.78c-.04.469-.29.831-.559.809-.269-.023-.455-.422-.415-.891s.29-.831.558-.808.455.421.416.89" style="fill:#050316;fill-opacity:1"/><path fill="#E66E60" d="M201.35 119.965c-1.194 1.4-2.316 1.654-3.672 1.191-.498-.169-1.223-1.098-1.373-1.696 1.596 1.072 3.336 1.29 5.077.411"/><path fill="#fff" d="M201.351 119.965c-1.16.67-2.503.797-4.226.179-.39-.14-.771-.382-.941-.745 1.628.696 3.629.879 5.335.412z"/><path fill="#38303B" d="M207.229 111.806c-1.955-.445-3.697-1.814-4.656-3.661.026.765.194 1.524.491 2.22a25.6 25.6 0 0 0-10.953.21c-.119.029-.249.058-.36.002-.192-.096-.208-.372-.191-.596.129-1.754.648-3.564 1.859-4.783.635-.639 1.425-1.081 2.24-1.421 2.752-1.149 5.955-1.165 8.591.206 2.636 1.372 4.606 4.185 4.829 7.285" style="fill:#050316;fill-opacity:1"/><path fill="#794642" d="m199.477 112.941-.696 3.293-.172.813c-.046.215-.148.475-.032.684.114.204.328.216.537.228l.812.044c.404.022.402-.607 0-.629l-.684-.037-.171-.009q-.242-.045.076.202c.034-.02.047-.22.058-.271l.295-1.398.583-2.752c.084-.395-.522-.564-.606-.168" style="fill:#4d1f00;fill-opacity:1"/><path fill="#86514D" d="M220.762 168.816c1.044 2.482 1.912 5.254 2.076 7.885.317-.433 1.233-.592 1.748-.328s.356.712.25 1.214c-.076.36-.353.718-.772.806.481.799 1.718 1.03 2.773.945.546-.044 1.11-.157 1.52-.464.807-.601.72-1.72.204-2.518s-1.358-1.405-1.987-2.143c-.477-.558-.826-1.184-1.156-1.814-1.086-2.072-1.45-4.326-2.143-6.516" style="fill:#76522e;fill-opacity:1"/><path fill="#F09532" d="M172.094 239.619c.008.006.059.042.02.013-.037-.026.002.003.01.009l.071.064q.07.066.131.138c.008.01.016.025.027.033-.024-.019-.031-.042-.004-.004a2 2 0 0 1 .15.243l.037.077.022.048c.018.039-.021-.056-.007-.016q.034.09.064.181.027.092.048.185l.018.094.007.041c.01.086.028.159.091.222a.32.32 0 0 0 .223.092c.153-.007.335-.139.314-.314-.08-.654-.361-1.257-.903-1.651-.134-.097-.357-.027-.43.112-.087.166-.031.329.111.433M174.156 238.887q.087.087.168.179l.075.088.045.056.004.005a4 4 0 0 1 .488.832c.022.048-.027-.067.007.018l.022.053.04.108q.043.123.078.248c.045.158.224.272.387.219.16-.052.267-.217.219-.386a4.36 4.36 0 0 0-1.089-1.865c-.115-.117-.33-.124-.444 0a.32.32 0 0 0 0 .445" style="fill:#feb816;fill-opacity:1"/><path fill="#fff" stroke="#777776" stroke-miterlimit="10" stroke-width=".992" d="M182.958 59.378h-24.583A7.375 7.375 0 0 0 151 66.753v21.305a7.375 7.375 0 0 0 7.375 7.376h16.101l10.735 11.775c.42.461 1.18.071 1.051-.539l-2.392-11.299c3.642-.45 6.463-3.549 6.463-7.313V66.753a7.374 7.374 0 0 0-7.375-7.375Z" style="stroke:#050316;stroke-opacity:1"/><path fill="#B85C08" d="M170.957 64.812c-4.199-.032-7.63 3.603-7.664 8.12-.034 4.515 7.477 16.556 7.477 16.556s7.692-11.927 7.726-16.442c.035-4.516-3.341-8.203-7.539-8.234m-.091 11.973c-2.257-.017-4.074-1.894-4.056-4.192s1.862-4.148 4.119-4.13c2.257.016 4.073 1.894 4.056 4.191-.017 2.298-1.862 4.148-4.119 4.13M22.625 225.234a326 326 0 0 1-2.096-32.125c-.043-2.798-.04-5.666.918-8.295 1.064-2.917 3.21-5.29 5.305-7.581 3.15-3.444 6.347-6.929 10.272-9.455 5.105-3.287 11.173-4.771 17.203-5.488 5.16-.613 10.365-.704 15.56-.793l46.73-.806c3.887-.067 7.812-.131 11.618.659 4.544.942 8.744 3.06 12.883 5.157 6.244 3.164 12.836 6.649 16.301 12.73 2.82 4.948 2.697 10.707 2.94 16.397.415 9.695.395 19.334-.96 29.159-.19 1.379-.759 2.806-1.888 3.619-.901.649-2.07.764-3.179.83-11.961.707-24.066-1.773-35.889.172" style="fill:#feb816;fill-opacity:1"/><path fill="#38303B" d="M40.614 225.079H27.187a2.703 2.703 0 0 0-2.703 2.703v14.665a2.7 2.7 0 0 0 2.703 2.702h13.427a2.7 2.7 0 0 0 2.702-2.702v-14.665a2.7 2.7 0 0 0-2.702-2.703" style="fill:#050316;fill-opacity:1"/><path fill="#211E23" d="M43.317 227.547H24.484v11.68h18.833z" opacity=".58" style="fill:#050316;fill-opacity:1"/><path fill="#38303B" d="M155.083 225.079h-13.427a2.703 2.703 0 0 0-2.703 2.703v14.665a2.703 2.703 0 0 0 2.703 2.702h13.427a2.7 2.7 0 0 0 2.702-2.702v-14.665a2.703 2.703 0 0 0-2.702-2.703" style="fill:#050316;fill-opacity:1"/><path fill="#211E23" d="M157.786 227.547h-18.833v11.68h18.833z" opacity=".58" style="fill:#050316;fill-opacity:1"/><path fill="#B85C08" d="M120.671 136.115H61.703l7.576-13.881a3.77 3.77 0 0 1 3.31-1.965h37.195c1.38 0 2.65.754 3.311 1.965z" style="fill:#feb816;fill-opacity:1"/><path fill="#F0EFED" d="M117.769 135.336H64.602l7.108-11.84a2.37 2.37 0 0 1 2.03-1.149h34.892c.831 0 1.602.437 2.029 1.149z"/><path fill="#38303B" d="M82.523 128.456a5.9 5.9 0 0 0-2.123-.737V134h-1.782v-6.281a6 6 0 0 0-2.134.737l-.605-1.331a6.6 6.6 0 0 1 1.716-.715 7.5 7.5 0 0 1 1.903-.242q.99 0 1.914.242.934.242 1.716.715zm4.762-2.288q1.067 0 1.86.418.791.418 1.231 1.232t.44 1.969V134h-1.782v-1.848h-3.52V134h-1.76v-4.213q0-1.155.44-1.969a2.94 2.94 0 0 1 1.232-1.232q.792-.418 1.86-.418m1.75 4.554v-1.1q0-.957-.474-1.441-.472-.495-1.287-.495-.825 0-1.298.495-.462.484-.462 1.441v1.1zM97.318 134l-1.86-2.673L93.635 134h-2.046l2.849-3.916-2.706-3.784h2.024l1.77 2.497 1.739-2.497h1.925l-2.684 3.718 2.87 3.982zm5.641-6.27v4.84h1.331V134h-4.455v-1.43h1.342v-4.84h-1.342v-1.43h4.455v1.43z" style="fill:#050316;fill-opacity:1"/><path fill="#B85C08" d="m145.931 168.943-112.029 1.912 11.783-31.114c.98-2.589 3.244-4.278 5.759-4.297l76.195-.575c2.462-.019 4.707 1.568 5.75 4.062z" style="fill:#feb816;fill-opacity:1"/><path fill="#F0EFED" d="m142.8 168.821-105.757 1.746 11.123-28.411c.925-2.364 3.062-3.907 5.436-3.924l71.93-.526c2.324-.016 4.444 1.432 5.428 3.709zM121.767 204.492s-23.301 2.129-31.088 2.125c-7.635-.004-30.477-2.125-30.477-2.125-1.689 0-3.057-1.074-3.057-2.4v-3.023c0-1.325 1.369-2.399 3.057-2.399 0 0 22.656-2.019 30.213-2.022 7.842-.004 31.352 2.022 31.352 2.022 1.689 0 3.058 1.074 3.058 2.399v3.023c0 1.326-1.369 2.4-3.058 2.4M127.358 218.17H54.604a.995.995 0 0 1-.995-.995v-.972c0-.55.446-.994.995-.994h72.754c.549 0 .994.445.994.994v.972a.994.994 0 0 1-.994.995"/><path fill="#C4C4C4" d="M159.124 222.776H22.841a4.247 4.247 0 0 0-4.247 4.247v4.996a4.247 4.247 0 0 0 4.247 4.247h136.283a4.247 4.247 0 0 0 4.247-4.247v-4.996a4.246 4.246 0 0 0-4.247-4.247"/><path fill="#38303B" d="M18.594 231.001v1.646c0 1.999 1.45 3.619 3.237 3.619h138.303c1.788 0 3.237-1.62 3.237-3.619v-1.646z" opacity=".14"/><path fill="#B85C08" d="M35.048 168.769c-1.339-.119-2.756-.267-3.826-1.08-.652-.495-1.113-1.193-1.601-1.849-1.223-1.644-2.755-3.145-4.679-3.847s-4.293-.447-5.72 1.024c-1.63 1.681-1.565 4.568-.19 6.466 1.372 1.897 3.772 2.861 6.113 2.947 1.383.051 2.758-.168 4.124-.387l6.225-.999M144.977 168.769c1.339-.119 2.756-.267 3.826-1.08.652-.495 1.113-1.192 1.601-1.849 1.223-1.644 2.755-3.145 4.679-3.847s4.293-.447 5.719 1.024c1.63 1.681 1.565 4.568.192 6.466-1.374 1.897-3.774 2.861-6.114 2.948-1.383.05-2.758-.169-4.124-.388l-6.225-.998" style="fill:#feb816;fill-opacity:1"/><path fill="#F0EFED" d="M51.672 203.046c-7.067 2.116-15.15.45-20.803-4.289-2.306-1.933-4.28-4.477-4.735-7.45-.064-.413-.095-.849.063-1.236.324-.793 1.287-1.084 2.136-1.198 6.034-.813 12.022 1.772 17.233 4.919 2.343 1.416 4.518 3.409 6.37 5.425.898.977 1.613 2.655.578 3.483M130.224 203.046c7.067 2.116 15.15.45 20.803-4.289 2.306-1.933 4.279-4.477 4.735-7.45.064-.413.095-.849-.063-1.236-.324-.793-1.286-1.084-2.136-1.198-6.033-.813-12.022 1.772-17.233 4.919-2.343 1.416-4.517 3.409-6.37 5.425-.898.977-1.613 2.655-.578 3.483"/></svg>